<svg width="1903" height="959" viewBox="0 0 1903 959" fill="none" xmlns="http://www.w3.org/2000/svg">
<g id="Group 80">
<path id="2 &#208;&#191;&#208;&#190;&#208;&#187;&#209;&#143; &#209;&#129; &#208;&#178;&#209;&#139;&#209;&#129;&#208;&#190;&#209;&#130;&#208;&#190;&#208;&#185; &#208;&#178;&#208;&#190;&#209;&#128;&#209;&#129;&#208;&#176; 40 &#208;&#188;&#208;&#188; &#208;&#184; &#209;&#128;&#208;&#181;&#208;&#183;&#208;&#184;&#208;&#189;&#208;&#190;&#208;&#178;&#208;&#190;&#208;&#185; &#208;&#186;&#209;&#128;&#208;&#190;&#209;&#136;&#208;&#186;&#208;&#190;&#208;&#185;" d="M1369.48 624.956V626H1363.44V625.184L1366.86 621.884C1367.28 621.484 1367.56 621.14 1367.7 620.852C1367.85 620.556 1367.92 620.26 1367.92 619.964C1367.92 619.524 1367.76 619.184 1367.45 618.944C1367.15 618.696 1366.71 618.572 1366.13 618.572C1365.2 618.572 1364.49 618.876 1363.98 619.484L1363.17 618.776C1363.5 618.376 1363.92 618.064 1364.45 617.84C1364.99 617.616 1365.58 617.504 1366.24 617.504C1367.12 617.504 1367.82 617.716 1368.34 618.14C1368.86 618.556 1369.12 619.124 1369.12 619.844C1369.12 620.292 1369.02 620.716 1368.83 621.116C1368.64 621.516 1368.28 621.972 1367.74 622.484L1365.17 624.956H1369.48ZM1382.62 617.6V626H1381.44V618.644H1376.57V626H1375.38V617.6H1382.62ZM1389.5 626.096C1388.65 626.096 1387.88 625.912 1387.2 625.544C1386.52 625.168 1385.99 624.652 1385.6 623.996C1385.21 623.34 1385.02 622.608 1385.02 621.8C1385.02 620.992 1385.21 620.26 1385.6 619.604C1385.99 618.948 1386.52 618.436 1387.2 618.068C1387.88 617.692 1388.65 617.504 1389.5 617.504C1390.34 617.504 1391.1 617.692 1391.78 618.068C1392.46 618.436 1392.99 618.948 1393.37 619.604C1393.76 620.252 1393.95 620.984 1393.95 621.8C1393.95 622.616 1393.76 623.352 1393.37 624.008C1392.99 624.656 1392.46 625.168 1391.78 625.544C1391.1 625.912 1390.34 626.096 1389.5 626.096ZM1389.5 625.028C1390.11 625.028 1390.66 624.888 1391.15 624.608C1391.65 624.328 1392.04 623.944 1392.32 623.456C1392.6 622.96 1392.75 622.408 1392.75 621.8C1392.75 621.192 1392.6 620.644 1392.32 620.156C1392.04 619.66 1391.65 619.272 1391.15 618.992C1390.66 618.712 1390.11 618.572 1389.5 618.572C1388.88 618.572 1388.32 618.712 1387.82 618.992C1387.32 619.272 1386.93 619.66 1386.64 620.156C1386.36 620.644 1386.22 621.192 1386.22 621.8C1386.22 622.408 1386.36 622.96 1386.64 623.456C1386.93 623.944 1387.32 624.328 1387.82 624.608C1388.32 624.888 1388.88 625.028 1389.5 625.028ZM1403 617.6V626H1401.82V618.644H1398.1L1398.02 621.104C1397.98 622.264 1397.88 623.204 1397.73 623.924C1397.59 624.644 1397.35 625.188 1397.03 625.556C1396.71 625.916 1396.28 626.096 1395.74 626.096C1395.49 626.096 1395.24 626.064 1394.98 626L1395.07 624.932C1395.19 624.964 1395.32 624.98 1395.45 624.98C1395.79 624.98 1396.07 624.844 1396.28 624.572C1396.49 624.292 1396.64 623.876 1396.75 623.324C1396.85 622.772 1396.92 622.044 1396.95 621.14L1397.08 617.6H1403ZM1412.25 617.6V626H1411.07V623.552H1408.76C1408.61 623.552 1408.51 623.548 1408.43 623.54L1406.75 626H1405.48L1407.34 623.336C1406.74 623.136 1406.28 622.804 1405.96 622.34C1405.64 621.868 1405.48 621.296 1405.48 620.624C1405.48 619.672 1405.79 618.932 1406.39 618.404C1407.01 617.868 1407.84 617.6 1408.88 617.6H1412.25ZM1406.69 620.612C1406.69 621.236 1406.87 621.716 1407.23 622.052C1407.6 622.38 1408.14 622.544 1408.85 622.544H1411.07V618.644H1408.93C1408.21 618.644 1407.65 618.812 1407.27 619.148C1406.89 619.484 1406.69 619.972 1406.69 620.612ZM1422.81 626.096C1421.97 626.096 1421.21 625.912 1420.53 625.544C1419.86 625.168 1419.33 624.656 1418.95 624.008C1418.56 623.352 1418.37 622.616 1418.37 621.8C1418.37 620.984 1418.56 620.252 1418.95 619.604C1419.33 618.948 1419.86 618.436 1420.54 618.068C1421.22 617.692 1421.98 617.504 1422.82 617.504C1423.48 617.504 1424.08 617.616 1424.62 617.84C1425.17 618.056 1425.63 618.38 1426.01 618.812L1425.23 619.568C1424.6 618.904 1423.81 618.572 1422.87 618.572C1422.25 618.572 1421.68 618.712 1421.18 618.992C1420.67 619.272 1420.28 619.66 1419.99 620.156C1419.71 620.644 1419.57 621.192 1419.57 621.8C1419.57 622.408 1419.71 622.96 1419.99 623.456C1420.28 623.944 1420.67 624.328 1421.18 624.608C1421.68 624.888 1422.25 625.028 1422.87 625.028C1423.81 625.028 1424.59 624.692 1425.23 624.02L1426.01 624.776C1425.63 625.208 1425.16 625.536 1424.61 625.76C1424.07 625.984 1423.47 626.096 1422.81 626.096ZM1437.08 621.644C1437.65 621.78 1438.08 622.024 1438.37 622.376C1438.66 622.72 1438.81 623.164 1438.81 623.708C1438.81 624.436 1438.54 625 1438.01 625.4C1437.48 625.8 1436.71 626 1435.69 626H1431.85V617.6H1435.46C1436.38 617.6 1437.1 617.788 1437.61 618.164C1438.13 618.532 1438.39 619.064 1438.39 619.76C1438.39 620.216 1438.27 620.604 1438.04 620.924C1437.82 621.244 1437.5 621.484 1437.08 621.644ZM1433.04 621.296H1435.38C1435.96 621.296 1436.41 621.18 1436.71 620.948C1437.02 620.716 1437.18 620.376 1437.18 619.928C1437.18 619.48 1437.02 619.14 1436.71 618.908C1436.4 618.668 1435.95 618.548 1435.38 618.548H1433.04V621.296ZM1435.67 625.052C1436.95 625.052 1437.6 624.572 1437.6 623.612C1437.6 623.132 1437.43 622.78 1437.11 622.556C1436.79 622.324 1436.31 622.208 1435.67 622.208H1433.04V625.052H1435.67ZM1444.98 620.528C1445.98 620.528 1446.74 620.752 1447.27 621.2C1447.81 621.648 1448.08 622.308 1448.08 623.18C1448.08 624.1 1447.79 624.8 1447.21 625.28C1446.64 625.76 1445.83 626 1444.76 626H1441.3V617.6H1442.48V620.528H1444.98ZM1444.72 625.052C1445.41 625.052 1445.94 624.896 1446.31 624.584C1446.69 624.264 1446.88 623.804 1446.88 623.204C1446.88 622.052 1446.16 621.476 1444.72 621.476H1442.48V625.052H1444.72ZM1449.41 617.6H1450.6V626H1449.41V617.6ZM1457.45 626.096C1456.61 626.096 1455.85 625.912 1455.17 625.544C1454.5 625.168 1453.97 624.656 1453.59 624.008C1453.2 623.352 1453.01 622.616 1453.01 621.8C1453.01 620.984 1453.2 620.252 1453.59 619.604C1453.97 618.948 1454.5 618.436 1455.18 618.068C1455.86 617.692 1456.62 617.504 1457.46 617.504C1458.12 617.504 1458.72 617.616 1459.26 617.84C1459.81 618.056 1460.27 618.38 1460.65 618.812L1459.87 619.568C1459.24 618.904 1458.45 618.572 1457.51 618.572C1456.89 618.572 1456.32 618.712 1455.82 618.992C1455.31 619.272 1454.92 619.66 1454.63 620.156C1454.35 620.644 1454.21 621.192 1454.21 621.8C1454.21 622.408 1454.35 622.96 1454.63 623.456C1454.92 623.944 1455.31 624.328 1455.82 624.608C1456.32 624.888 1456.89 625.028 1457.51 625.028C1458.45 625.028 1459.23 624.692 1459.87 624.02L1460.65 624.776C1460.27 625.208 1459.8 625.536 1459.25 625.76C1458.71 625.984 1458.11 626.096 1457.45 626.096ZM1466.39 626.096C1465.54 626.096 1464.78 625.912 1464.1 625.544C1463.42 625.168 1462.88 624.652 1462.49 623.996C1462.11 623.34 1461.91 622.608 1461.91 621.8C1461.91 620.992 1462.11 620.26 1462.49 619.604C1462.88 618.948 1463.42 618.436 1464.1 618.068C1464.78 617.692 1465.54 617.504 1466.39 617.504C1467.23 617.504 1467.99 617.692 1468.67 618.068C1469.35 618.436 1469.88 618.948 1470.27 619.604C1470.65 620.252 1470.84 620.984 1470.84 621.8C1470.84 622.616 1470.65 623.352 1470.27 624.008C1469.88 624.656 1469.35 625.168 1468.67 625.544C1467.99 625.912 1467.23 626.096 1466.39 626.096ZM1466.39 625.028C1467.01 625.028 1467.56 624.888 1468.05 624.608C1468.54 624.328 1468.93 623.944 1469.21 623.456C1469.5 622.96 1469.64 622.408 1469.64 621.8C1469.64 621.192 1469.5 620.644 1469.21 620.156C1468.93 619.66 1468.54 619.272 1468.05 618.992C1467.56 618.712 1467.01 618.572 1466.39 618.572C1465.77 618.572 1465.21 618.712 1464.71 618.992C1464.21 619.272 1463.82 619.66 1463.53 620.156C1463.25 620.644 1463.11 621.192 1463.11 621.8C1463.11 622.408 1463.25 622.96 1463.53 623.456C1463.82 623.944 1464.21 624.328 1464.71 624.608C1465.21 624.888 1465.77 625.028 1466.39 625.028ZM1478.92 618.644H1476.04V626H1474.86V618.644H1471.99V617.6H1478.92V618.644ZM1484.52 626.096C1483.67 626.096 1482.91 625.912 1482.23 625.544C1481.55 625.168 1481.01 624.652 1480.62 623.996C1480.23 623.34 1480.04 622.608 1480.04 621.8C1480.04 620.992 1480.23 620.26 1480.62 619.604C1481.01 618.948 1481.55 618.436 1482.23 618.068C1482.91 617.692 1483.67 617.504 1484.52 617.504C1485.36 617.504 1486.12 617.692 1486.8 618.068C1487.48 618.436 1488.01 618.948 1488.39 619.604C1488.78 620.252 1488.97 620.984 1488.97 621.8C1488.97 622.616 1488.78 623.352 1488.39 624.008C1488.01 624.656 1487.48 625.168 1486.8 625.544C1486.12 625.912 1485.36 626.096 1484.52 626.096ZM1484.52 625.028C1485.13 625.028 1485.69 624.888 1486.17 624.608C1486.67 624.328 1487.06 623.944 1487.34 623.456C1487.63 622.96 1487.77 622.408 1487.77 621.8C1487.77 621.192 1487.63 620.644 1487.34 620.156C1487.06 619.66 1486.67 619.272 1486.17 618.992C1485.69 618.712 1485.13 618.572 1484.52 618.572C1483.9 618.572 1483.34 618.712 1482.84 618.992C1482.34 619.272 1481.95 619.66 1481.66 620.156C1481.38 620.644 1481.24 621.192 1481.24 621.8C1481.24 622.408 1481.38 622.96 1481.66 623.456C1481.95 623.944 1482.34 624.328 1482.84 624.608C1483.34 624.888 1483.9 625.028 1484.52 625.028ZM1491.39 617.6H1492.58V624.08L1497.55 617.6H1498.65V626H1497.47V619.532L1492.49 626H1491.39V617.6ZM1495 617.012C1494.35 617.012 1493.84 616.872 1493.48 616.592C1493.13 616.304 1492.95 615.896 1492.94 615.368H1493.79C1493.8 615.68 1493.91 615.924 1494.11 616.1C1494.33 616.268 1494.63 616.352 1495 616.352C1495.36 616.352 1495.65 616.268 1495.87 616.1C1496.09 615.924 1496.21 615.68 1496.21 615.368H1497.05C1497.05 615.888 1496.86 616.292 1496.5 616.58C1496.15 616.868 1495.65 617.012 1495 617.012ZM1510.68 621.644C1511.25 621.78 1511.68 622.024 1511.97 622.376C1512.26 622.72 1512.41 623.164 1512.41 623.708C1512.41 624.436 1512.14 625 1511.61 625.4C1511.08 625.8 1510.31 626 1509.29 626H1505.45V617.6H1509.06C1509.98 617.6 1510.7 617.788 1511.21 618.164C1511.73 618.532 1511.99 619.064 1511.99 619.76C1511.99 620.216 1511.88 620.604 1511.64 620.924C1511.42 621.244 1511.1 621.484 1510.68 621.644ZM1506.64 621.296H1508.98C1509.56 621.296 1510.01 621.18 1510.31 620.948C1510.62 620.716 1510.78 620.376 1510.78 619.928C1510.78 619.48 1510.62 619.14 1510.31 618.908C1510 618.668 1509.56 618.548 1508.98 618.548H1506.64V621.296ZM1509.27 625.052C1510.56 625.052 1511.2 624.572 1511.2 623.612C1511.2 623.132 1511.04 622.78 1510.71 622.556C1510.39 622.324 1509.91 622.208 1509.27 622.208H1506.64V625.052H1509.27ZM1518.68 626.096C1517.83 626.096 1517.07 625.912 1516.39 625.544C1515.71 625.168 1515.17 624.652 1514.78 623.996C1514.39 623.34 1514.2 622.608 1514.2 621.8C1514.2 620.992 1514.39 620.26 1514.78 619.604C1515.17 618.948 1515.71 618.436 1516.39 618.068C1517.07 617.692 1517.83 617.504 1518.68 617.504C1519.52 617.504 1520.28 617.692 1520.96 618.068C1521.64 618.436 1522.17 618.948 1522.55 619.604C1522.94 620.252 1523.13 620.984 1523.13 621.8C1523.13 622.616 1522.94 623.352 1522.55 624.008C1522.17 624.656 1521.64 625.168 1520.96 625.544C1520.28 625.912 1519.52 626.096 1518.68 626.096ZM1518.68 625.028C1519.29 625.028 1519.85 624.888 1520.33 624.608C1520.83 624.328 1521.22 623.944 1521.5 623.456C1521.79 622.96 1521.93 622.408 1521.93 621.8C1521.93 621.192 1521.79 620.644 1521.5 620.156C1521.22 619.66 1520.83 619.272 1520.33 618.992C1519.85 618.712 1519.29 618.572 1518.68 618.572C1518.06 618.572 1517.5 618.712 1517 618.992C1516.5 619.272 1516.11 619.66 1515.82 620.156C1515.54 620.644 1515.4 621.192 1515.4 621.8C1515.4 622.408 1515.54 622.96 1515.82 623.456C1516.11 623.944 1516.5 624.328 1517 624.608C1517.5 624.888 1518.06 625.028 1518.68 625.028ZM1528.83 617.6C1529.91 617.6 1530.77 617.86 1531.39 618.38C1532.02 618.9 1532.33 619.616 1532.33 620.528C1532.33 621.44 1532.02 622.156 1531.39 622.676C1530.77 623.196 1529.91 623.456 1528.83 623.456H1526.75V626H1525.55V617.6H1528.83ZM1528.79 622.412C1529.55 622.412 1530.13 622.252 1530.53 621.932C1530.93 621.604 1531.13 621.136 1531.13 620.528C1531.13 619.92 1530.93 619.456 1530.53 619.136C1530.13 618.808 1529.55 618.644 1528.79 618.644H1526.75V622.412H1528.79ZM1538.35 626.096C1537.51 626.096 1536.75 625.912 1536.07 625.544C1535.4 625.168 1534.87 624.656 1534.49 624.008C1534.1 623.352 1533.91 622.616 1533.91 621.8C1533.91 620.984 1534.1 620.252 1534.49 619.604C1534.87 618.948 1535.4 618.436 1536.08 618.068C1536.76 617.692 1537.52 617.504 1538.36 617.504C1539.02 617.504 1539.62 617.616 1540.16 617.84C1540.71 618.056 1541.17 618.38 1541.56 618.812L1540.78 619.568C1540.14 618.904 1539.36 618.572 1538.41 618.572C1537.79 618.572 1537.22 618.712 1536.72 618.992C1536.22 619.272 1535.82 619.66 1535.53 620.156C1535.25 620.644 1535.11 621.192 1535.11 621.8C1535.11 622.408 1535.25 622.96 1535.53 623.456C1535.82 623.944 1536.22 624.328 1536.72 624.608C1537.22 624.888 1537.79 625.028 1538.41 625.028C1539.35 625.028 1540.14 624.692 1540.78 624.02L1541.56 624.776C1541.17 625.208 1540.7 625.536 1540.15 625.76C1539.61 625.984 1539.01 626.096 1538.35 626.096ZM1548.95 623.9H1544.49L1543.56 626H1542.33L1546.13 617.6H1547.32L1551.13 626H1549.87L1548.95 623.9ZM1548.53 622.94L1546.72 618.824L1544.91 622.94H1548.53ZM1563.34 623.936H1561.75V626H1560.58V623.936H1555.91V623.096L1560.21 617.6H1561.51L1557.39 622.904H1560.62V621.08H1561.75V622.904H1563.34V623.936ZM1567.97 626.096C1567.31 626.096 1566.72 625.928 1566.2 625.592C1565.69 625.248 1565.28 624.752 1564.99 624.104C1564.69 623.456 1564.54 622.688 1564.54 621.8C1564.54 620.912 1564.69 620.144 1564.99 619.496C1565.28 618.848 1565.69 618.356 1566.2 618.02C1566.72 617.676 1567.31 617.504 1567.97 617.504C1568.63 617.504 1569.21 617.676 1569.73 618.02C1570.25 618.356 1570.65 618.848 1570.95 619.496C1571.25 620.144 1571.39 620.912 1571.39 621.8C1571.39 622.688 1571.25 623.456 1570.95 624.104C1570.65 624.752 1570.25 625.248 1569.73 625.592C1569.21 625.928 1568.63 626.096 1567.97 626.096ZM1567.97 625.028C1568.65 625.028 1569.18 624.752 1569.58 624.2C1569.99 623.648 1570.19 622.848 1570.19 621.8C1570.19 620.752 1569.99 619.952 1569.58 619.4C1569.18 618.848 1568.65 618.572 1567.97 618.572C1567.29 618.572 1566.75 618.848 1566.34 619.4C1565.94 619.952 1565.74 620.752 1565.74 621.8C1565.74 622.848 1565.94 623.648 1566.34 624.2C1566.75 624.752 1567.29 625.028 1567.97 625.028ZM1372.1 650L1372.08 643.88L1369.05 648.98H1368.5L1365.46 643.916V650H1364.31V641.6H1365.29L1368.8 647.504L1372.25 641.6H1373.24L1373.25 650H1372.1ZM1384.13 650L1384.12 643.88L1381.08 648.98H1380.53L1377.49 643.916V650H1376.34V641.6H1377.33L1380.83 647.504L1384.29 641.6H1385.27L1385.28 650H1384.13ZM1392.08 641.6H1393.27V648.08L1398.24 641.6H1399.34V650H1398.16V643.532L1393.18 650H1392.08V641.6ZM1409.42 641.6C1410.51 641.6 1411.36 641.86 1411.99 642.38C1412.61 642.9 1412.92 643.616 1412.92 644.528C1412.92 645.44 1412.61 646.156 1411.99 646.676C1411.36 647.196 1410.51 647.456 1409.42 647.456H1407.34V650H1406.14V641.6H1409.42ZM1409.38 646.412C1410.14 646.412 1410.72 646.252 1411.12 645.932C1411.52 645.604 1411.72 645.136 1411.72 644.528C1411.72 643.92 1411.52 643.456 1411.12 643.136C1410.72 642.808 1410.14 642.644 1409.38 642.644H1407.34V646.412H1409.38ZM1421.17 648.956V650H1415.07V641.6H1421V642.644H1416.27V645.224H1420.48V646.244H1416.27V648.956H1421.17ZM1427.55 645.62C1428.08 645.764 1428.49 646.016 1428.79 646.376C1429.08 646.728 1429.23 647.152 1429.23 647.648C1429.23 648.144 1429.07 648.58 1428.75 648.956C1428.44 649.324 1428.02 649.608 1427.49 649.808C1426.97 650 1426.4 650.096 1425.79 650.096C1425.23 650.096 1424.67 650.012 1424.12 649.844C1423.57 649.676 1423.06 649.424 1422.61 649.088L1423.03 648.2C1423.4 648.488 1423.81 648.704 1424.26 648.848C1424.72 648.992 1425.18 649.064 1425.64 649.064C1426.32 649.064 1426.88 648.924 1427.34 648.644C1427.79 648.356 1428.02 647.964 1428.02 647.468C1428.02 647.044 1427.85 646.72 1427.5 646.496C1427.16 646.264 1426.68 646.148 1426.05 646.148H1424.18V645.176H1425.97C1426.5 645.176 1426.92 645.068 1427.22 644.852C1427.52 644.628 1427.67 644.32 1427.67 643.928C1427.67 643.488 1427.48 643.14 1427.08 642.884C1426.69 642.628 1426.2 642.5 1425.6 642.5C1425.2 642.5 1424.8 642.556 1424.4 642.668C1424 642.78 1423.62 642.948 1423.26 643.172L1422.87 642.188C1423.3 641.948 1423.74 641.768 1424.22 641.648C1424.69 641.528 1425.16 641.468 1425.63 641.468C1426.22 641.468 1426.77 641.56 1427.26 641.744C1427.76 641.928 1428.15 642.196 1428.44 642.548C1428.74 642.9 1428.88 643.312 1428.88 643.784C1428.88 644.208 1428.76 644.58 1428.52 644.9C1428.29 645.22 1427.97 645.46 1427.55 645.62ZM1431.71 641.6H1432.9V648.08L1437.87 641.6H1438.97V650H1437.79V643.532L1432.81 650H1431.71V641.6ZM1449.29 641.6V650H1448.09V646.256H1443.27V650H1442.07V641.6H1443.27V645.212H1448.09V641.6H1449.29ZM1456.17 650.096C1455.33 650.096 1454.56 649.912 1453.88 649.544C1453.2 649.168 1452.67 648.652 1452.27 647.996C1451.89 647.34 1451.7 646.608 1451.7 645.8C1451.7 644.992 1451.89 644.26 1452.27 643.604C1452.67 642.948 1453.2 642.436 1453.88 642.068C1454.56 641.692 1455.33 641.504 1456.17 641.504C1457.01 641.504 1457.77 641.692 1458.45 642.068C1459.13 642.436 1459.67 642.948 1460.05 643.604C1460.43 644.252 1460.63 644.984 1460.63 645.8C1460.63 646.616 1460.43 647.352 1460.05 648.008C1459.67 648.656 1459.13 649.168 1458.45 649.544C1457.77 649.912 1457.01 650.096 1456.17 650.096ZM1456.17 649.028C1456.79 649.028 1457.34 648.888 1457.83 648.608C1458.33 648.328 1458.71 647.944 1458.99 647.456C1459.28 646.96 1459.43 646.408 1459.43 645.8C1459.43 645.192 1459.28 644.644 1458.99 644.156C1458.71 643.66 1458.33 643.272 1457.83 642.992C1457.34 642.712 1456.79 642.572 1456.17 642.572C1455.56 642.572 1455 642.712 1454.49 642.992C1454 643.272 1453.61 643.66 1453.32 644.156C1453.04 644.644 1452.9 645.192 1452.9 645.8C1452.9 646.408 1453.04 646.96 1453.32 647.456C1453.61 647.944 1454 648.328 1454.49 648.608C1455 648.888 1455.56 649.028 1456.17 649.028ZM1468.28 645.644C1468.85 645.78 1469.27 646.024 1469.56 646.376C1469.86 646.72 1470.01 647.164 1470.01 647.708C1470.01 648.436 1469.74 649 1469.2 649.4C1468.67 649.8 1467.9 650 1466.89 650H1463.05V641.6H1466.66C1467.58 641.6 1468.29 641.788 1468.81 642.164C1469.33 642.532 1469.59 643.064 1469.59 643.76C1469.59 644.216 1469.47 644.604 1469.24 644.924C1469.01 645.244 1468.69 645.484 1468.28 645.644ZM1464.23 645.296H1466.57C1467.16 645.296 1467.6 645.18 1467.91 644.948C1468.22 644.716 1468.37 644.376 1468.37 643.928C1468.37 643.48 1468.22 643.14 1467.91 642.908C1467.59 642.668 1467.15 642.548 1466.57 642.548H1464.23V645.296ZM1466.86 649.052C1468.15 649.052 1468.79 648.572 1468.79 647.612C1468.79 647.132 1468.63 646.78 1468.3 646.556C1467.98 646.324 1467.5 646.208 1466.86 646.208H1464.23V649.052H1466.86ZM1476.27 650.096C1475.42 650.096 1474.66 649.912 1473.98 649.544C1473.3 649.168 1472.76 648.652 1472.37 647.996C1471.99 647.34 1471.79 646.608 1471.79 645.8C1471.79 644.992 1471.99 644.26 1472.37 643.604C1472.76 642.948 1473.3 642.436 1473.98 642.068C1474.66 641.692 1475.42 641.504 1476.27 641.504C1477.11 641.504 1477.87 641.692 1478.55 642.068C1479.23 642.436 1479.76 642.948 1480.15 643.604C1480.53 644.252 1480.72 644.984 1480.72 645.8C1480.72 646.616 1480.53 647.352 1480.15 648.008C1479.76 648.656 1479.23 649.168 1478.55 649.544C1477.87 649.912 1477.11 650.096 1476.27 650.096ZM1476.27 649.028C1476.89 649.028 1477.44 648.888 1477.93 648.608C1478.42 648.328 1478.81 647.944 1479.09 647.456C1479.38 646.96 1479.52 646.408 1479.52 645.8C1479.52 645.192 1479.38 644.644 1479.09 644.156C1478.81 643.66 1478.42 643.272 1477.93 642.992C1477.44 642.712 1476.89 642.572 1476.27 642.572C1475.65 642.572 1475.09 642.712 1474.59 642.992C1474.09 643.272 1473.7 643.66 1473.41 644.156C1473.13 644.644 1472.99 645.192 1472.99 645.8C1472.99 646.408 1473.13 646.96 1473.41 647.456C1473.7 647.944 1474.09 648.328 1474.59 648.608C1475.09 648.888 1475.65 649.028 1476.27 649.028ZM1483.14 641.6H1484.33V648.08L1489.3 641.6H1490.4V650H1489.23V643.532L1484.25 650H1483.14V641.6ZM1486.75 641.012C1486.1 641.012 1485.59 640.872 1485.23 640.592C1484.88 640.304 1484.7 639.896 1484.69 639.368H1485.54C1485.55 639.68 1485.66 639.924 1485.87 640.1C1486.08 640.268 1486.38 640.352 1486.75 640.352C1487.11 640.352 1487.4 640.268 1487.62 640.1C1487.84 639.924 1487.96 639.68 1487.97 639.368H1488.81C1488.8 639.888 1488.61 640.292 1488.25 640.58C1487.9 640.868 1487.4 641.012 1486.75 641.012ZM1500.13 646.304H1498.38V650H1497.2V641.6H1498.38V645.248H1500.16L1502.8 641.6H1504.08L1501.08 645.668L1504.22 650H1502.86L1500.13 646.304ZM1509.21 641.6C1510.3 641.6 1511.15 641.86 1511.78 642.38C1512.4 642.9 1512.71 643.616 1512.71 644.528C1512.71 645.44 1512.4 646.156 1511.78 646.676C1511.15 647.196 1510.3 647.456 1509.21 647.456H1507.13V650H1505.93V641.6H1509.21ZM1509.17 646.412C1509.93 646.412 1510.51 646.252 1510.91 645.932C1511.31 645.604 1511.51 645.136 1511.51 644.528C1511.51 643.92 1511.31 643.456 1510.91 643.136C1510.51 642.808 1509.93 642.644 1509.17 642.644H1507.13V646.412H1509.17ZM1518.76 650.096C1517.91 650.096 1517.15 649.912 1516.47 649.544C1515.79 649.168 1515.25 648.652 1514.86 647.996C1514.48 647.34 1514.28 646.608 1514.28 645.8C1514.28 644.992 1514.48 644.26 1514.86 643.604C1515.25 642.948 1515.79 642.436 1516.47 642.068C1517.15 641.692 1517.91 641.504 1518.76 641.504C1519.6 641.504 1520.36 641.692 1521.04 642.068C1521.72 642.436 1522.25 642.948 1522.64 643.604C1523.02 644.252 1523.21 644.984 1523.21 645.8C1523.21 646.616 1523.02 647.352 1522.64 648.008C1522.25 648.656 1521.72 649.168 1521.04 649.544C1520.36 649.912 1519.6 650.096 1518.76 650.096ZM1518.76 649.028C1519.38 649.028 1519.93 648.888 1520.42 648.608C1520.91 648.328 1521.3 647.944 1521.58 647.456C1521.87 646.96 1522.01 646.408 1522.01 645.8C1522.01 645.192 1521.87 644.644 1521.58 644.156C1521.3 643.66 1520.91 643.272 1520.42 642.992C1519.93 642.712 1519.38 642.572 1518.76 642.572C1518.14 642.572 1517.58 642.712 1517.08 642.992C1516.58 643.272 1516.19 643.66 1515.9 644.156C1515.62 644.644 1515.48 645.192 1515.48 645.8C1515.48 646.408 1515.62 646.96 1515.9 647.456C1516.19 647.944 1516.58 648.328 1517.08 648.608C1517.58 648.888 1518.14 649.028 1518.76 649.028ZM1536.16 641.6V650H1525.63V641.6H1526.82V648.956H1530.31V641.6H1531.49V648.956H1534.98V641.6H1536.16ZM1542.18 646.304H1540.42V650H1539.25V641.6H1540.42V645.248H1542.2L1544.84 641.6H1546.12L1543.12 645.668L1546.27 650H1544.9L1542.18 646.304ZM1551.73 650.096C1550.89 650.096 1550.12 649.912 1549.44 649.544C1548.76 649.168 1548.23 648.652 1547.83 647.996C1547.45 647.34 1547.26 646.608 1547.26 645.8C1547.26 644.992 1547.45 644.26 1547.83 643.604C1548.23 642.948 1548.76 642.436 1549.44 642.068C1550.12 641.692 1550.89 641.504 1551.73 641.504C1552.57 641.504 1553.33 641.692 1554.01 642.068C1554.69 642.436 1555.23 642.948 1555.61 643.604C1555.99 644.252 1556.19 644.984 1556.19 645.8C1556.19 646.616 1555.99 647.352 1555.61 648.008C1555.23 648.656 1554.69 649.168 1554.01 649.544C1553.33 649.912 1552.57 650.096 1551.73 650.096ZM1551.73 649.028C1552.35 649.028 1552.9 648.888 1553.39 648.608C1553.89 648.328 1554.27 647.944 1554.55 647.456C1554.84 646.96 1554.99 646.408 1554.99 645.8C1554.99 645.192 1554.84 644.644 1554.55 644.156C1554.27 643.66 1553.89 643.272 1553.39 642.992C1552.9 642.712 1552.35 642.572 1551.73 642.572C1551.12 642.572 1550.56 642.712 1550.05 642.992C1549.56 643.272 1549.17 643.66 1548.88 644.156C1548.6 644.644 1548.46 645.192 1548.46 645.8C1548.46 646.408 1548.6 646.96 1548.88 647.456C1549.17 647.944 1549.56 648.328 1550.05 648.608C1550.56 648.888 1551.12 649.028 1551.73 649.028ZM1558.61 641.6H1559.79V648.08L1564.76 641.6H1565.87V650H1564.69V643.532L1559.71 650H1558.61V641.6ZM1562.22 641.012C1561.56 641.012 1561.05 640.872 1560.69 640.592C1560.34 640.304 1560.16 639.896 1560.15 639.368H1561.01C1561.01 639.68 1561.12 639.924 1561.33 640.1C1561.55 640.268 1561.84 640.352 1562.22 640.352C1562.58 640.352 1562.87 640.268 1563.08 640.1C1563.31 639.924 1563.42 639.68 1563.43 639.368H1564.27C1564.26 639.888 1564.08 640.292 1563.72 640.58C1563.37 640.868 1562.87 641.012 1562.22 641.012Z" fill="white"/>
<path id="Vector" d="M272.499 520.578L290.5 531.039L290.5 551.963L272.499 562.422L254.5 551.963L254.5 531.039L272.499 520.578Z" stroke="#BEFF33"/>
<path id="Vector_2" d="M547.499 799.578L565.5 810.039L565.5 830.963L547.499 841.422L529.5 830.963L529.5 810.039L547.499 799.578Z" stroke="#BEFF33"/>
<path id="Vector_3" d="M1314.5 611.578L1332.5 622.039L1332.5 642.963L1314.5 653.422L1296.5 642.963L1296.5 622.039L1314.5 611.578Z" stroke="#BEFF33"/>
<path id="Vector_4" d="M1107.5 220.578L1125.5 231.039L1125.5 251.963L1107.5 262.422L1089.5 251.963L1089.5 231.039L1107.5 220.578Z" stroke="#BEFF33"/>
<path id="Vector_5" d="M275 543.5L275 540.5L272.5 539L270 540.5L270 543.5L272.5 545L275 543.5Z" fill="#BEFF33"/>
<path id="Vector_6" d="M550 822.5L550 819.5L547.5 818L545 819.5L545 822.5L547.5 824L550 822.5Z" fill="#BEFF33"/>
<path id="Vector_7" d="M1317 634.5L1317 631.5L1314.5 630L1312 631.5L1312 634.5L1314.5 636L1317 634.5Z" fill="#BEFF33"/>
<path id="Vector_8" d="M1110 243.5L1110 240.5L1107.5 239L1105 240.5L1105 243.5L1107.5 245L1110 243.5Z" fill="#BEFF33"/>
<path id="1 &#208;&#191;&#208;&#190;&#208;&#187;&#208;&#181; &#209;&#129; &#208;&#178;&#209;&#139;&#209;&#129;&#208;&#190;&#209;&#130;&#208;&#190;&#208;&#185; &#208;&#178;&#208;&#190;&#209;&#128;&#209;&#129;&#208;&#176; 24 &#208;&#188;&#208;&#188;" d="M1159.18 227.6V236H1157.99V228.644H1156.1V227.6H1159.18ZM1173.17 227.6V236H1171.99V228.644H1167.12V236H1165.93V227.6H1173.17ZM1180.05 236.096C1179.2 236.096 1178.44 235.912 1177.76 235.544C1177.08 235.168 1176.54 234.652 1176.15 233.996C1175.76 233.34 1175.57 232.608 1175.57 231.8C1175.57 230.992 1175.76 230.26 1176.15 229.604C1176.54 228.948 1177.08 228.436 1177.76 228.068C1178.44 227.692 1179.2 227.504 1180.05 227.504C1180.89 227.504 1181.65 227.692 1182.33 228.068C1183.01 228.436 1183.54 228.948 1183.92 229.604C1184.31 230.252 1184.5 230.984 1184.5 231.8C1184.5 232.616 1184.31 233.352 1183.92 234.008C1183.54 234.656 1183.01 235.168 1182.33 235.544C1181.65 235.912 1180.89 236.096 1180.05 236.096ZM1180.05 235.028C1180.66 235.028 1181.22 234.888 1181.7 234.608C1182.2 234.328 1182.59 233.944 1182.87 233.456C1183.16 232.96 1183.3 232.408 1183.3 231.8C1183.3 231.192 1183.16 230.644 1182.87 230.156C1182.59 229.66 1182.2 229.272 1181.7 228.992C1181.22 228.712 1180.66 228.572 1180.05 228.572C1179.43 228.572 1178.87 228.712 1178.37 228.992C1177.87 229.272 1177.48 229.66 1177.19 230.156C1176.91 230.644 1176.77 231.192 1176.77 231.8C1176.77 232.408 1176.91 232.96 1177.19 233.456C1177.48 233.944 1177.87 234.328 1178.37 234.608C1178.87 234.888 1179.43 235.028 1180.05 235.028ZM1193.55 227.6V236H1192.37V228.644H1188.65L1188.57 231.104C1188.53 232.264 1188.43 233.204 1188.28 233.924C1188.14 234.644 1187.91 235.188 1187.59 235.556C1187.27 235.916 1186.83 236.096 1186.29 236.096C1186.04 236.096 1185.79 236.064 1185.53 236L1185.62 234.932C1185.75 234.964 1185.87 234.98 1186 234.98C1186.35 234.98 1186.62 234.844 1186.83 234.572C1187.04 234.292 1187.19 233.876 1187.3 233.324C1187.4 232.772 1187.47 232.044 1187.5 231.14L1187.63 227.6H1193.55ZM1202.74 234.956V236H1196.65V227.6H1202.57V228.644H1197.85V231.224H1202.06V232.244H1197.85V234.956H1202.74ZM1212.56 236.096C1211.72 236.096 1210.96 235.912 1210.28 235.544C1209.61 235.168 1209.08 234.656 1208.7 234.008C1208.32 233.352 1208.12 232.616 1208.12 231.8C1208.12 230.984 1208.32 230.252 1208.7 229.604C1209.08 228.948 1209.62 228.436 1210.3 228.068C1210.98 227.692 1211.74 227.504 1212.58 227.504C1213.23 227.504 1213.83 227.616 1214.38 227.84C1214.92 228.056 1215.38 228.38 1215.77 228.812L1214.99 229.568C1214.36 228.904 1213.57 228.572 1212.62 228.572C1212 228.572 1211.44 228.712 1210.93 228.992C1210.43 229.272 1210.03 229.66 1209.74 230.156C1209.46 230.644 1209.32 231.192 1209.32 231.8C1209.32 232.408 1209.46 232.96 1209.74 233.456C1210.03 233.944 1210.43 234.328 1210.93 234.608C1211.44 234.888 1212 235.028 1212.62 235.028C1213.56 235.028 1214.35 234.692 1214.99 234.02L1215.77 234.776C1215.38 235.208 1214.92 235.536 1214.36 235.76C1213.82 235.984 1213.22 236.096 1212.56 236.096ZM1226.84 231.644C1227.4 231.78 1227.83 232.024 1228.12 232.376C1228.42 232.72 1228.56 233.164 1228.56 233.708C1228.56 234.436 1228.3 235 1227.76 235.4C1227.23 235.8 1226.46 236 1225.44 236H1221.6V227.6H1225.22C1226.14 227.6 1226.85 227.788 1227.36 228.164C1227.88 228.532 1228.14 229.064 1228.14 229.76C1228.14 230.216 1228.03 230.604 1227.8 230.924C1227.57 231.244 1227.25 231.484 1226.84 231.644ZM1222.79 231.296H1225.13C1225.72 231.296 1226.16 231.18 1226.46 230.948C1226.78 230.716 1226.93 230.376 1226.93 229.928C1226.93 229.48 1226.78 229.14 1226.46 228.908C1226.15 228.668 1225.71 228.548 1225.13 228.548H1222.79V231.296ZM1225.42 235.052C1226.71 235.052 1227.35 234.572 1227.35 233.612C1227.35 233.132 1227.19 232.78 1226.86 232.556C1226.54 232.324 1226.06 232.208 1225.42 232.208H1222.79V235.052H1225.42ZM1234.73 230.528C1235.73 230.528 1236.5 230.752 1237.03 231.2C1237.56 231.648 1237.83 232.308 1237.83 233.18C1237.83 234.1 1237.54 234.8 1236.97 235.28C1236.4 235.76 1235.58 236 1234.52 236H1231.05V227.6H1232.24V230.528H1234.73ZM1234.47 235.052C1235.17 235.052 1235.7 234.896 1236.07 234.584C1236.44 234.264 1236.63 233.804 1236.63 233.204C1236.63 232.052 1235.91 231.476 1234.47 231.476H1232.24V235.052H1234.47ZM1239.16 227.6H1240.35V236H1239.16V227.6ZM1247.2 236.096C1246.36 236.096 1245.6 235.912 1244.92 235.544C1244.25 235.168 1243.72 234.656 1243.34 234.008C1242.96 233.352 1242.76 232.616 1242.76 231.8C1242.76 230.984 1242.96 230.252 1243.34 229.604C1243.72 228.948 1244.26 228.436 1244.94 228.068C1245.62 227.692 1246.38 227.504 1247.22 227.504C1247.87 227.504 1248.47 227.616 1249.02 227.84C1249.56 228.056 1250.02 228.38 1250.41 228.812L1249.63 229.568C1249 228.904 1248.21 228.572 1247.26 228.572C1246.64 228.572 1246.08 228.712 1245.57 228.992C1245.07 229.272 1244.67 229.66 1244.38 230.156C1244.1 230.644 1243.96 231.192 1243.96 231.8C1243.96 232.408 1244.1 232.96 1244.38 233.456C1244.67 233.944 1245.07 234.328 1245.57 234.608C1246.08 234.888 1246.64 235.028 1247.26 235.028C1248.2 235.028 1248.99 234.692 1249.63 234.02L1250.41 234.776C1250.02 235.208 1249.56 235.536 1249 235.76C1248.46 235.984 1247.86 236.096 1247.2 236.096ZM1256.14 236.096C1255.3 236.096 1254.53 235.912 1253.85 235.544C1253.17 235.168 1252.64 234.652 1252.24 233.996C1251.86 233.34 1251.67 232.608 1251.67 231.8C1251.67 230.992 1251.86 230.26 1252.24 229.604C1252.64 228.948 1253.17 228.436 1253.85 228.068C1254.53 227.692 1255.3 227.504 1256.14 227.504C1256.98 227.504 1257.74 227.692 1258.42 228.068C1259.1 228.436 1259.64 228.948 1260.02 229.604C1260.4 230.252 1260.6 230.984 1260.6 231.8C1260.6 232.616 1260.4 233.352 1260.02 234.008C1259.64 234.656 1259.1 235.168 1258.42 235.544C1257.74 235.912 1256.98 236.096 1256.14 236.096ZM1256.14 235.028C1256.76 235.028 1257.31 234.888 1257.8 234.608C1258.3 234.328 1258.68 233.944 1258.96 233.456C1259.25 232.96 1259.4 232.408 1259.4 231.8C1259.4 231.192 1259.25 230.644 1258.96 230.156C1258.68 229.66 1258.3 229.272 1257.8 228.992C1257.31 228.712 1256.76 228.572 1256.14 228.572C1255.53 228.572 1254.97 228.712 1254.46 228.992C1253.97 229.272 1253.58 229.66 1253.29 230.156C1253.01 230.644 1252.87 231.192 1252.87 231.8C1252.87 232.408 1253.01 232.96 1253.29 233.456C1253.58 233.944 1253.97 234.328 1254.46 234.608C1254.97 234.888 1255.53 235.028 1256.14 235.028ZM1268.67 228.644H1265.79V236H1264.62V228.644H1261.75V227.6H1268.67V228.644ZM1274.27 236.096C1273.42 236.096 1272.66 235.912 1271.98 235.544C1271.3 235.168 1270.76 234.652 1270.37 233.996C1269.99 233.34 1269.8 232.608 1269.8 231.8C1269.8 230.992 1269.99 230.26 1270.37 229.604C1270.76 228.948 1271.3 228.436 1271.98 228.068C1272.66 227.692 1273.42 227.504 1274.27 227.504C1275.11 227.504 1275.87 227.692 1276.55 228.068C1277.23 228.436 1277.76 228.948 1278.15 229.604C1278.53 230.252 1278.72 230.984 1278.72 231.8C1278.72 232.616 1278.53 233.352 1278.15 234.008C1277.76 234.656 1277.23 235.168 1276.55 235.544C1275.87 235.912 1275.11 236.096 1274.27 236.096ZM1274.27 235.028C1274.89 235.028 1275.44 234.888 1275.93 234.608C1276.42 234.328 1276.81 233.944 1277.09 233.456C1277.38 232.96 1277.52 232.408 1277.52 231.8C1277.52 231.192 1277.38 230.644 1277.09 230.156C1276.81 229.66 1276.42 229.272 1275.93 228.992C1275.44 228.712 1274.89 228.572 1274.27 228.572C1273.66 228.572 1273.1 228.712 1272.59 228.992C1272.1 229.272 1271.7 229.66 1271.42 230.156C1271.14 230.644 1271 231.192 1271 231.8C1271 232.408 1271.14 232.96 1271.42 233.456C1271.7 233.944 1272.1 234.328 1272.59 234.608C1273.1 234.888 1273.66 235.028 1274.27 235.028ZM1281.14 227.6H1282.33V234.08L1287.3 227.6H1288.4V236H1287.23V229.532L1282.25 236H1281.14V227.6ZM1284.76 227.012C1284.1 227.012 1283.59 226.872 1283.23 226.592C1282.88 226.304 1282.7 225.896 1282.69 225.368H1283.54C1283.55 225.68 1283.66 225.924 1283.87 226.1C1284.08 226.268 1284.38 226.352 1284.76 226.352C1285.12 226.352 1285.4 226.268 1285.62 226.1C1285.84 225.924 1285.96 225.68 1285.97 225.368H1286.81C1286.8 225.888 1286.62 226.292 1286.26 226.58C1285.9 226.868 1285.4 227.012 1284.76 227.012ZM1162.54 255.644C1163.11 255.78 1163.54 256.024 1163.82 256.376C1164.12 256.72 1164.27 257.164 1164.27 257.708C1164.27 258.436 1164 259 1163.46 259.4C1162.94 259.8 1162.16 260 1161.15 260H1157.31V251.6H1160.92C1161.84 251.6 1162.56 251.788 1163.07 252.164C1163.59 252.532 1163.85 253.064 1163.85 253.76C1163.85 254.216 1163.73 254.604 1163.5 254.924C1163.28 255.244 1162.96 255.484 1162.54 255.644ZM1158.5 255.296H1160.84C1161.42 255.296 1161.86 255.18 1162.17 254.948C1162.48 254.716 1162.64 254.376 1162.64 253.928C1162.64 253.48 1162.48 253.14 1162.17 252.908C1161.86 252.668 1161.41 252.548 1160.84 252.548H1158.5V255.296ZM1161.12 259.052C1162.41 259.052 1163.06 258.572 1163.06 257.612C1163.06 257.132 1162.89 256.78 1162.56 256.556C1162.24 256.324 1161.76 256.208 1161.12 256.208H1158.5V259.052H1161.12ZM1170.53 260.096C1169.68 260.096 1168.92 259.912 1168.24 259.544C1167.56 259.168 1167.02 258.652 1166.63 257.996C1166.25 257.34 1166.06 256.608 1166.06 255.8C1166.06 254.992 1166.25 254.26 1166.63 253.604C1167.02 252.948 1167.56 252.436 1168.24 252.068C1168.92 251.692 1169.68 251.504 1170.53 251.504C1171.37 251.504 1172.13 251.692 1172.81 252.068C1173.49 252.436 1174.02 252.948 1174.41 253.604C1174.79 254.252 1174.98 254.984 1174.98 255.8C1174.98 256.616 1174.79 257.352 1174.41 258.008C1174.02 258.656 1173.49 259.168 1172.81 259.544C1172.13 259.912 1171.37 260.096 1170.53 260.096ZM1170.53 259.028C1171.15 259.028 1171.7 258.888 1172.19 258.608C1172.68 258.328 1173.07 257.944 1173.35 257.456C1173.64 256.96 1173.78 256.408 1173.78 255.8C1173.78 255.192 1173.64 254.644 1173.35 254.156C1173.07 253.66 1172.68 253.272 1172.19 252.992C1171.7 252.712 1171.15 252.572 1170.53 252.572C1169.92 252.572 1169.36 252.712 1168.85 252.992C1168.36 253.272 1167.96 253.66 1167.68 254.156C1167.4 254.644 1167.26 255.192 1167.26 255.8C1167.26 256.408 1167.4 256.96 1167.68 257.456C1167.96 257.944 1168.36 258.328 1168.85 258.608C1169.36 258.888 1169.92 259.028 1170.53 259.028ZM1180.68 251.6C1181.77 251.6 1182.62 251.86 1183.25 252.38C1183.87 252.9 1184.18 253.616 1184.18 254.528C1184.18 255.44 1183.87 256.156 1183.25 256.676C1182.62 257.196 1181.77 257.456 1180.68 257.456H1178.6V260H1177.4V251.6H1180.68ZM1180.64 256.412C1181.4 256.412 1181.98 256.252 1182.38 255.932C1182.78 255.604 1182.98 255.136 1182.98 254.528C1182.98 253.92 1182.78 253.456 1182.38 253.136C1181.98 252.808 1181.4 252.644 1180.64 252.644H1178.6V256.412H1180.64ZM1190.21 260.096C1189.37 260.096 1188.61 259.912 1187.93 259.544C1187.26 259.168 1186.73 258.656 1186.34 258.008C1185.96 257.352 1185.77 256.616 1185.77 255.8C1185.77 254.984 1185.96 254.252 1186.34 253.604C1186.73 252.948 1187.26 252.436 1187.94 252.068C1188.62 251.692 1189.38 251.504 1190.22 251.504C1190.88 251.504 1191.48 251.616 1192.02 251.84C1192.56 252.056 1193.03 252.38 1193.41 252.812L1192.63 253.568C1192 252.904 1191.21 252.572 1190.27 252.572C1189.64 252.572 1189.08 252.712 1188.58 252.992C1188.07 253.272 1187.68 253.66 1187.39 254.156C1187.11 254.644 1186.97 255.192 1186.97 255.8C1186.97 256.408 1187.11 256.96 1187.39 257.456C1187.68 257.944 1188.07 258.328 1188.58 258.608C1189.08 258.888 1189.64 259.028 1190.27 259.028C1191.2 259.028 1191.99 258.692 1192.63 258.02L1193.41 258.776C1193.03 259.208 1192.56 259.536 1192.01 259.76C1191.46 259.984 1190.86 260.096 1190.21 260.096ZM1200.81 257.9H1196.34L1195.42 260H1194.18L1197.99 251.6H1199.17L1202.99 260H1201.73L1200.81 257.9ZM1200.39 256.94L1198.57 252.824L1196.76 256.94H1200.39ZM1213.79 258.956V260H1207.76V259.184L1211.18 255.884C1211.59 255.484 1211.87 255.14 1212.02 254.852C1212.16 254.556 1212.23 254.26 1212.23 253.964C1212.23 253.524 1212.08 253.184 1211.77 252.944C1211.46 252.696 1211.02 252.572 1210.45 252.572C1209.52 252.572 1208.8 252.876 1208.3 253.484L1207.48 252.776C1207.81 252.376 1208.24 252.064 1208.77 251.84C1209.3 251.616 1209.9 251.504 1210.55 251.504C1211.43 251.504 1212.13 251.716 1212.65 252.14C1213.17 252.556 1213.43 253.124 1213.43 253.844C1213.43 254.292 1213.34 254.716 1213.15 255.116C1212.95 255.516 1212.59 255.972 1212.05 256.484L1209.49 258.956H1213.79ZM1222.35 257.936H1220.75V260H1219.59V257.936H1214.92V257.096L1219.21 251.6H1220.51L1216.39 256.904H1219.62V255.08H1220.75V256.904H1222.35V257.936ZM1235.77 260L1235.76 253.88L1232.72 258.98H1232.17L1229.13 253.916V260H1227.98V251.6H1228.96L1232.47 257.504L1235.92 251.6H1236.91L1236.92 260H1235.77ZM1247.8 260L1247.79 253.88L1244.75 258.98H1244.2L1241.17 253.916V260H1240.01V251.6H1241L1244.5 257.504L1247.96 251.6H1248.94L1248.95 260H1247.8Z" fill="white"/>
<path id="3 &#209;&#129;&#208;&#190;&#208;&#178;&#209;&#128;&#208;&#181;&#208;&#188;&#208;&#181;&#208;&#189;&#208;&#189;&#209;&#139;&#209;&#133; &#209;&#132;&#209;&#131;&#209;&#130;&#208;&#177;&#208;&#190;&#208;&#187;&#209;&#140;&#208;&#189;&#209;&#139;&#209;&#133; &#208;&#191;&#208;&#190;&#208;&#187;&#209;&#143; &#209;&#129; &#208;&#184;&#209;&#129;&#208;&#186;&#209;&#131;&#209;&#129;&#209;&#129;&#209;&#130;&#208;&#178;&#208;&#181;&#208;&#189;&#208;&#189;&#208;&#190;&#208;&#185; &#209;&#130;&#209;&#128;&#208;&#176;&#208;&#178;&#208;&#190;&#208;&#185;" d="M326.792 527.128C327.616 527.208 328.244 527.464 328.676 527.896C329.108 528.32 329.324 528.864 329.324 529.528C329.324 530.008 329.204 530.444 328.964 530.836C328.724 531.22 328.364 531.528 327.884 531.76C327.412 531.984 326.832 532.096 326.144 532.096C325.544 532.096 324.968 532.008 324.416 531.832C323.864 531.648 323.412 531.396 323.06 531.076L323.612 530.128C323.9 530.4 324.268 530.62 324.716 530.788C325.164 530.948 325.64 531.028 326.144 531.028C326.768 531.028 327.252 530.896 327.596 530.632C327.948 530.368 328.124 530.004 328.124 529.54C328.124 529.076 327.952 528.716 327.608 528.46C327.264 528.204 326.744 528.076 326.048 528.076H325.376V527.236L327.488 524.644H323.444V523.6H328.988V524.416L326.792 527.128ZM339.114 532.096C338.274 532.096 337.514 531.912 336.834 531.544C336.162 531.168 335.634 530.656 335.25 530.008C334.866 529.352 334.674 528.616 334.674 527.8C334.674 526.984 334.866 526.252 335.25 525.604C335.634 524.948 336.166 524.436 336.846 524.068C337.526 523.692 338.286 523.504 339.126 523.504C339.782 523.504 340.382 523.616 340.926 523.84C341.47 524.056 341.934 524.38 342.318 524.812L341.538 525.568C340.906 524.904 340.118 524.572 339.174 524.572C338.55 524.572 337.986 524.712 337.482 524.992C336.978 525.272 336.582 525.66 336.294 526.156C336.014 526.644 335.874 527.192 335.874 527.8C335.874 528.408 336.014 528.96 336.294 529.456C336.582 529.944 336.978 530.328 337.482 530.608C337.986 530.888 338.55 531.028 339.174 531.028C340.11 531.028 340.898 530.692 341.538 530.02L342.318 530.776C341.934 531.208 341.466 531.536 340.914 531.76C340.37 531.984 339.77 532.096 339.114 532.096ZM348.055 532.096C347.207 532.096 346.443 531.912 345.763 531.544C345.083 531.168 344.547 530.652 344.155 529.996C343.771 529.34 343.579 528.608 343.579 527.8C343.579 526.992 343.771 526.26 344.155 525.604C344.547 524.948 345.083 524.436 345.763 524.068C346.443 523.692 347.207 523.504 348.055 523.504C348.895 523.504 349.655 523.692 350.335 524.068C351.015 524.436 351.547 524.948 351.931 525.604C352.315 526.252 352.507 526.984 352.507 527.8C352.507 528.616 352.315 529.352 351.931 530.008C351.547 530.656 351.015 531.168 350.335 531.544C349.655 531.912 348.895 532.096 348.055 532.096ZM348.055 531.028C348.671 531.028 349.223 530.888 349.711 530.608C350.207 530.328 350.595 529.944 350.875 529.456C351.163 528.96 351.307 528.408 351.307 527.8C351.307 527.192 351.163 526.644 350.875 526.156C350.595 525.66 350.207 525.272 349.711 524.992C349.223 524.712 348.671 524.572 348.055 524.572C347.439 524.572 346.879 524.712 346.375 524.992C345.879 525.272 345.487 525.66 345.199 526.156C344.919 526.644 344.779 527.192 344.779 527.8C344.779 528.408 344.919 528.96 345.199 529.456C345.487 529.944 345.879 530.328 346.375 530.608C346.879 530.888 347.439 531.028 348.055 531.028ZM360.159 527.644C360.727 527.78 361.155 528.024 361.443 528.376C361.739 528.72 361.887 529.164 361.887 529.708C361.887 530.436 361.619 531 361.083 531.4C360.555 531.8 359.783 532 358.767 532H354.927V523.6H358.539C359.459 523.6 360.175 523.788 360.687 524.164C361.207 524.532 361.467 525.064 361.467 525.76C361.467 526.216 361.351 526.604 361.119 526.924C360.895 527.244 360.575 527.484 360.159 527.644ZM356.115 527.296H358.455C359.039 527.296 359.483 527.18 359.787 526.948C360.099 526.716 360.255 526.376 360.255 525.928C360.255 525.48 360.099 525.14 359.787 524.908C359.475 524.668 359.031 524.548 358.455 524.548H356.115V527.296ZM358.743 531.052C360.031 531.052 360.675 530.572 360.675 529.612C360.675 529.132 360.511 528.78 360.183 528.556C359.863 528.324 359.383 528.208 358.743 528.208H356.115V531.052H358.743ZM367.648 523.6C368.736 523.6 369.592 523.86 370.216 524.38C370.84 524.9 371.152 525.616 371.152 526.528C371.152 527.44 370.84 528.156 370.216 528.676C369.592 529.196 368.736 529.456 367.648 529.456H365.572V532H364.372V523.6H367.648ZM367.612 528.412C368.372 528.412 368.952 528.252 369.352 527.932C369.752 527.604 369.952 527.136 369.952 526.528C369.952 525.92 369.752 525.456 369.352 525.136C368.952 524.808 368.372 524.644 367.612 524.644H365.572V528.412H367.612ZM379.397 530.956V532H373.301V523.6H379.229V524.644H374.501V527.224H378.713V528.244H374.501V530.956H379.397ZM389.55 532L389.538 525.88L386.502 530.98H385.95L382.914 525.916V532H381.762V523.6H382.746L386.25 529.504L389.706 523.6H390.69L390.702 532H389.55ZM399.892 530.956V532H393.796V523.6H399.724V524.644H394.996V527.224H399.208V528.244H394.996V530.956H399.892ZM409.481 523.6V532H408.281V528.256H403.457V532H402.257V523.6H403.457V527.212H408.281V523.6H409.481ZM419.805 523.6V532H418.605V528.256H413.781V532H412.581V523.6H413.781V527.212H418.605V523.6H419.805ZM426.588 526.528C427.588 526.528 428.352 526.752 428.88 527.2C429.416 527.648 429.684 528.308 429.684 529.18C429.684 530.1 429.396 530.8 428.82 531.28C428.252 531.76 427.436 532 426.372 532H422.904V523.6H424.092V526.528H426.588ZM426.324 531.052C427.02 531.052 427.552 530.896 427.92 530.584C428.296 530.264 428.484 529.804 428.484 529.204C428.484 528.052 427.764 527.476 426.324 527.476H424.092V531.052H426.324ZM431.016 523.6H432.204V532H431.016V523.6ZM435.782 523.6L437.978 526.672L440.174 523.6H441.578L438.734 527.632L441.806 532H440.39L437.978 528.652L435.578 532H434.198L437.258 527.68L434.402 523.6H435.782ZM456.765 527.788C456.765 528.9 456.377 529.772 455.601 530.404C454.825 531.036 453.729 531.376 452.313 531.424V532.312H451.197V531.424C449.781 531.368 448.681 531.024 447.897 530.392C447.121 529.76 446.733 528.892 446.733 527.788C446.733 526.676 447.121 525.804 447.897 525.172C448.681 524.54 449.781 524.196 451.197 524.14V523.288H452.313V524.14C453.721 524.196 454.813 524.544 455.589 525.184C456.373 525.816 456.765 526.684 456.765 527.788ZM452.313 530.488C453.385 530.424 454.201 530.164 454.761 529.708C455.329 529.244 455.613 528.6 455.613 527.776C455.613 526.968 455.325 526.336 454.749 525.88C454.181 525.416 453.369 525.152 452.313 525.088V530.488ZM447.897 527.788C447.897 528.604 448.181 529.244 448.749 529.708C449.325 530.164 450.141 530.424 451.197 530.488V525.088C450.125 525.152 449.305 525.412 448.737 525.868C448.177 526.324 447.897 526.964 447.897 527.788ZM465.661 523.6L461.929 530.524C461.633 531.076 461.285 531.488 460.885 531.76C460.485 532.032 460.049 532.168 459.577 532.168C459.209 532.168 458.833 532.084 458.449 531.916L458.761 530.956C459.057 531.06 459.321 531.112 459.553 531.112C460.081 531.112 460.517 530.832 460.861 530.272L461.053 529.972L457.669 523.6H458.953L461.677 528.928L464.473 523.6H465.661ZM473.24 524.644H470.36V532H469.184V524.644H466.316V523.6H473.24V524.644ZM475.179 523.6H481.515V524.62H476.367V527.02H478.983C479.983 527.02 480.743 527.228 481.263 527.644C481.783 528.06 482.043 528.66 482.043 529.444C482.043 530.268 481.759 530.9 481.191 531.34C480.631 531.78 479.827 532 478.779 532H475.179V523.6ZM478.731 531.052C479.419 531.052 479.943 530.92 480.303 530.656C480.663 530.392 480.843 530.004 480.843 529.492C480.843 528.476 480.139 527.968 478.731 527.968H476.367V531.052H478.731ZM488.216 532.096C487.368 532.096 486.604 531.912 485.924 531.544C485.244 531.168 484.708 530.652 484.316 529.996C483.932 529.34 483.74 528.608 483.74 527.8C483.74 526.992 483.932 526.26 484.316 525.604C484.708 524.948 485.244 524.436 485.924 524.068C486.604 523.692 487.368 523.504 488.216 523.504C489.056 523.504 489.816 523.692 490.496 524.068C491.176 524.436 491.708 524.948 492.092 525.604C492.476 526.252 492.668 526.984 492.668 527.8C492.668 528.616 492.476 529.352 492.092 530.008C491.708 530.656 491.176 531.168 490.496 531.544C489.816 531.912 489.056 532.096 488.216 532.096ZM488.216 531.028C488.832 531.028 489.384 530.888 489.872 530.608C490.368 530.328 490.756 529.944 491.036 529.456C491.324 528.96 491.468 528.408 491.468 527.8C491.468 527.192 491.324 526.644 491.036 526.156C490.756 525.66 490.368 525.272 489.872 524.992C489.384 524.712 488.832 524.572 488.216 524.572C487.6 524.572 487.04 524.712 486.536 524.992C486.04 525.272 485.648 525.66 485.36 526.156C485.08 526.644 484.94 527.192 484.94 527.8C484.94 528.408 485.08 528.96 485.36 529.456C485.648 529.944 486.04 530.328 486.536 530.608C487.04 530.888 487.6 531.028 488.216 531.028ZM501.718 523.6V532H500.542V524.644H496.822L496.738 527.104C496.698 528.264 496.602 529.204 496.45 529.924C496.306 530.644 496.074 531.188 495.754 531.556C495.434 531.916 495.002 532.096 494.458 532.096C494.21 532.096 493.958 532.064 493.702 532L493.786 530.932C493.914 530.964 494.042 530.98 494.17 530.98C494.514 530.98 494.79 530.844 494.998 530.572C495.206 530.292 495.362 529.876 495.466 529.324C495.57 528.772 495.638 528.044 495.67 527.14L495.802 523.6H501.718ZM508.498 526.528C509.498 526.528 510.262 526.752 510.79 527.2C511.326 527.648 511.594 528.308 511.594 529.18C511.594 530.1 511.306 530.8 510.73 531.28C510.162 531.76 509.346 532 508.282 532H504.814V523.6H506.002V526.528H508.498ZM508.234 531.052C508.93 531.052 509.462 530.896 509.83 530.584C510.206 530.264 510.394 529.804 510.394 529.204C510.394 528.052 509.674 527.476 508.234 527.476H506.002V531.052H508.234ZM521.073 523.6V532H519.873V528.256H515.049V532H513.849V523.6H515.049V527.212H519.873V523.6H521.073ZM527.857 526.528C528.857 526.528 529.621 526.752 530.149 527.2C530.685 527.648 530.953 528.308 530.953 529.18C530.953 530.1 530.665 530.8 530.089 531.28C529.521 531.76 528.705 532 527.641 532H524.173V523.6H525.361V526.528H527.857ZM527.593 531.052C528.289 531.052 528.821 530.896 529.189 530.584C529.565 530.264 529.753 529.804 529.753 529.204C529.753 528.052 529.033 527.476 527.593 527.476H525.361V531.052H527.593ZM532.285 523.6H533.473V532H532.285V523.6ZM537.051 523.6L539.247 526.672L541.443 523.6H542.847L540.003 527.632L543.075 532H541.659L539.247 528.652L536.847 532H535.467L538.527 527.68L535.671 523.6H537.051ZM331.544 547.6V556H330.368V548.644H325.496V556H324.308V547.6H331.544ZM338.423 556.096C337.575 556.096 336.811 555.912 336.131 555.544C335.451 555.168 334.915 554.652 334.523 553.996C334.139 553.34 333.947 552.608 333.947 551.8C333.947 550.992 334.139 550.26 334.523 549.604C334.915 548.948 335.451 548.436 336.131 548.068C336.811 547.692 337.575 547.504 338.423 547.504C339.263 547.504 340.023 547.692 340.703 548.068C341.383 548.436 341.915 548.948 342.299 549.604C342.683 550.252 342.875 550.984 342.875 551.8C342.875 552.616 342.683 553.352 342.299 554.008C341.915 554.656 341.383 555.168 340.703 555.544C340.023 555.912 339.263 556.096 338.423 556.096ZM338.423 555.028C339.039 555.028 339.591 554.888 340.079 554.608C340.575 554.328 340.963 553.944 341.243 553.456C341.531 552.96 341.675 552.408 341.675 551.8C341.675 551.192 341.531 550.644 341.243 550.156C340.963 549.66 340.575 549.272 340.079 548.992C339.591 548.712 339.039 548.572 338.423 548.572C337.807 548.572 337.247 548.712 336.743 548.992C336.247 549.272 335.855 549.66 335.567 550.156C335.287 550.644 335.147 551.192 335.147 551.8C335.147 552.408 335.287 552.96 335.567 553.456C335.855 553.944 336.247 554.328 336.743 554.608C337.247 554.888 337.807 555.028 338.423 555.028ZM351.925 547.6V556H350.749V548.644H347.029L346.945 551.104C346.905 552.264 346.809 553.204 346.657 553.924C346.513 554.644 346.281 555.188 345.961 555.556C345.641 555.916 345.209 556.096 344.665 556.096C344.417 556.096 344.165 556.064 343.909 556L343.993 554.932C344.121 554.964 344.249 554.98 344.377 554.98C344.721 554.98 344.997 554.844 345.205 554.572C345.413 554.292 345.569 553.876 345.673 553.324C345.777 552.772 345.845 552.044 345.877 551.14L346.009 547.6H351.925ZM361.177 547.6V556H360.001V553.552H357.685C357.541 553.552 357.433 553.548 357.361 553.54L355.681 556H354.409L356.269 553.336C355.669 553.136 355.209 552.804 354.889 552.34C354.569 551.868 354.409 551.296 354.409 550.624C354.409 549.672 354.713 548.932 355.321 548.404C355.937 547.868 356.765 547.6 357.805 547.6H361.177ZM355.621 550.612C355.621 551.236 355.801 551.716 356.161 552.052C356.529 552.38 357.069 552.544 357.781 552.544H360.001V548.644H357.853C357.133 548.644 356.581 548.812 356.197 549.148C355.813 549.484 355.621 549.972 355.621 550.612ZM371.737 556.096C370.897 556.096 370.137 555.912 369.457 555.544C368.785 555.168 368.257 554.656 367.873 554.008C367.489 553.352 367.297 552.616 367.297 551.8C367.297 550.984 367.489 550.252 367.873 549.604C368.257 548.948 368.789 548.436 369.469 548.068C370.149 547.692 370.909 547.504 371.749 547.504C372.405 547.504 373.005 547.616 373.549 547.84C374.093 548.056 374.557 548.38 374.941 548.812L374.161 549.568C373.529 548.904 372.741 548.572 371.797 548.572C371.173 548.572 370.609 548.712 370.105 548.992C369.601 549.272 369.205 549.66 368.917 550.156C368.637 550.644 368.497 551.192 368.497 551.8C368.497 552.408 368.637 552.96 368.917 553.456C369.205 553.944 369.601 554.328 370.105 554.608C370.609 554.888 371.173 555.028 371.797 555.028C372.733 555.028 373.521 554.692 374.161 554.02L374.941 554.776C374.557 555.208 374.089 555.536 373.537 555.76C372.993 555.984 372.393 556.096 371.737 556.096ZM380.777 547.6H381.965V554.08L386.933 547.6H388.037V556H386.861V549.532L381.881 556H380.777V547.6ZM394.892 556.096C394.052 556.096 393.292 555.912 392.612 555.544C391.94 555.168 391.412 554.656 391.028 554.008C390.644 553.352 390.452 552.616 390.452 551.8C390.452 550.984 390.644 550.252 391.028 549.604C391.412 548.948 391.944 548.436 392.624 548.068C393.304 547.692 394.064 547.504 394.904 547.504C395.56 547.504 396.16 547.616 396.704 547.84C397.248 548.056 397.712 548.38 398.096 548.812L397.316 549.568C396.684 548.904 395.896 548.572 394.952 548.572C394.328 548.572 393.764 548.712 393.26 548.992C392.756 549.272 392.36 549.66 392.072 550.156C391.792 550.644 391.652 551.192 391.652 551.8C391.652 552.408 391.792 552.96 392.072 553.456C392.36 553.944 392.756 554.328 393.26 554.608C393.764 554.888 394.328 555.028 394.952 555.028C395.888 555.028 396.676 554.692 397.316 554.02L398.096 554.776C397.712 555.208 397.244 555.536 396.692 555.76C396.148 555.984 395.548 556.096 394.892 556.096ZM403.158 552.304H401.406V556H400.23V547.6H401.406V551.248H403.182L405.822 547.6H407.106L404.106 551.668L407.25 556H405.882L403.158 552.304ZM415.894 547.6L412.162 554.524C411.866 555.076 411.518 555.488 411.118 555.76C410.718 556.032 410.282 556.168 409.81 556.168C409.442 556.168 409.066 556.084 408.682 555.916L408.994 554.956C409.29 555.06 409.554 555.112 409.786 555.112C410.314 555.112 410.75 554.832 411.094 554.272L411.286 553.972L407.902 547.6H409.186L411.91 552.928L414.706 547.6H415.894ZM421.281 556.096C420.441 556.096 419.681 555.912 419.001 555.544C418.329 555.168 417.801 554.656 417.417 554.008C417.033 553.352 416.841 552.616 416.841 551.8C416.841 550.984 417.033 550.252 417.417 549.604C417.801 548.948 418.333 548.436 419.013 548.068C419.693 547.692 420.453 547.504 421.293 547.504C421.949 547.504 422.549 547.616 423.093 547.84C423.637 548.056 424.101 548.38 424.485 548.812L423.705 549.568C423.073 548.904 422.285 548.572 421.341 548.572C420.717 548.572 420.153 548.712 419.649 548.992C419.145 549.272 418.749 549.66 418.461 550.156C418.181 550.644 418.041 551.192 418.041 551.8C418.041 552.408 418.181 552.96 418.461 553.456C418.749 553.944 419.145 554.328 419.649 554.608C420.153 554.888 420.717 555.028 421.341 555.028C422.277 555.028 423.065 554.692 423.705 554.02L424.485 554.776C424.101 555.208 423.633 555.536 423.081 555.76C422.537 555.984 421.937 556.096 421.281 556.096ZM430.199 556.096C429.359 556.096 428.599 555.912 427.919 555.544C427.247 555.168 426.719 554.656 426.335 554.008C425.951 553.352 425.759 552.616 425.759 551.8C425.759 550.984 425.951 550.252 426.335 549.604C426.719 548.948 427.251 548.436 427.931 548.068C428.611 547.692 429.371 547.504 430.211 547.504C430.867 547.504 431.467 547.616 432.011 547.84C432.555 548.056 433.019 548.38 433.403 548.812L432.623 549.568C431.991 548.904 431.203 548.572 430.259 548.572C429.635 548.572 429.071 548.712 428.567 548.992C428.063 549.272 427.667 549.66 427.379 550.156C427.099 550.644 426.959 551.192 426.959 551.8C426.959 552.408 427.099 552.96 427.379 553.456C427.667 553.944 428.063 554.328 428.567 554.608C429.071 554.888 429.635 555.028 430.259 555.028C431.195 555.028 431.983 554.692 432.623 554.02L433.403 554.776C433.019 555.208 432.551 555.536 431.999 555.76C431.455 555.984 430.855 556.096 430.199 556.096ZM441.215 548.644H438.335V556H437.159V548.644H434.291V547.6H441.215V548.644ZM448.385 551.644C448.953 551.78 449.381 552.024 449.669 552.376C449.965 552.72 450.113 553.164 450.113 553.708C450.113 554.436 449.845 555 449.309 555.4C448.781 555.8 448.009 556 446.993 556H443.153V547.6H446.765C447.685 547.6 448.401 547.788 448.913 548.164C449.433 548.532 449.693 549.064 449.693 549.76C449.693 550.216 449.577 550.604 449.345 550.924C449.121 551.244 448.801 551.484 448.385 551.644ZM444.341 551.296H446.681C447.265 551.296 447.709 551.18 448.013 550.948C448.325 550.716 448.481 550.376 448.481 549.928C448.481 549.48 448.325 549.14 448.013 548.908C447.701 548.668 447.257 548.548 446.681 548.548H444.341V551.296ZM446.969 555.052C448.257 555.052 448.901 554.572 448.901 553.612C448.901 553.132 448.737 552.78 448.409 552.556C448.089 552.324 447.609 552.208 446.969 552.208H444.341V555.052H446.969ZM458.694 554.956V556H452.598V547.6H458.526V548.644H453.798V551.224H458.01V552.244H453.798V554.956H458.694ZM468.282 547.6V556H467.082V552.256H462.258V556H461.058V547.6H462.258V551.212H467.082V547.6H468.282ZM478.606 547.6V556H477.406V552.256H472.582V556H471.382V547.6H472.582V551.212H477.406V547.6H478.606ZM485.486 556.096C484.638 556.096 483.874 555.912 483.194 555.544C482.514 555.168 481.978 554.652 481.586 553.996C481.202 553.34 481.01 552.608 481.01 551.8C481.01 550.992 481.202 550.26 481.586 549.604C481.978 548.948 482.514 548.436 483.194 548.068C483.874 547.692 484.638 547.504 485.486 547.504C486.326 547.504 487.086 547.692 487.766 548.068C488.446 548.436 488.978 548.948 489.362 549.604C489.746 550.252 489.938 550.984 489.938 551.8C489.938 552.616 489.746 553.352 489.362 554.008C488.978 554.656 488.446 555.168 487.766 555.544C487.086 555.912 486.326 556.096 485.486 556.096ZM485.486 555.028C486.102 555.028 486.654 554.888 487.142 554.608C487.638 554.328 488.026 553.944 488.306 553.456C488.594 552.96 488.738 552.408 488.738 551.8C488.738 551.192 488.594 550.644 488.306 550.156C488.026 549.66 487.638 549.272 487.142 548.992C486.654 548.712 486.102 548.572 485.486 548.572C484.87 548.572 484.31 548.712 483.806 548.992C483.31 549.272 482.918 549.66 482.63 550.156C482.35 550.644 482.21 551.192 482.21 551.8C482.21 552.408 482.35 552.96 482.63 553.456C482.918 553.944 483.31 554.328 483.806 554.608C484.31 554.888 484.87 555.028 485.486 555.028ZM492.358 547.6H493.546V554.08L498.514 547.6H499.618V556H498.442V549.532L493.462 556H492.358V547.6ZM495.97 547.012C495.314 547.012 494.806 546.872 494.446 546.592C494.094 546.304 493.914 545.896 493.906 545.368H494.758C494.766 545.68 494.874 545.924 495.082 546.1C495.298 546.268 495.594 546.352 495.97 546.352C496.33 546.352 496.618 546.268 496.834 546.1C497.058 545.924 497.174 545.68 497.182 545.368H498.022C498.014 545.888 497.83 546.292 497.47 546.58C497.118 546.868 496.618 547.012 495.97 547.012ZM512.191 548.644H509.311V556H508.135V548.644H505.267V547.6H512.191V548.644ZM517.406 547.6C518.494 547.6 519.35 547.86 519.974 548.38C520.598 548.9 520.91 549.616 520.91 550.528C520.91 551.44 520.598 552.156 519.974 552.676C519.35 553.196 518.494 553.456 517.406 553.456H515.33V556H514.13V547.6H517.406ZM517.37 552.412C518.13 552.412 518.71 552.252 519.11 551.932C519.51 551.604 519.71 551.136 519.71 550.528C519.71 549.92 519.51 549.456 519.11 549.136C518.71 548.808 518.13 548.644 517.37 548.644H515.33V552.412H517.37ZM528.097 553.9H523.633L522.709 556H521.473L525.277 547.6H526.465L530.281 556H529.021L528.097 553.9ZM527.677 552.94L525.865 548.824L524.053 552.94H527.677ZM537.443 551.644C538.011 551.78 538.439 552.024 538.727 552.376C539.023 552.72 539.171 553.164 539.171 553.708C539.171 554.436 538.903 555 538.367 555.4C537.839 555.8 537.067 556 536.051 556H532.211V547.6H535.823C536.743 547.6 537.459 547.788 537.971 548.164C538.491 548.532 538.751 549.064 538.751 549.76C538.751 550.216 538.635 550.604 538.403 550.924C538.179 551.244 537.859 551.484 537.443 551.644ZM533.399 551.296H535.739C536.323 551.296 536.767 551.18 537.071 550.948C537.383 550.716 537.539 550.376 537.539 549.928C537.539 549.48 537.383 549.14 537.071 548.908C536.759 548.668 536.315 548.548 535.739 548.548H533.399V551.296ZM536.027 555.052C537.315 555.052 537.959 554.572 537.959 553.612C537.959 553.132 537.795 552.78 537.467 552.556C537.147 552.324 536.667 552.208 536.027 552.208H533.399V555.052H536.027ZM545.436 556.096C544.588 556.096 543.824 555.912 543.144 555.544C542.464 555.168 541.928 554.652 541.536 553.996C541.152 553.34 540.96 552.608 540.96 551.8C540.96 550.992 541.152 550.26 541.536 549.604C541.928 548.948 542.464 548.436 543.144 548.068C543.824 547.692 544.588 547.504 545.436 547.504C546.276 547.504 547.036 547.692 547.716 548.068C548.396 548.436 548.928 548.948 549.312 549.604C549.696 550.252 549.888 550.984 549.888 551.8C549.888 552.616 549.696 553.352 549.312 554.008C548.928 554.656 548.396 555.168 547.716 555.544C547.036 555.912 546.276 556.096 545.436 556.096ZM545.436 555.028C546.052 555.028 546.604 554.888 547.092 554.608C547.588 554.328 547.976 553.944 548.256 553.456C548.544 552.96 548.688 552.408 548.688 551.8C548.688 551.192 548.544 550.644 548.256 550.156C547.976 549.66 547.588 549.272 547.092 548.992C546.604 548.712 546.052 548.572 545.436 548.572C544.82 548.572 544.26 548.712 543.756 548.992C543.26 549.272 542.868 549.66 542.58 550.156C542.3 550.644 542.16 551.192 542.16 551.8C542.16 552.408 542.3 552.96 542.58 553.456C542.868 553.944 543.26 554.328 543.756 554.608C544.26 554.888 544.82 555.028 545.436 555.028ZM552.308 547.6H553.496V554.08L558.464 547.6H559.568V556H558.392V549.532L553.412 556H552.308V547.6ZM555.92 547.012C555.264 547.012 554.756 546.872 554.396 546.592C554.044 546.304 553.864 545.896 553.856 545.368H554.708C554.716 545.68 554.824 545.924 555.032 546.1C555.248 546.268 555.544 546.352 555.92 546.352C556.28 546.352 556.568 546.268 556.784 546.1C557.008 545.924 557.124 545.68 557.132 545.368H557.972C557.964 545.888 557.78 546.292 557.42 546.58C557.068 546.868 556.568 547.012 555.92 547.012Z" fill="white"/>
<path id="&#208;&#160;&#208;&#176;&#208;&#183;&#208;&#188;&#208;&#181;&#209;&#128;&#209;&#139; &#208;&#191;&#208;&#190;&#208;&#187;&#208;&#181;&#208;&#185; 40&#209;&#133;18 &#208;&#188;, &#208;&#188;&#208;&#184;&#208;&#189;&#208;&#184;&#208;&#188;&#208;&#176;&#208;&#187;&#209;&#140;&#208;&#189;&#208;&#176;&#209;&#143; &#208;&#178;&#209;&#139;&#209;&#129;&#208;&#190;&#209;&#130;&#208;&#176; &#208;&#191;&#208;&#190;&#209;&#130;&#208;&#190;&#208;&#187;&#208;&#186;&#208;&#176; 5,3 &#208;&#188;" d="M602.584 805.6C603.672 805.6 604.528 805.86 605.152 806.38C605.776 806.9 606.088 807.616 606.088 808.528C606.088 809.44 605.776 810.156 605.152 810.676C604.528 811.196 603.672 811.456 602.584 811.456H600.508V814H599.308V805.6H602.584ZM602.548 810.412C603.308 810.412 603.888 810.252 604.288 809.932C604.688 809.604 604.888 809.136 604.888 808.528C604.888 807.92 604.688 807.456 604.288 807.136C603.888 806.808 603.308 806.644 602.548 806.644H600.508V810.412H602.548ZM613.275 811.9H608.811L607.887 814H606.651L610.455 805.6H611.643L615.459 814H614.199L613.275 811.9ZM612.855 810.94L611.043 806.824L609.231 810.94H612.855ZM621.409 809.62C621.937 809.764 622.349 810.016 622.645 810.376C622.941 810.728 623.089 811.152 623.089 811.648C623.089 812.144 622.929 812.58 622.609 812.956C622.297 813.324 621.877 813.608 621.349 813.808C620.829 814 620.261 814.096 619.645 814.096C619.085 814.096 618.529 814.012 617.977 813.844C617.425 813.676 616.921 813.424 616.465 813.088L616.885 812.2C617.253 812.488 617.665 812.704 618.121 812.848C618.577 812.992 619.037 813.064 619.501 813.064C620.173 813.064 620.737 812.924 621.193 812.644C621.649 812.356 621.877 811.964 621.877 811.468C621.877 811.044 621.705 810.72 621.361 810.496C621.017 810.264 620.533 810.148 619.909 810.148H618.037V809.176H619.825C620.361 809.176 620.777 809.068 621.073 808.852C621.377 808.628 621.529 808.32 621.529 807.928C621.529 807.488 621.333 807.14 620.941 806.884C620.549 806.628 620.053 806.5 619.453 806.5C619.061 806.5 618.661 806.556 618.253 806.668C617.853 806.78 617.473 806.948 617.113 807.172L616.729 806.188C617.153 805.948 617.601 805.768 618.073 805.648C618.545 805.528 619.017 805.468 619.489 805.468C620.081 805.468 620.625 805.56 621.121 805.744C621.617 805.928 622.009 806.196 622.297 806.548C622.593 806.9 622.741 807.312 622.741 807.784C622.741 808.208 622.621 808.58 622.381 808.9C622.149 809.22 621.825 809.46 621.409 809.62ZM633.356 814L633.344 807.88L630.308 812.98H629.756L626.72 807.916V814H625.568V805.6H626.552L630.056 811.504L633.512 805.6H634.496L634.508 814H633.356ZM643.699 812.956V814H637.603V805.6H643.531V806.644H638.803V809.224H643.015V810.244H638.803V812.956H643.699ZM649.339 805.6C650.427 805.6 651.283 805.86 651.907 806.38C652.531 806.9 652.843 807.616 652.843 808.528C652.843 809.44 652.531 810.156 651.907 810.676C651.283 811.196 650.427 811.456 649.339 811.456H647.263V814H646.063V805.6H649.339ZM649.303 810.412C650.063 810.412 650.643 810.252 651.043 809.932C651.443 809.604 651.643 809.136 651.643 808.528C651.643 807.92 651.443 807.456 651.043 807.136C650.643 806.808 650.063 806.644 649.303 806.644H647.263V810.412H649.303ZM658.677 808.528C659.677 808.528 660.441 808.752 660.969 809.2C661.505 809.648 661.773 810.308 661.773 811.18C661.773 812.1 661.485 812.8 660.909 813.28C660.341 813.76 659.525 814 658.461 814H654.993V805.6H656.181V808.528H658.677ZM658.413 813.052C659.109 813.052 659.641 812.896 660.009 812.584C660.385 812.264 660.573 811.804 660.573 811.204C660.573 810.052 659.853 809.476 658.413 809.476H656.181V813.052H658.413ZM663.105 805.6H664.293V814H663.105V805.6ZM678.329 805.6V814H677.153V806.644H672.281V814H671.093V805.6H678.329ZM685.209 814.096C684.361 814.096 683.597 813.912 682.917 813.544C682.237 813.168 681.701 812.652 681.309 811.996C680.925 811.34 680.733 810.608 680.733 809.8C680.733 808.992 680.925 808.26 681.309 807.604C681.701 806.948 682.237 806.436 682.917 806.068C683.597 805.692 684.361 805.504 685.209 805.504C686.049 805.504 686.809 805.692 687.489 806.068C688.169 806.436 688.701 806.948 689.085 807.604C689.469 808.252 689.661 808.984 689.661 809.8C689.661 810.616 689.469 811.352 689.085 812.008C688.701 812.656 688.169 813.168 687.489 813.544C686.809 813.912 686.049 814.096 685.209 814.096ZM685.209 813.028C685.825 813.028 686.377 812.888 686.865 812.608C687.361 812.328 687.749 811.944 688.029 811.456C688.317 810.96 688.461 810.408 688.461 809.8C688.461 809.192 688.317 808.644 688.029 808.156C687.749 807.66 687.361 807.272 686.865 806.992C686.377 806.712 685.825 806.572 685.209 806.572C684.593 806.572 684.033 806.712 683.529 806.992C683.033 807.272 682.641 807.66 682.353 808.156C682.073 808.644 681.933 809.192 681.933 809.8C681.933 810.408 682.073 810.96 682.353 811.456C682.641 811.944 683.033 812.328 683.529 812.608C684.033 812.888 684.593 813.028 685.209 813.028ZM698.71 805.6V814H697.534V806.644H693.814L693.73 809.104C693.69 810.264 693.594 811.204 693.442 811.924C693.298 812.644 693.066 813.188 692.746 813.556C692.426 813.916 691.994 814.096 691.45 814.096C691.202 814.096 690.95 814.064 690.694 814L690.778 812.932C690.906 812.964 691.034 812.98 691.162 812.98C691.506 812.98 691.782 812.844 691.99 812.572C692.198 812.292 692.354 811.876 692.458 811.324C692.562 810.772 692.63 810.044 692.662 809.14L692.794 805.6H698.71ZM707.903 812.956V814H701.807V805.6H707.735V806.644H703.007V809.224H707.219V810.244H703.007V812.956H707.903ZM710.267 805.6H711.455V812.08L716.423 805.6H717.527V814H716.351V807.532L711.371 814H710.267V805.6ZM713.879 805.012C713.223 805.012 712.715 804.872 712.355 804.592C712.003 804.304 711.823 803.896 711.815 803.368H712.667C712.675 803.68 712.783 803.924 712.991 804.1C713.207 804.268 713.503 804.352 713.879 804.352C714.239 804.352 714.527 804.268 714.743 804.1C714.967 803.924 715.083 803.68 715.091 803.368H715.931C715.923 803.888 715.739 804.292 715.379 804.58C715.027 804.868 714.527 805.012 713.879 805.012ZM730.905 811.936H729.309V814H728.145V811.936H723.477V811.096L727.773 805.6H729.069L724.953 810.904H728.181V809.08H729.309V810.904H730.905V811.936ZM735.536 814.096C734.872 814.096 734.28 813.928 733.76 813.592C733.248 813.248 732.844 812.752 732.548 812.104C732.252 811.456 732.104 810.688 732.104 809.8C732.104 808.912 732.252 808.144 732.548 807.496C732.844 806.848 733.248 806.356 733.76 806.02C734.28 805.676 734.872 805.504 735.536 805.504C736.192 805.504 736.776 805.676 737.288 806.02C737.808 806.356 738.216 806.848 738.512 807.496C738.808 808.144 738.956 808.912 738.956 809.8C738.956 810.688 738.808 811.456 738.512 812.104C738.216 812.752 737.808 813.248 737.288 813.592C736.776 813.928 736.192 814.096 735.536 814.096ZM735.536 813.028C736.208 813.028 736.744 812.752 737.144 812.2C737.552 811.648 737.756 810.848 737.756 809.8C737.756 808.752 737.552 807.952 737.144 807.4C736.744 806.848 736.208 806.572 735.536 806.572C734.856 806.572 734.312 806.848 733.904 807.4C733.504 807.952 733.304 808.752 733.304 809.8C733.304 810.848 733.504 811.648 733.904 812.2C734.312 812.752 734.856 813.028 735.536 813.028ZM741.402 805.6L743.598 808.672L745.794 805.6H747.198L744.354 809.632L747.426 814H746.01L743.598 810.652L741.198 814H739.818L742.878 809.68L740.022 805.6H741.402ZM751.406 805.6V814H750.218V806.644H748.322V805.6H751.406ZM758.86 809.596C759.34 809.78 759.708 810.044 759.964 810.388C760.22 810.732 760.348 811.144 760.348 811.624C760.348 812.128 760.212 812.568 759.94 812.944C759.668 813.312 759.28 813.596 758.776 813.796C758.272 813.996 757.68 814.096 757 814.096C756.328 814.096 755.74 813.996 755.236 813.796C754.74 813.596 754.356 813.312 754.084 812.944C753.812 812.568 753.676 812.128 753.676 811.624C753.676 811.144 753.8 810.732 754.048 810.388C754.304 810.044 754.672 809.78 755.152 809.596C754.768 809.412 754.476 809.168 754.276 808.864C754.076 808.56 753.976 808.2 753.976 807.784C753.976 807.32 754.1 806.916 754.348 806.572C754.604 806.228 754.96 805.964 755.416 805.78C755.872 805.596 756.4 805.504 757 805.504C757.608 805.504 758.14 805.596 758.596 805.78C759.06 805.964 759.416 806.228 759.664 806.572C759.92 806.916 760.048 807.32 760.048 807.784C760.048 808.192 759.944 808.552 759.736 808.864C759.536 809.168 759.244 809.412 758.86 809.596ZM757 806.476C756.432 806.476 755.984 806.6 755.656 806.848C755.328 807.088 755.164 807.416 755.164 807.832C755.164 808.248 755.324 808.576 755.644 808.816C755.972 809.056 756.424 809.176 757 809.176C757.584 809.176 758.04 809.056 758.368 808.816C758.704 808.576 758.872 808.248 758.872 807.832C758.872 807.416 758.7 807.088 758.356 806.848C758.02 806.6 757.568 806.476 757 806.476ZM757 813.124C757.664 813.124 758.188 812.988 758.572 812.716C758.956 812.436 759.148 812.06 759.148 811.588C759.148 811.124 758.956 810.76 758.572 810.496C758.188 810.224 757.664 810.088 757 810.088C756.336 810.088 755.816 810.224 755.44 810.496C755.064 810.76 754.876 811.124 754.876 811.588C754.876 812.06 755.064 812.436 755.44 812.716C755.816 812.988 756.336 813.124 757 813.124ZM774.149 814L774.137 807.88L771.101 812.98H770.549L767.513 807.916V814H766.361V805.6H767.345L770.849 811.504L774.305 805.6H775.289L775.301 814H774.149ZM778.468 812.428C778.692 812.428 778.876 812.508 779.02 812.668C779.172 812.82 779.248 813.012 779.248 813.244C779.248 813.364 779.232 813.48 779.2 813.592C779.176 813.704 779.124 813.876 779.044 814.108L778.48 815.776H777.724L778.168 813.988C778.016 813.932 777.892 813.84 777.796 813.712C777.708 813.576 777.664 813.42 777.664 813.244C777.664 813.004 777.74 812.808 777.892 812.656C778.044 812.504 778.236 812.428 778.468 812.428ZM793.085 814L793.073 807.88L790.037 812.98H789.485L786.449 807.916V814H785.297V805.6H786.281L789.785 811.504L793.241 805.6H794.225L794.237 814H793.085ZM797.332 805.6H798.52V812.08L803.488 805.6H804.592V814H803.416V807.532L798.436 814H797.332V805.6ZM814.915 805.6V814H813.715V810.256H808.891V814H807.691V805.6H808.891V809.212H813.715V805.6H814.915ZM818.015 805.6H819.203V812.08L824.171 805.6H825.275V814H824.099V807.532L819.119 814H818.015V805.6ZM836.161 814L836.149 807.88L833.113 812.98H832.561L829.525 807.916V814H828.373V805.6H829.357L832.861 811.504L836.317 805.6H837.301L837.313 814H836.161ZM845.868 811.9H841.404L840.48 814H839.244L843.048 805.6H844.236L848.052 814H846.792L845.868 811.9ZM845.448 810.94L843.636 806.824L841.824 810.94H845.448ZM856.881 805.6V814H855.705V806.644H851.985L851.901 809.104C851.861 810.264 851.765 811.204 851.613 811.924C851.469 812.644 851.237 813.188 850.917 813.556C850.597 813.916 850.165 814.096 849.621 814.096C849.373 814.096 849.121 814.064 848.865 814L848.949 812.932C849.077 812.964 849.205 812.98 849.333 812.98C849.677 812.98 849.953 812.844 850.161 812.572C850.369 812.292 850.525 811.876 850.629 811.324C850.733 810.772 850.801 810.044 850.833 809.14L850.965 805.6H856.881ZM863.662 808.528C864.662 808.528 865.426 808.752 865.954 809.2C866.49 809.648 866.758 810.308 866.758 811.18C866.758 812.1 866.47 812.8 865.894 813.28C865.326 813.76 864.51 814 863.446 814H859.978V805.6H861.166V808.528H863.662ZM863.398 813.052C864.094 813.052 864.626 812.896 864.994 812.584C865.37 812.264 865.558 811.804 865.558 811.204C865.558 810.052 864.838 809.476 863.398 809.476H861.166V813.052H863.398ZM876.236 805.6V814H875.036V810.256H870.212V814H869.012V805.6H870.212V809.212H875.036V805.6H876.236ZM884.796 811.9H880.332L879.408 814H878.172L881.976 805.6H883.164L886.98 814H885.72L884.796 811.9ZM884.376 810.94L882.564 806.824L880.752 810.94H884.376ZM894.667 805.6V814H893.491V811.552H891.175C891.031 811.552 890.923 811.548 890.851 811.54L889.171 814H887.899L889.759 811.336C889.159 811.136 888.699 810.804 888.379 810.34C888.059 809.868 887.899 809.296 887.899 808.624C887.899 807.672 888.203 806.932 888.811 806.404C889.427 805.868 890.255 805.6 891.295 805.6H894.667ZM889.111 808.612C889.111 809.236 889.291 809.716 889.651 810.052C890.019 810.38 890.559 810.544 891.271 810.544H893.491V806.644H891.343C890.623 806.644 890.071 806.812 889.687 807.148C889.303 807.484 889.111 807.972 889.111 808.612ZM604.54 833.644C605.108 833.78 605.536 834.024 605.824 834.376C606.12 834.72 606.268 835.164 606.268 835.708C606.268 836.436 606 837 605.464 837.4C604.936 837.8 604.164 838 603.148 838H599.308V829.6H602.92C603.84 829.6 604.556 829.788 605.068 830.164C605.588 830.532 605.848 831.064 605.848 831.76C605.848 832.216 605.732 832.604 605.5 832.924C605.276 833.244 604.956 833.484 604.54 833.644ZM600.496 833.296H602.836C603.42 833.296 603.864 833.18 604.168 832.948C604.48 832.716 604.636 832.376 604.636 831.928C604.636 831.48 604.48 831.14 604.168 830.908C603.856 830.668 603.412 830.548 602.836 830.548H600.496V833.296ZM603.124 837.052C604.412 837.052 605.056 836.572 605.056 835.612C605.056 835.132 604.892 834.78 604.564 834.556C604.244 834.324 603.764 834.208 603.124 834.208H600.496V837.052H603.124ZM612.437 832.528C613.437 832.528 614.201 832.752 614.729 833.2C615.265 833.648 615.533 834.308 615.533 835.18C615.533 836.1 615.245 836.8 614.669 837.28C614.101 837.76 613.285 838 612.221 838H608.753V829.6H609.941V832.528H612.437ZM612.173 837.052C612.869 837.052 613.401 836.896 613.769 836.584C614.145 836.264 614.333 835.804 614.333 835.204C614.333 834.052 613.613 833.476 612.173 833.476H609.941V837.052H612.173ZM616.865 829.6H618.053V838H616.865V829.6ZM624.907 838.096C624.067 838.096 623.307 837.912 622.627 837.544C621.955 837.168 621.427 836.656 621.043 836.008C620.659 835.352 620.467 834.616 620.467 833.8C620.467 832.984 620.659 832.252 621.043 831.604C621.427 830.948 621.959 830.436 622.639 830.068C623.319 829.692 624.079 829.504 624.919 829.504C625.575 829.504 626.175 829.616 626.719 829.84C627.263 830.056 627.727 830.38 628.111 830.812L627.331 831.568C626.699 830.904 625.911 830.572 624.967 830.572C624.343 830.572 623.779 830.712 623.275 830.992C622.771 831.272 622.375 831.66 622.087 832.156C621.807 832.644 621.667 833.192 621.667 833.8C621.667 834.408 621.807 834.96 622.087 835.456C622.375 835.944 622.771 836.328 623.275 836.608C623.779 836.888 624.343 837.028 624.967 837.028C625.903 837.028 626.691 836.692 627.331 836.02L628.111 836.776C627.727 837.208 627.259 837.536 626.707 837.76C626.163 837.984 625.563 838.096 624.907 838.096ZM633.848 838.096C633 838.096 632.236 837.912 631.556 837.544C630.876 837.168 630.34 836.652 629.948 835.996C629.564 835.34 629.372 834.608 629.372 833.8C629.372 832.992 629.564 832.26 629.948 831.604C630.34 830.948 630.876 830.436 631.556 830.068C632.236 829.692 633 829.504 633.848 829.504C634.688 829.504 635.448 829.692 636.128 830.068C636.808 830.436 637.34 830.948 637.724 831.604C638.108 832.252 638.3 832.984 638.3 833.8C638.3 834.616 638.108 835.352 637.724 836.008C637.34 836.656 636.808 837.168 636.128 837.544C635.448 837.912 634.688 838.096 633.848 838.096ZM633.848 837.028C634.464 837.028 635.016 836.888 635.504 836.608C636 836.328 636.388 835.944 636.668 835.456C636.956 834.96 637.1 834.408 637.1 833.8C637.1 833.192 636.956 832.644 636.668 832.156C636.388 831.66 636 831.272 635.504 830.992C635.016 830.712 634.464 830.572 633.848 830.572C633.232 830.572 632.672 830.712 632.168 830.992C631.672 831.272 631.28 831.66 630.992 832.156C630.712 832.644 630.572 833.192 630.572 833.8C630.572 834.408 630.712 834.96 630.992 835.456C631.28 835.944 631.672 836.328 632.168 836.608C632.672 836.888 633.232 837.028 633.848 837.028ZM646.375 830.644H643.495V838H642.319V830.644H639.451V829.6H646.375V830.644ZM653.352 835.9H648.888L647.964 838H646.728L650.532 829.6H651.72L655.536 838H654.276L653.352 835.9ZM652.932 834.94L651.12 830.824L649.308 834.94H652.932ZM668.404 829.6V838H667.228V830.644H662.356V838H661.168V829.6H668.404ZM675.283 838.096C674.435 838.096 673.671 837.912 672.991 837.544C672.311 837.168 671.775 836.652 671.383 835.996C670.999 835.34 670.807 834.608 670.807 833.8C670.807 832.992 670.999 832.26 671.383 831.604C671.775 830.948 672.311 830.436 672.991 830.068C673.671 829.692 674.435 829.504 675.283 829.504C676.123 829.504 676.883 829.692 677.563 830.068C678.243 830.436 678.775 830.948 679.159 831.604C679.543 832.252 679.735 832.984 679.735 833.8C679.735 834.616 679.543 835.352 679.159 836.008C678.775 836.656 678.243 837.168 677.563 837.544C676.883 837.912 676.123 838.096 675.283 838.096ZM675.283 837.028C675.899 837.028 676.451 836.888 676.939 836.608C677.435 836.328 677.823 835.944 678.103 835.456C678.391 834.96 678.535 834.408 678.535 833.8C678.535 833.192 678.391 832.644 678.103 832.156C677.823 831.66 677.435 831.272 676.939 830.992C676.451 830.712 675.899 830.572 675.283 830.572C674.667 830.572 674.107 830.712 673.603 830.992C673.107 831.272 672.715 831.66 672.427 832.156C672.147 832.644 672.007 833.192 672.007 833.8C672.007 834.408 672.147 834.96 672.427 835.456C672.715 835.944 673.107 836.328 673.603 836.608C674.107 836.888 674.667 837.028 675.283 837.028ZM687.81 830.644H684.93V838H683.754V830.644H680.886V829.6H687.81V830.644ZM693.411 838.096C692.563 838.096 691.799 837.912 691.119 837.544C690.439 837.168 689.903 836.652 689.511 835.996C689.127 835.34 688.935 834.608 688.935 833.8C688.935 832.992 689.127 832.26 689.511 831.604C689.903 830.948 690.439 830.436 691.119 830.068C691.799 829.692 692.563 829.504 693.411 829.504C694.251 829.504 695.011 829.692 695.691 830.068C696.371 830.436 696.903 830.948 697.287 831.604C697.671 832.252 697.863 832.984 697.863 833.8C697.863 834.616 697.671 835.352 697.287 836.008C696.903 836.656 696.371 837.168 695.691 837.544C695.011 837.912 694.251 838.096 693.411 838.096ZM693.411 837.028C694.027 837.028 694.579 836.888 695.067 836.608C695.563 836.328 695.951 835.944 696.231 835.456C696.519 834.96 696.663 834.408 696.663 833.8C696.663 833.192 696.519 832.644 696.231 832.156C695.951 831.66 695.563 831.272 695.067 830.992C694.579 830.712 694.027 830.572 693.411 830.572C692.795 830.572 692.235 830.712 691.731 830.992C691.235 831.272 690.843 831.66 690.555 832.156C690.275 832.644 690.135 833.192 690.135 833.8C690.135 834.408 690.275 834.96 690.555 835.456C690.843 835.944 691.235 836.328 691.731 836.608C692.235 836.888 692.795 837.028 693.411 837.028ZM706.913 829.6V838H705.737V830.644H702.017L701.933 833.104C701.893 834.264 701.797 835.204 701.645 835.924C701.501 836.644 701.269 837.188 700.949 837.556C700.629 837.916 700.197 838.096 699.653 838.096C699.405 838.096 699.153 838.064 698.897 838L698.981 836.932C699.109 836.964 699.237 836.98 699.365 836.98C699.709 836.98 699.985 836.844 700.193 836.572C700.401 836.292 700.557 835.876 700.661 835.324C700.765 834.772 700.833 834.044 700.865 833.14L700.997 829.6H706.913ZM712.937 834.304H711.185V838H710.009V829.6H711.185V833.248H712.961L715.601 829.6H716.885L713.885 833.668L717.029 838H715.661L712.937 834.304ZM724.082 835.9H719.618L718.694 838H717.458L721.262 829.6H722.45L726.266 838H725.006L724.082 835.9ZM723.662 834.94L721.85 830.824L720.038 834.94H723.662ZM733.567 832.948C734.767 832.948 735.647 833.176 736.207 833.632C736.775 834.08 737.059 834.696 737.059 835.48C737.059 835.976 736.939 836.424 736.699 836.824C736.467 837.216 736.111 837.528 735.631 837.76C735.159 837.984 734.575 838.096 733.879 838.096C733.287 838.096 732.715 838.008 732.163 837.832C731.611 837.648 731.155 837.396 730.795 837.076L731.347 836.128C731.635 836.4 732.003 836.62 732.451 836.788C732.899 836.948 733.371 837.028 733.867 837.028C734.499 837.028 734.987 836.896 735.331 836.632C735.683 836.36 735.859 835.992 735.859 835.528C735.859 835.024 735.667 834.644 735.283 834.388C734.899 834.124 734.243 833.992 733.315 833.992H731.407L731.851 829.6H736.591V830.644H732.859L732.631 832.948H733.567ZM739.341 836.428C739.565 836.428 739.749 836.508 739.893 836.668C740.045 836.82 740.121 837.012 740.121 837.244C740.121 837.364 740.105 837.48 740.073 837.592C740.049 837.704 739.997 837.876 739.917 838.108L739.353 839.776H738.597L739.041 837.988C738.889 837.932 738.765 837.84 738.669 837.712C738.581 837.576 738.537 837.42 738.537 837.244C738.537 837.004 738.613 836.808 738.765 836.656C738.917 836.504 739.109 836.428 739.341 836.428ZM745.069 833.128C745.893 833.208 746.521 833.464 746.953 833.896C747.385 834.32 747.601 834.864 747.601 835.528C747.601 836.008 747.481 836.444 747.241 836.836C747.001 837.22 746.641 837.528 746.161 837.76C745.689 837.984 745.109 838.096 744.421 838.096C743.821 838.096 743.245 838.008 742.693 837.832C742.141 837.648 741.689 837.396 741.337 837.076L741.889 836.128C742.177 836.4 742.545 836.62 742.993 836.788C743.441 836.948 743.917 837.028 744.421 837.028C745.045 837.028 745.529 836.896 745.873 836.632C746.225 836.368 746.401 836.004 746.401 835.54C746.401 835.076 746.229 834.716 745.885 834.46C745.541 834.204 745.021 834.076 744.325 834.076H743.653V833.236L745.765 830.644H741.721V829.6H747.265V830.416L745.069 833.128ZM761.423 838L761.411 831.88L758.375 836.98H757.823L754.787 831.916V838H753.635V829.6H754.619L758.123 835.504L761.579 829.6H762.563L762.575 838H761.423Z" fill="white"/>
</g>
</svg>
