<svg width="1903" height="959" viewBox="0 0 1903 959" fill="none" xmlns="http://www.w3.org/2000/svg">
<g id="Group 82">
<path id="Vector" d="M1107.5 220.578L1125.5 231.039L1125.5 251.963L1107.5 262.422L1089.5 251.963L1089.5 231.039L1107.5 220.578Z" stroke="#BEFF33"/>
<path id="Vector_2" d="M1110 243.5L1110 240.5L1107.5 239L1105 240.5L1105 243.5L1107.5 245L1110 243.5Z" fill="#BEFF33"/>
<path id="&#208;&#159;&#209;&#128;&#208;&#190;&#209;&#132;&#208;&#181;&#209;&#129;&#209;&#129;&#208;&#184;&#208;&#190;&#208;&#189;&#208;&#176;&#208;&#187;&#209;&#140;&#208;&#189;&#208;&#190;&#208;&#181; &#208;&#190;&#209;&#129;&#208;&#178;&#208;&#181;&#209;&#137;&#208;&#181;&#208;&#189;&#208;&#184;&#208;&#181;" d="M1164.54 227.6V236H1163.37V228.644H1158.5V236H1157.31V227.6H1164.54ZM1170.92 227.6C1172.01 227.6 1172.86 227.86 1173.49 228.38C1174.11 228.9 1174.42 229.616 1174.42 230.528C1174.42 231.44 1174.11 232.156 1173.49 232.676C1172.86 233.196 1172.01 233.456 1170.92 233.456H1168.84V236H1167.64V227.6H1170.92ZM1170.88 232.412C1171.64 232.412 1172.22 232.252 1172.62 231.932C1173.02 231.604 1173.22 231.136 1173.22 230.528C1173.22 229.92 1173.02 229.456 1172.62 229.136C1172.22 228.808 1171.64 228.644 1170.88 228.644H1168.84V232.412H1170.88ZM1180.47 236.096C1179.62 236.096 1178.86 235.912 1178.18 235.544C1177.5 235.168 1176.96 234.652 1176.57 233.996C1176.19 233.34 1175.99 232.608 1175.99 231.8C1175.99 230.992 1176.19 230.26 1176.57 229.604C1176.96 228.948 1177.5 228.436 1178.18 228.068C1178.86 227.692 1179.62 227.504 1180.47 227.504C1181.31 227.504 1182.07 227.692 1182.75 228.068C1183.43 228.436 1183.96 228.948 1184.35 229.604C1184.73 230.252 1184.92 230.984 1184.92 231.8C1184.92 232.616 1184.73 233.352 1184.35 234.008C1183.96 234.656 1183.43 235.168 1182.75 235.544C1182.07 235.912 1181.31 236.096 1180.47 236.096ZM1180.47 235.028C1181.09 235.028 1181.64 234.888 1182.13 234.608C1182.62 234.328 1183.01 233.944 1183.29 233.456C1183.58 232.96 1183.72 232.408 1183.72 231.8C1183.72 231.192 1183.58 230.644 1183.29 230.156C1183.01 229.66 1182.62 229.272 1182.13 228.992C1181.64 228.712 1181.09 228.572 1180.47 228.572C1179.85 228.572 1179.29 228.712 1178.79 228.992C1178.29 229.272 1177.9 229.66 1177.61 230.156C1177.33 230.644 1177.19 231.192 1177.19 231.8C1177.19 232.408 1177.33 232.96 1177.61 233.456C1177.9 233.944 1178.29 234.328 1178.79 234.608C1179.29 234.888 1179.85 235.028 1180.47 235.028ZM1196.61 231.788C1196.61 232.9 1196.22 233.772 1195.44 234.404C1194.67 235.036 1193.57 235.376 1192.15 235.424V236.312H1191.04V235.424C1189.62 235.368 1188.52 235.024 1187.74 234.392C1186.96 233.76 1186.57 232.892 1186.57 231.788C1186.57 230.676 1186.96 229.804 1187.74 229.172C1188.52 228.54 1189.62 228.196 1191.04 228.14V227.288H1192.15V228.14C1193.56 228.196 1194.65 228.544 1195.43 229.184C1196.21 229.816 1196.61 230.684 1196.61 231.788ZM1192.15 234.488C1193.23 234.424 1194.04 234.164 1194.6 233.708C1195.17 233.244 1195.45 232.6 1195.45 231.776C1195.45 230.968 1195.17 230.336 1194.59 229.88C1194.02 229.416 1193.21 229.152 1192.15 229.088V234.488ZM1187.74 231.788C1187.74 232.604 1188.02 233.244 1188.59 233.708C1189.17 234.164 1189.98 234.424 1191.04 234.488V229.088C1189.97 229.152 1189.15 229.412 1188.58 229.868C1188.02 230.324 1187.74 230.964 1187.74 231.788ZM1205.03 234.956V236H1198.93V227.6H1204.86V228.644H1200.13V231.224H1204.34V232.244H1200.13V234.956H1205.03ZM1211.11 236.096C1210.27 236.096 1209.51 235.912 1208.83 235.544C1208.16 235.168 1207.63 234.656 1207.25 234.008C1206.86 233.352 1206.67 232.616 1206.67 231.8C1206.67 230.984 1206.86 230.252 1207.25 229.604C1207.63 228.948 1208.16 228.436 1208.84 228.068C1209.52 227.692 1210.28 227.504 1211.12 227.504C1211.78 227.504 1212.38 227.616 1212.92 227.84C1213.47 228.056 1213.93 228.38 1214.32 228.812L1213.54 229.568C1212.9 228.904 1212.12 228.572 1211.17 228.572C1210.55 228.572 1209.98 228.712 1209.48 228.992C1208.98 229.272 1208.58 229.66 1208.29 230.156C1208.01 230.644 1207.87 231.192 1207.87 231.8C1207.87 232.408 1208.01 232.96 1208.29 233.456C1208.58 233.944 1208.98 234.328 1209.48 234.608C1209.98 234.888 1210.55 235.028 1211.17 235.028C1212.11 235.028 1212.9 234.692 1213.54 234.02L1214.32 234.776C1213.93 235.208 1213.46 235.536 1212.91 235.76C1212.37 235.984 1211.77 236.096 1211.11 236.096ZM1220.03 236.096C1219.19 236.096 1218.43 235.912 1217.75 235.544C1217.08 235.168 1216.55 234.656 1216.17 234.008C1215.78 233.352 1215.59 232.616 1215.59 231.8C1215.59 230.984 1215.78 230.252 1216.17 229.604C1216.55 228.948 1217.08 228.436 1217.76 228.068C1218.44 227.692 1219.2 227.504 1220.04 227.504C1220.7 227.504 1221.3 227.616 1221.84 227.84C1222.39 228.056 1222.85 228.38 1223.23 228.812L1222.45 229.568C1221.82 228.904 1221.03 228.572 1220.09 228.572C1219.47 228.572 1218.9 228.712 1218.4 228.992C1217.89 229.272 1217.5 229.66 1217.21 230.156C1216.93 230.644 1216.79 231.192 1216.79 231.8C1216.79 232.408 1216.93 232.96 1217.21 233.456C1217.5 233.944 1217.89 234.328 1218.4 234.608C1218.9 234.888 1219.47 235.028 1220.09 235.028C1221.03 235.028 1221.81 234.692 1222.45 234.02L1223.23 234.776C1222.85 235.208 1222.38 235.536 1221.83 235.76C1221.29 235.984 1220.69 236.096 1220.03 236.096ZM1225.37 227.6H1226.56V234.08L1231.52 227.6H1232.63V236H1231.45V229.532L1226.47 236H1225.37V227.6ZM1239.51 236.096C1238.66 236.096 1237.89 235.912 1237.21 235.544C1236.53 235.168 1236 234.652 1235.61 233.996C1235.22 233.34 1235.03 232.608 1235.03 231.8C1235.03 230.992 1235.22 230.26 1235.61 229.604C1236 228.948 1236.53 228.436 1237.21 228.068C1237.89 227.692 1238.66 227.504 1239.51 227.504C1240.35 227.504 1241.11 227.692 1241.79 228.068C1242.47 228.436 1243 228.948 1243.38 229.604C1243.77 230.252 1243.96 230.984 1243.96 231.8C1243.96 232.616 1243.77 233.352 1243.38 234.008C1243 234.656 1242.47 235.168 1241.79 235.544C1241.11 235.912 1240.35 236.096 1239.51 236.096ZM1239.51 235.028C1240.12 235.028 1240.67 234.888 1241.16 234.608C1241.66 234.328 1242.05 233.944 1242.33 233.456C1242.61 232.96 1242.76 232.408 1242.76 231.8C1242.76 231.192 1242.61 230.644 1242.33 230.156C1242.05 229.66 1241.66 229.272 1241.16 228.992C1240.67 228.712 1240.12 228.572 1239.51 228.572C1238.89 228.572 1238.33 228.712 1237.83 228.992C1237.33 229.272 1236.94 229.66 1236.65 230.156C1236.37 230.644 1236.23 231.192 1236.23 231.8C1236.23 232.408 1236.37 232.96 1236.65 233.456C1236.94 233.944 1237.33 234.328 1237.83 234.608C1238.33 234.888 1238.89 235.028 1239.51 235.028ZM1253.6 227.6V236H1252.4V232.256H1247.58V236H1246.38V227.6H1247.58V231.212H1252.4V227.6H1253.6ZM1262.16 233.9H1257.7L1256.77 236H1255.54L1259.34 227.6H1260.53L1264.35 236H1263.09L1262.16 233.9ZM1261.74 232.94L1259.93 228.824L1258.12 232.94H1261.74ZM1273.17 227.6V236H1272V228.644H1268.28L1268.19 231.104C1268.15 232.264 1268.06 233.204 1267.91 233.924C1267.76 234.644 1267.53 235.188 1267.21 235.556C1266.89 235.916 1266.46 236.096 1265.91 236.096C1265.67 236.096 1265.41 236.064 1265.16 236L1265.24 234.932C1265.37 234.964 1265.5 234.98 1265.63 234.98C1265.97 234.98 1266.25 234.844 1266.45 234.572C1266.66 234.292 1266.82 233.876 1266.92 233.324C1267.03 232.772 1267.09 232.044 1267.13 231.14L1267.26 227.6H1273.17ZM1279.96 230.528C1280.96 230.528 1281.72 230.752 1282.25 231.2C1282.78 231.648 1283.05 232.308 1283.05 233.18C1283.05 234.1 1282.76 234.8 1282.19 235.28C1281.62 235.76 1280.8 236 1279.74 236H1276.27V227.6H1277.46V230.528H1279.96ZM1279.69 235.052C1280.39 235.052 1280.92 234.896 1281.29 234.584C1281.66 234.264 1281.85 233.804 1281.85 233.204C1281.85 232.052 1281.13 231.476 1279.69 231.476H1277.46V235.052H1279.69ZM1292.53 227.6V236H1291.33V232.256H1286.51V236H1285.31V227.6H1286.51V231.212H1291.33V227.6H1292.53ZM1299.41 236.096C1298.56 236.096 1297.8 235.912 1297.12 235.544C1296.44 235.168 1295.9 234.652 1295.51 233.996C1295.13 233.34 1294.93 232.608 1294.93 231.8C1294.93 230.992 1295.13 230.26 1295.51 229.604C1295.9 228.948 1296.44 228.436 1297.12 228.068C1297.8 227.692 1298.56 227.504 1299.41 227.504C1300.25 227.504 1301.01 227.692 1301.69 228.068C1302.37 228.436 1302.9 228.948 1303.29 229.604C1303.67 230.252 1303.86 230.984 1303.86 231.8C1303.86 232.616 1303.67 233.352 1303.29 234.008C1302.9 234.656 1302.37 235.168 1301.69 235.544C1301.01 235.912 1300.25 236.096 1299.41 236.096ZM1299.41 235.028C1300.03 235.028 1300.58 234.888 1301.07 234.608C1301.56 234.328 1301.95 233.944 1302.23 233.456C1302.52 232.96 1302.66 232.408 1302.66 231.8C1302.66 231.192 1302.52 230.644 1302.23 230.156C1301.95 229.66 1301.56 229.272 1301.07 228.992C1300.58 228.712 1300.03 228.572 1299.41 228.572C1298.79 228.572 1298.23 228.712 1297.73 228.992C1297.23 229.272 1296.84 229.66 1296.55 230.156C1296.27 230.644 1296.13 231.192 1296.13 231.8C1296.13 232.408 1296.27 232.96 1296.55 233.456C1296.84 233.944 1297.23 234.328 1297.73 234.608C1298.23 234.888 1298.79 235.028 1299.41 235.028ZM1312.38 234.956V236H1306.28V227.6H1312.21V228.644H1307.48V231.224H1311.69V232.244H1307.48V234.956H1312.38ZM1161.09 260.096C1160.24 260.096 1159.48 259.912 1158.8 259.544C1158.12 259.168 1157.58 258.652 1157.19 257.996C1156.8 257.34 1156.61 256.608 1156.61 255.8C1156.61 254.992 1156.8 254.26 1157.19 253.604C1157.58 252.948 1158.12 252.436 1158.8 252.068C1159.48 251.692 1160.24 251.504 1161.09 251.504C1161.93 251.504 1162.69 251.692 1163.37 252.068C1164.05 252.436 1164.58 252.948 1164.96 253.604C1165.35 254.252 1165.54 254.984 1165.54 255.8C1165.54 256.616 1165.35 257.352 1164.96 258.008C1164.58 258.656 1164.05 259.168 1163.37 259.544C1162.69 259.912 1161.93 260.096 1161.09 260.096ZM1161.09 259.028C1161.7 259.028 1162.26 258.888 1162.74 258.608C1163.24 258.328 1163.63 257.944 1163.91 257.456C1164.2 256.96 1164.34 256.408 1164.34 255.8C1164.34 255.192 1164.2 254.644 1163.91 254.156C1163.63 253.66 1163.24 253.272 1162.74 252.992C1162.26 252.712 1161.7 252.572 1161.09 252.572C1160.47 252.572 1159.91 252.712 1159.41 252.992C1158.91 253.272 1158.52 253.66 1158.23 254.156C1157.95 254.644 1157.81 255.192 1157.81 255.8C1157.81 256.408 1157.95 256.96 1158.23 257.456C1158.52 257.944 1158.91 258.328 1159.41 258.608C1159.91 258.888 1160.47 259.028 1161.09 259.028ZM1171.72 260.096C1170.88 260.096 1170.12 259.912 1169.44 259.544C1168.76 259.168 1168.24 258.656 1167.85 258.008C1167.47 257.352 1167.28 256.616 1167.28 255.8C1167.28 254.984 1167.47 254.252 1167.85 253.604C1168.24 252.948 1168.77 252.436 1169.45 252.068C1170.13 251.692 1170.89 251.504 1171.73 251.504C1172.38 251.504 1172.98 251.616 1173.53 251.84C1174.07 252.056 1174.54 252.38 1174.92 252.812L1174.14 253.568C1173.51 252.904 1172.72 252.572 1171.78 252.572C1171.15 252.572 1170.59 252.712 1170.08 252.992C1169.58 253.272 1169.18 253.66 1168.9 254.156C1168.62 254.644 1168.48 255.192 1168.48 255.8C1168.48 256.408 1168.62 256.96 1168.9 257.456C1169.18 257.944 1169.58 258.328 1170.08 258.608C1170.59 258.888 1171.15 259.028 1171.78 259.028C1172.71 259.028 1173.5 258.692 1174.14 258.02L1174.92 258.776C1174.54 259.208 1174.07 259.536 1173.52 259.76C1172.97 259.984 1172.37 260.096 1171.72 260.096ZM1182.29 255.644C1182.85 255.78 1183.28 256.024 1183.57 256.376C1183.87 256.72 1184.01 257.164 1184.01 257.708C1184.01 258.436 1183.75 259 1183.21 259.4C1182.68 259.8 1181.91 260 1180.89 260H1177.05V251.6H1180.67C1181.59 251.6 1182.3 251.788 1182.81 252.164C1183.33 252.532 1183.59 253.064 1183.59 253.76C1183.59 254.216 1183.48 254.604 1183.25 254.924C1183.02 255.244 1182.7 255.484 1182.29 255.644ZM1178.24 255.296H1180.58C1181.17 255.296 1181.61 255.18 1181.91 254.948C1182.23 254.716 1182.38 254.376 1182.38 253.928C1182.38 253.48 1182.23 253.14 1181.91 252.908C1181.6 252.668 1181.16 252.548 1180.58 252.548H1178.24V255.296ZM1180.87 259.052C1182.16 259.052 1182.8 258.572 1182.8 257.612C1182.8 257.132 1182.64 256.78 1182.31 256.556C1181.99 256.324 1181.51 256.208 1180.87 256.208H1178.24V259.052H1180.87ZM1192.59 258.956V260H1186.5V251.6H1192.43V252.644H1187.7V255.224H1191.91V256.244H1187.7V258.956H1192.59ZM1205.48 251.6V260H1194.96V251.6H1196.15V258.956H1199.64V251.6H1200.81V258.956H1204.31V251.6H1205.48ZM1206.74 258.956V261.836H1205.64V260H1204.28V258.956H1206.74ZM1214.98 258.956V260H1208.88V251.6H1214.81V252.644H1210.08V255.224H1214.29V256.244H1210.08V258.956H1214.98ZM1224.56 251.6V260H1223.36V256.256H1218.54V260H1217.34V251.6H1218.54V255.212H1223.36V251.6H1224.56ZM1227.66 251.6H1228.85V258.08L1233.82 251.6H1234.92V260H1233.75V253.532L1228.77 260H1227.66V251.6ZM1244.12 258.956V260H1238.02V251.6H1243.95V252.644H1239.22V255.224H1243.43V256.244H1239.22V258.956H1244.12Z" fill="white"/>
<path id="&#208;&#156;&#208;&#181;&#209;&#129;&#209;&#130;&#208;&#176; &#208;&#180;&#208;&#187;&#209;&#143; &#208;&#177;&#208;&#190;&#208;&#187;&#208;&#181;&#208;&#187;&#209;&#140;&#209;&#137;&#208;&#184;&#208;&#186;&#208;&#190;&#208;&#178; &#208;&#189;&#208;&#176; &#208;&#177;&#208;&#176;&#208;&#187;&#208;&#186;&#208;&#190;&#208;&#189;&#208;&#181;" d="M1372.1 626L1372.08 619.88L1369.05 624.98H1368.5L1365.46 619.916V626H1364.31V617.6H1365.29L1368.8 623.504L1372.25 617.6H1373.24L1373.25 626H1372.1ZM1382.44 624.956V626H1376.34V617.6H1382.27V618.644H1377.54V621.224H1381.75V622.244H1377.54V624.956H1382.44ZM1388.52 626.096C1387.68 626.096 1386.92 625.912 1386.24 625.544C1385.57 625.168 1385.04 624.656 1384.66 624.008C1384.28 623.352 1384.08 622.616 1384.08 621.8C1384.08 620.984 1384.28 620.252 1384.66 619.604C1385.04 618.948 1385.58 618.436 1386.26 618.068C1386.94 617.692 1387.7 617.504 1388.54 617.504C1389.19 617.504 1389.79 617.616 1390.34 617.84C1390.88 618.056 1391.34 618.38 1391.73 618.812L1390.95 619.568C1390.32 618.904 1389.53 618.572 1388.58 618.572C1387.96 618.572 1387.4 618.712 1386.89 618.992C1386.39 619.272 1385.99 619.66 1385.7 620.156C1385.42 620.644 1385.28 621.192 1385.28 621.8C1385.28 622.408 1385.42 622.96 1385.7 623.456C1385.99 623.944 1386.39 624.328 1386.89 624.608C1387.4 624.888 1387.96 625.028 1388.58 625.028C1389.52 625.028 1390.31 624.692 1390.95 624.02L1391.73 624.776C1391.34 625.208 1390.88 625.536 1390.32 625.76C1389.78 625.984 1389.18 626.096 1388.52 626.096ZM1399.54 618.644H1396.66V626H1395.48V618.644H1392.62V617.6H1399.54V618.644ZM1406.52 623.9H1402.05L1401.13 626H1399.89L1403.7 617.6H1404.88L1408.7 626H1407.44L1406.52 623.9ZM1406.1 622.94L1404.28 618.824L1402.47 622.94H1406.1ZM1422.34 624.956V627.836H1421.22V626H1414.31L1414.3 627.836H1413.18L1413.19 624.956H1413.6C1414.13 624.924 1414.5 624.508 1414.72 623.708C1414.93 622.9 1415.06 621.764 1415.11 620.3L1415.2 617.6H1421.1V624.956H1422.34ZM1416.17 620.408C1416.13 621.592 1416.03 622.572 1415.88 623.348C1415.74 624.124 1415.5 624.66 1415.17 624.956H1419.91V618.644H1416.23L1416.17 620.408ZM1431.32 617.6V626H1430.15V618.644H1426.43L1426.34 621.104C1426.3 622.264 1426.21 623.204 1426.05 623.924C1425.91 624.644 1425.68 625.188 1425.36 625.556C1425.04 625.916 1424.61 626.096 1424.06 626.096C1423.81 626.096 1423.56 626.064 1423.31 626L1423.39 624.932C1423.52 624.964 1423.65 624.98 1423.77 624.98C1424.12 624.98 1424.39 624.844 1424.6 624.572C1424.81 624.292 1424.97 623.876 1425.07 623.324C1425.17 622.772 1425.24 622.044 1425.27 621.14L1425.41 617.6H1431.32ZM1440.57 617.6V626H1439.4V623.552H1437.08C1436.94 623.552 1436.83 623.548 1436.76 623.54L1435.08 626H1433.81L1435.67 623.336C1435.07 623.136 1434.61 622.804 1434.29 622.34C1433.97 621.868 1433.81 621.296 1433.81 620.624C1433.81 619.672 1434.11 618.932 1434.72 618.404C1435.33 617.868 1436.16 617.6 1437.2 617.6H1440.57ZM1435.02 620.612C1435.02 621.236 1435.2 621.716 1435.56 622.052C1435.93 622.38 1436.47 622.544 1437.18 622.544H1439.4V618.644H1437.25C1436.53 618.644 1435.98 618.812 1435.59 619.148C1435.21 619.484 1435.02 619.972 1435.02 620.612ZM1447.38 617.6H1453.71V618.62H1448.57V621.02H1451.18C1452.18 621.02 1452.94 621.228 1453.46 621.644C1453.98 622.06 1454.24 622.66 1454.24 623.444C1454.24 624.268 1453.96 624.9 1453.39 625.34C1452.83 625.78 1452.03 626 1450.98 626H1447.38V617.6ZM1450.93 625.052C1451.62 625.052 1452.14 624.92 1452.5 624.656C1452.86 624.392 1453.04 624.004 1453.04 623.492C1453.04 622.476 1452.34 621.968 1450.93 621.968H1448.57V625.052H1450.93ZM1460.41 626.096C1459.57 626.096 1458.8 625.912 1458.12 625.544C1457.44 625.168 1456.91 624.652 1456.51 623.996C1456.13 623.34 1455.94 622.608 1455.94 621.8C1455.94 620.992 1456.13 620.26 1456.51 619.604C1456.91 618.948 1457.44 618.436 1458.12 618.068C1458.8 617.692 1459.57 617.504 1460.41 617.504C1461.25 617.504 1462.01 617.692 1462.69 618.068C1463.37 618.436 1463.91 618.948 1464.29 619.604C1464.67 620.252 1464.87 620.984 1464.87 621.8C1464.87 622.616 1464.67 623.352 1464.29 624.008C1463.91 624.656 1463.37 625.168 1462.69 625.544C1462.01 625.912 1461.25 626.096 1460.41 626.096ZM1460.41 625.028C1461.03 625.028 1461.58 624.888 1462.07 624.608C1462.57 624.328 1462.95 623.944 1463.23 623.456C1463.52 622.96 1463.67 622.408 1463.67 621.8C1463.67 621.192 1463.52 620.644 1463.23 620.156C1462.95 619.66 1462.57 619.272 1462.07 618.992C1461.58 618.712 1461.03 618.572 1460.41 618.572C1459.8 618.572 1459.24 618.712 1458.73 618.992C1458.24 619.272 1457.85 619.66 1457.56 620.156C1457.28 620.644 1457.14 621.192 1457.14 621.8C1457.14 622.408 1457.28 622.96 1457.56 623.456C1457.85 623.944 1458.24 624.328 1458.73 624.608C1459.24 624.888 1459.8 625.028 1460.41 625.028ZM1473.92 617.6V626H1472.74V618.644H1469.02L1468.94 621.104C1468.9 622.264 1468.8 623.204 1468.65 623.924C1468.5 624.644 1468.27 625.188 1467.95 625.556C1467.63 625.916 1467.2 626.096 1466.66 626.096C1466.41 626.096 1466.16 626.064 1465.9 626L1465.98 624.932C1466.11 624.964 1466.24 624.98 1466.37 624.98C1466.71 624.98 1466.99 624.844 1467.2 624.572C1467.4 624.292 1467.56 623.876 1467.66 623.324C1467.77 622.772 1467.84 622.044 1467.87 621.14L1468 617.6H1473.92ZM1483.11 624.956V626H1477.01V617.6H1482.94V618.644H1478.21V621.224H1482.42V622.244H1478.21V624.956H1483.11ZM1492.34 617.6V626H1491.16V618.644H1487.44L1487.36 621.104C1487.32 622.264 1487.22 623.204 1487.07 623.924C1486.93 624.644 1486.69 625.188 1486.37 625.556C1486.05 625.916 1485.62 626.096 1485.08 626.096C1484.83 626.096 1484.58 626.064 1484.32 626L1484.41 624.932C1484.53 624.964 1484.66 624.98 1484.79 624.98C1485.13 624.98 1485.41 624.844 1485.62 624.572C1485.83 624.292 1485.98 623.876 1486.09 623.324C1486.19 622.772 1486.26 622.044 1486.29 621.14L1486.42 617.6H1492.34ZM1499.12 620.528C1500.12 620.528 1500.88 620.752 1501.41 621.2C1501.95 621.648 1502.21 622.308 1502.21 623.18C1502.21 624.1 1501.93 624.8 1501.35 625.28C1500.78 625.76 1499.97 626 1498.9 626H1495.43V617.6H1496.62V620.528H1499.12ZM1498.85 625.052C1499.55 625.052 1500.08 624.896 1500.45 624.584C1500.83 624.264 1501.01 623.804 1501.01 623.204C1501.01 622.052 1500.29 621.476 1498.85 621.476H1496.62V625.052H1498.85ZM1514.99 617.6V626H1504.47V617.6H1505.66V624.956H1509.15V617.6H1510.32V624.956H1513.82V617.6H1514.99ZM1516.25 624.956V627.836H1515.15V626H1513.79V624.956H1516.25ZM1518.39 617.6H1519.58V624.08L1524.55 617.6H1525.65V626H1524.47V619.532L1519.49 626H1518.39V617.6ZM1531.68 622.304H1529.92V626H1528.75V617.6H1529.92V621.248H1531.7L1534.34 617.6H1535.62L1532.62 621.668L1535.77 626H1534.4L1531.68 622.304ZM1541.24 626.096C1540.39 626.096 1539.62 625.912 1538.94 625.544C1538.26 625.168 1537.73 624.652 1537.34 623.996C1536.95 623.34 1536.76 622.608 1536.76 621.8C1536.76 620.992 1536.95 620.26 1537.34 619.604C1537.73 618.948 1538.26 618.436 1538.94 618.068C1539.62 617.692 1540.39 617.504 1541.24 617.504C1542.08 617.504 1542.84 617.692 1543.52 618.068C1544.2 618.436 1544.73 618.948 1545.11 619.604C1545.5 620.252 1545.69 620.984 1545.69 621.8C1545.69 622.616 1545.5 623.352 1545.11 624.008C1544.73 624.656 1544.2 625.168 1543.52 625.544C1542.84 625.912 1542.08 626.096 1541.24 626.096ZM1541.24 625.028C1541.85 625.028 1542.4 624.888 1542.89 624.608C1543.39 624.328 1543.78 623.944 1544.06 623.456C1544.34 622.96 1544.49 622.408 1544.49 621.8C1544.49 621.192 1544.34 620.644 1544.06 620.156C1543.78 619.66 1543.39 619.272 1542.89 618.992C1542.4 618.712 1541.85 618.572 1541.24 618.572C1540.62 618.572 1540.06 618.712 1539.56 618.992C1539.06 619.272 1538.67 619.66 1538.38 620.156C1538.1 620.644 1537.96 621.192 1537.96 621.8C1537.96 622.408 1538.1 622.96 1538.38 623.456C1538.67 623.944 1539.06 624.328 1539.56 624.608C1540.06 624.888 1540.62 625.028 1541.24 625.028ZM1553.34 621.644C1553.91 621.78 1554.34 622.024 1554.62 622.376C1554.92 622.72 1555.07 623.164 1555.07 623.708C1555.07 624.436 1554.8 625 1554.26 625.4C1553.74 625.8 1552.96 626 1551.95 626H1548.11V617.6H1551.72C1552.64 617.6 1553.36 617.788 1553.87 618.164C1554.39 618.532 1554.65 619.064 1554.65 619.76C1554.65 620.216 1554.53 620.604 1554.3 620.924C1554.08 621.244 1553.76 621.484 1553.34 621.644ZM1549.3 621.296H1551.64C1552.22 621.296 1552.66 621.18 1552.97 620.948C1553.28 620.716 1553.44 620.376 1553.44 619.928C1553.44 619.48 1553.28 619.14 1552.97 618.908C1552.66 618.668 1552.21 618.548 1551.64 618.548H1549.3V621.296ZM1551.92 625.052C1553.21 625.052 1553.86 624.572 1553.86 623.612C1553.86 623.132 1553.69 622.78 1553.36 622.556C1553.04 622.324 1552.56 622.208 1551.92 622.208H1549.3V625.052H1551.92ZM1371.53 641.6V650H1370.33V646.256H1365.51V650H1364.31V641.6H1365.51V645.212H1370.33V641.6H1371.53ZM1380.09 647.9H1375.63L1374.7 650H1373.47L1377.27 641.6H1378.46L1382.28 650H1381.02L1380.09 647.9ZM1379.67 646.94L1377.86 642.824L1376.05 646.94H1379.67ZM1387.91 641.6H1394.24V642.62H1389.1V645.02H1391.71C1392.71 645.02 1393.47 645.228 1393.99 645.644C1394.51 646.06 1394.77 646.66 1394.77 647.444C1394.77 648.268 1394.49 648.9 1393.92 649.34C1393.36 649.78 1392.56 650 1391.51 650H1387.91V641.6ZM1391.46 649.052C1392.15 649.052 1392.67 648.92 1393.03 648.656C1393.39 648.392 1393.57 648.004 1393.57 647.492C1393.57 646.476 1392.87 645.968 1391.46 645.968H1389.1V649.052H1391.46ZM1402.59 647.9H1398.13L1397.2 650H1395.97L1399.77 641.6H1400.96L1404.77 650H1403.51L1402.59 647.9ZM1402.17 646.94L1400.36 642.824L1398.55 646.94H1402.17ZM1413.6 641.6V650H1412.43V642.644H1408.71L1408.62 645.104C1408.58 646.264 1408.49 647.204 1408.34 647.924C1408.19 648.644 1407.96 649.188 1407.64 649.556C1407.32 649.916 1406.89 650.096 1406.34 650.096C1406.1 650.096 1405.84 650.064 1405.59 650L1405.67 648.932C1405.8 648.964 1405.93 648.98 1406.06 648.98C1406.4 648.98 1406.68 648.844 1406.88 648.572C1407.09 648.292 1407.25 647.876 1407.35 647.324C1407.46 646.772 1407.52 646.044 1407.56 645.14L1407.69 641.6H1413.6ZM1419.63 646.304H1417.88V650H1416.7V641.6H1417.88V645.248H1419.65L1422.29 641.6H1423.58L1420.58 645.668L1423.72 650H1422.35L1419.63 646.304ZM1429.19 650.096C1428.34 650.096 1427.57 649.912 1426.89 649.544C1426.21 649.168 1425.68 648.652 1425.29 647.996C1424.9 647.34 1424.71 646.608 1424.71 645.8C1424.71 644.992 1424.9 644.26 1425.29 643.604C1425.68 642.948 1426.21 642.436 1426.89 642.068C1427.57 641.692 1428.34 641.504 1429.19 641.504C1430.03 641.504 1430.79 641.692 1431.47 642.068C1432.15 642.436 1432.68 642.948 1433.06 643.604C1433.45 644.252 1433.64 644.984 1433.64 645.8C1433.64 646.616 1433.45 647.352 1433.06 648.008C1432.68 648.656 1432.15 649.168 1431.47 649.544C1430.79 649.912 1430.03 650.096 1429.19 650.096ZM1429.19 649.028C1429.8 649.028 1430.35 648.888 1430.84 648.608C1431.34 648.328 1431.73 647.944 1432.01 647.456C1432.29 646.96 1432.44 646.408 1432.44 645.8C1432.44 645.192 1432.29 644.644 1432.01 644.156C1431.73 643.66 1431.34 643.272 1430.84 642.992C1430.35 642.712 1429.8 642.572 1429.19 642.572C1428.57 642.572 1428.01 642.712 1427.51 642.992C1427.01 643.272 1426.62 643.66 1426.33 644.156C1426.05 644.644 1425.91 645.192 1425.91 645.8C1425.91 646.408 1426.05 646.96 1426.33 647.456C1426.62 647.944 1427.01 648.328 1427.51 648.608C1428.01 648.888 1428.57 649.028 1429.19 649.028ZM1443.28 641.6V650H1442.08V646.256H1437.26V650H1436.06V641.6H1437.26V645.212H1442.08V641.6H1443.28ZM1452.48 648.956V650H1446.38V641.6H1452.31V642.644H1447.58V645.224H1451.79V646.244H1447.58V648.956H1452.48Z" fill="white"/>
<path id="Vector_3" d="M271.499 571.578L289.5 582.039L289.5 602.963L271.499 613.422L253.5 602.963L253.5 582.039L271.499 571.578Z" stroke="#BEFF33"/>
<path id="Vector_4" d="M631.499 800.578L649.5 811.039L649.5 831.963L631.499 842.422L613.5 831.963L613.5 811.039L631.499 800.578Z" stroke="#BEFF33"/>
<path id="Vector_5" d="M1314.5 611.578L1332.5 622.039L1332.5 642.963L1314.5 653.422L1296.5 642.963L1296.5 622.039L1314.5 611.578Z" stroke="#BEFF33"/>
<path id="Vector_6" d="M274 594.5L274 591.5L271.5 590L269 591.5L269 594.5L271.5 596L274 594.5Z" fill="#BEFF33"/>
<path id="Vector_7" d="M634 823.5L634 820.5L631.5 819L629 820.5L629 823.5L631.5 825L634 823.5Z" fill="#BEFF33"/>
<path id="Vector_8" d="M1317 634.5L1317 631.5L1314.5 630L1312 631.5L1312 634.5L1314.5 636L1317 634.5Z" fill="#BEFF33"/>
<path id="&#208;&#159;&#209;&#128;&#208;&#190;&#209;&#132;&#208;&#181;&#209;&#129;&#209;&#129;&#208;&#184;&#208;&#190;&#208;&#189;&#208;&#176;&#208;&#187;&#209;&#140;&#208;&#189;&#208;&#190;&#208;&#181; &#209;&#129;&#208;&#190;&#208;&#178;&#209;&#128;&#208;&#181;&#208;&#188;&#208;&#181;&#208;&#189;&#208;&#189;&#208;&#190;&#208;&#181; &#208;&#191;&#208;&#190;&#208;&#186;&#209;&#128;&#209;&#139;&#209;&#130;&#208;&#184;&#208;&#181; &#209;&#129; &#208;&#190;&#209;&#130;&#208;&#187;&#208;&#184;&#209;&#135;&#208;&#189;&#208;&#190;&#208;&#185; &#208;&#176;&#208;&#188;&#208;&#190;&#209;&#128;&#209;&#130;&#208;&#184;&#208;&#183;&#208;&#176;&#209;&#134;&#208;&#184;&#208;&#181;&#208;&#185;" d="M330.544 563.6V572H329.368V564.644H324.496V572H323.308V563.6H330.544ZM336.919 563.6C338.007 563.6 338.863 563.86 339.487 564.38C340.111 564.9 340.423 565.616 340.423 566.528C340.423 567.44 340.111 568.156 339.487 568.676C338.863 569.196 338.007 569.456 336.919 569.456H334.843V572H333.643V563.6H336.919ZM336.883 568.412C337.643 568.412 338.223 568.252 338.623 567.932C339.023 567.604 339.223 567.136 339.223 566.528C339.223 565.92 339.023 565.456 338.623 565.136C338.223 564.808 337.643 564.644 336.883 564.644H334.843V568.412H336.883ZM346.47 572.096C345.622 572.096 344.858 571.912 344.178 571.544C343.498 571.168 342.962 570.652 342.57 569.996C342.186 569.34 341.994 568.608 341.994 567.8C341.994 566.992 342.186 566.26 342.57 565.604C342.962 564.948 343.498 564.436 344.178 564.068C344.858 563.692 345.622 563.504 346.47 563.504C347.31 563.504 348.07 563.692 348.75 564.068C349.43 564.436 349.962 564.948 350.346 565.604C350.73 566.252 350.922 566.984 350.922 567.8C350.922 568.616 350.73 569.352 350.346 570.008C349.962 570.656 349.43 571.168 348.75 571.544C348.07 571.912 347.31 572.096 346.47 572.096ZM346.47 571.028C347.086 571.028 347.638 570.888 348.126 570.608C348.622 570.328 349.01 569.944 349.29 569.456C349.578 568.96 349.722 568.408 349.722 567.8C349.722 567.192 349.578 566.644 349.29 566.156C349.01 565.66 348.622 565.272 348.126 564.992C347.638 564.712 347.086 564.572 346.47 564.572C345.854 564.572 345.294 564.712 344.79 564.992C344.294 565.272 343.902 565.66 343.614 566.156C343.334 566.644 343.194 567.192 343.194 567.8C343.194 568.408 343.334 568.96 343.614 569.456C343.902 569.944 344.294 570.328 344.79 570.608C345.294 570.888 345.854 571.028 346.47 571.028ZM362.606 567.788C362.606 568.9 362.218 569.772 361.442 570.404C360.666 571.036 359.57 571.376 358.154 571.424V572.312H357.038V571.424C355.622 571.368 354.522 571.024 353.738 570.392C352.962 569.76 352.574 568.892 352.574 567.788C352.574 566.676 352.962 565.804 353.738 565.172C354.522 564.54 355.622 564.196 357.038 564.14V563.288H358.154V564.14C359.562 564.196 360.654 564.544 361.43 565.184C362.214 565.816 362.606 566.684 362.606 567.788ZM358.154 570.488C359.226 570.424 360.042 570.164 360.602 569.708C361.17 569.244 361.454 568.6 361.454 567.776C361.454 566.968 361.166 566.336 360.59 565.88C360.022 565.416 359.21 565.152 358.154 565.088V570.488ZM353.738 567.788C353.738 568.604 354.022 569.244 354.59 569.708C355.166 570.164 355.982 570.424 357.038 570.488V565.088C355.966 565.152 355.146 565.412 354.578 565.868C354.018 566.324 353.738 566.964 353.738 567.788ZM371.027 570.956V572H364.931V563.6H370.859V564.644H366.131V567.224H370.343V568.244H366.131V570.956H371.027ZM377.112 572.096C376.272 572.096 375.512 571.912 374.832 571.544C374.16 571.168 373.632 570.656 373.248 570.008C372.864 569.352 372.672 568.616 372.672 567.8C372.672 566.984 372.864 566.252 373.248 565.604C373.632 564.948 374.164 564.436 374.844 564.068C375.524 563.692 376.284 563.504 377.124 563.504C377.78 563.504 378.38 563.616 378.924 563.84C379.468 564.056 379.932 564.38 380.316 564.812L379.536 565.568C378.904 564.904 378.116 564.572 377.172 564.572C376.548 564.572 375.984 564.712 375.48 564.992C374.976 565.272 374.58 565.66 374.292 566.156C374.012 566.644 373.872 567.192 373.872 567.8C373.872 568.408 374.012 568.96 374.292 569.456C374.58 569.944 374.976 570.328 375.48 570.608C375.984 570.888 376.548 571.028 377.172 571.028C378.108 571.028 378.896 570.692 379.536 570.02L380.316 570.776C379.932 571.208 379.464 571.536 378.912 571.76C378.368 571.984 377.768 572.096 377.112 572.096ZM386.03 572.096C385.19 572.096 384.43 571.912 383.75 571.544C383.078 571.168 382.55 570.656 382.166 570.008C381.782 569.352 381.59 568.616 381.59 567.8C381.59 566.984 381.782 566.252 382.166 565.604C382.55 564.948 383.082 564.436 383.762 564.068C384.442 563.692 385.202 563.504 386.042 563.504C386.698 563.504 387.298 563.616 387.842 563.84C388.386 564.056 388.85 564.38 389.234 564.812L388.454 565.568C387.822 564.904 387.034 564.572 386.09 564.572C385.466 564.572 384.902 564.712 384.398 564.992C383.894 565.272 383.498 565.66 383.21 566.156C382.93 566.644 382.79 567.192 382.79 567.8C382.79 568.408 382.93 568.96 383.21 569.456C383.498 569.944 383.894 570.328 384.398 570.608C384.902 570.888 385.466 571.028 386.09 571.028C387.026 571.028 387.814 570.692 388.454 570.02L389.234 570.776C388.85 571.208 388.382 571.536 387.83 571.76C387.286 571.984 386.686 572.096 386.03 572.096ZM391.367 563.6H392.555V570.08L397.523 563.6H398.627V572H397.451V565.532L392.471 572H391.367V563.6ZM405.506 572.096C404.658 572.096 403.894 571.912 403.214 571.544C402.534 571.168 401.998 570.652 401.606 569.996C401.222 569.34 401.03 568.608 401.03 567.8C401.03 566.992 401.222 566.26 401.606 565.604C401.998 564.948 402.534 564.436 403.214 564.068C403.894 563.692 404.658 563.504 405.506 563.504C406.346 563.504 407.106 563.692 407.786 564.068C408.466 564.436 408.998 564.948 409.382 565.604C409.766 566.252 409.958 566.984 409.958 567.8C409.958 568.616 409.766 569.352 409.382 570.008C408.998 570.656 408.466 571.168 407.786 571.544C407.106 571.912 406.346 572.096 405.506 572.096ZM405.506 571.028C406.122 571.028 406.674 570.888 407.162 570.608C407.658 570.328 408.046 569.944 408.326 569.456C408.614 568.96 408.758 568.408 408.758 567.8C408.758 567.192 408.614 566.644 408.326 566.156C408.046 565.66 407.658 565.272 407.162 564.992C406.674 564.712 406.122 564.572 405.506 564.572C404.89 564.572 404.33 564.712 403.826 564.992C403.33 565.272 402.938 565.66 402.65 566.156C402.37 566.644 402.23 567.192 402.23 567.8C402.23 568.408 402.37 568.96 402.65 569.456C402.938 569.944 403.33 570.328 403.826 570.608C404.33 570.888 404.89 571.028 405.506 571.028ZM419.602 563.6V572H418.402V568.256H413.578V572H412.378V563.6H413.578V567.212H418.402V563.6H419.602ZM428.162 569.9H423.698L422.774 572H421.538L425.342 563.6H426.53L430.346 572H429.086L428.162 569.9ZM427.742 568.94L425.93 564.824L424.118 568.94H427.742ZM439.175 563.6V572H437.999V564.644H434.279L434.195 567.104C434.155 568.264 434.059 569.204 433.907 569.924C433.763 570.644 433.531 571.188 433.211 571.556C432.891 571.916 432.459 572.096 431.915 572.096C431.667 572.096 431.415 572.064 431.159 572L431.243 570.932C431.371 570.964 431.499 570.98 431.627 570.98C431.971 570.98 432.247 570.844 432.455 570.572C432.663 570.292 432.819 569.876 432.923 569.324C433.027 568.772 433.095 568.044 433.127 567.14L433.259 563.6H439.175ZM445.955 566.528C446.955 566.528 447.719 566.752 448.247 567.2C448.783 567.648 449.051 568.308 449.051 569.18C449.051 570.1 448.763 570.8 448.187 571.28C447.619 571.76 446.803 572 445.739 572H442.271V563.6H443.459V566.528H445.955ZM445.691 571.052C446.387 571.052 446.919 570.896 447.287 570.584C447.663 570.264 447.851 569.804 447.851 569.204C447.851 568.052 447.131 567.476 445.691 567.476H443.459V571.052H445.691ZM458.53 563.6V572H457.33V568.256H452.506V572H451.306V563.6H452.506V567.212H457.33V563.6H458.53ZM465.41 572.096C464.562 572.096 463.798 571.912 463.118 571.544C462.438 571.168 461.902 570.652 461.51 569.996C461.126 569.34 460.934 568.608 460.934 567.8C460.934 566.992 461.126 566.26 461.51 565.604C461.902 564.948 462.438 564.436 463.118 564.068C463.798 563.692 464.562 563.504 465.41 563.504C466.25 563.504 467.01 563.692 467.69 564.068C468.37 564.436 468.902 564.948 469.286 565.604C469.67 566.252 469.862 566.984 469.862 567.8C469.862 568.616 469.67 569.352 469.286 570.008C468.902 570.656 468.37 571.168 467.69 571.544C467.01 571.912 466.25 572.096 465.41 572.096ZM465.41 571.028C466.026 571.028 466.578 570.888 467.066 570.608C467.562 570.328 467.95 569.944 468.23 569.456C468.518 568.96 468.662 568.408 468.662 567.8C468.662 567.192 468.518 566.644 468.23 566.156C467.95 565.66 467.562 565.272 467.066 564.992C466.578 564.712 466.026 564.572 465.41 564.572C464.794 564.572 464.234 564.712 463.73 564.992C463.234 565.272 462.842 565.66 462.554 566.156C462.274 566.644 462.134 567.192 462.134 567.8C462.134 568.408 462.274 568.96 462.554 569.456C462.842 569.944 463.234 570.328 463.73 570.608C464.234 570.888 464.794 571.028 465.41 571.028ZM478.377 570.956V572H472.281V563.6H478.209V564.644H473.481V567.224H477.693V568.244H473.481V570.956H478.377ZM327.064 596.096C326.224 596.096 325.464 595.912 324.784 595.544C324.112 595.168 323.584 594.656 323.2 594.008C322.816 593.352 322.624 592.616 322.624 591.8C322.624 590.984 322.816 590.252 323.2 589.604C323.584 588.948 324.116 588.436 324.796 588.068C325.476 587.692 326.236 587.504 327.076 587.504C327.732 587.504 328.332 587.616 328.876 587.84C329.42 588.056 329.884 588.38 330.268 588.812L329.488 589.568C328.856 588.904 328.068 588.572 327.124 588.572C326.5 588.572 325.936 588.712 325.432 588.992C324.928 589.272 324.532 589.66 324.244 590.156C323.964 590.644 323.824 591.192 323.824 591.8C323.824 592.408 323.964 592.96 324.244 593.456C324.532 593.944 324.928 594.328 325.432 594.608C325.936 594.888 326.5 595.028 327.124 595.028C328.06 595.028 328.848 594.692 329.488 594.02L330.268 594.776C329.884 595.208 329.416 595.536 328.864 595.76C328.32 595.984 327.72 596.096 327.064 596.096ZM336.005 596.096C335.157 596.096 334.393 595.912 333.713 595.544C333.033 595.168 332.497 594.652 332.105 593.996C331.721 593.34 331.529 592.608 331.529 591.8C331.529 590.992 331.721 590.26 332.105 589.604C332.497 588.948 333.033 588.436 333.713 588.068C334.393 587.692 335.157 587.504 336.005 587.504C336.845 587.504 337.605 587.692 338.285 588.068C338.966 588.436 339.498 588.948 339.882 589.604C340.265 590.252 340.457 590.984 340.457 591.8C340.457 592.616 340.265 593.352 339.882 594.008C339.498 594.656 338.966 595.168 338.285 595.544C337.605 595.912 336.845 596.096 336.005 596.096ZM336.005 595.028C336.622 595.028 337.174 594.888 337.661 594.608C338.157 594.328 338.545 593.944 338.826 593.456C339.114 592.96 339.258 592.408 339.258 591.8C339.258 591.192 339.114 590.644 338.826 590.156C338.545 589.66 338.157 589.272 337.661 588.992C337.174 588.712 336.622 588.572 336.005 588.572C335.389 588.572 334.829 588.712 334.325 588.992C333.829 589.272 333.437 589.66 333.149 590.156C332.869 590.644 332.729 591.192 332.729 591.8C332.729 592.408 332.869 592.96 333.149 593.456C333.437 593.944 333.829 594.328 334.325 594.608C334.829 594.888 335.389 595.028 336.005 595.028ZM348.109 591.644C348.677 591.78 349.105 592.024 349.393 592.376C349.689 592.72 349.837 593.164 349.837 593.708C349.837 594.436 349.569 595 349.033 595.4C348.505 595.8 347.733 596 346.717 596H342.877V587.6H346.489C347.409 587.6 348.125 587.788 348.637 588.164C349.157 588.532 349.417 589.064 349.417 589.76C349.417 590.216 349.301 590.604 349.069 590.924C348.845 591.244 348.525 591.484 348.109 591.644ZM344.065 591.296H346.405C346.989 591.296 347.433 591.18 347.737 590.948C348.049 590.716 348.205 590.376 348.205 589.928C348.205 589.48 348.049 589.14 347.737 588.908C347.425 588.668 346.981 588.548 346.405 588.548H344.065V591.296ZM346.693 595.052C347.981 595.052 348.625 594.572 348.625 593.612C348.625 593.132 348.461 592.78 348.133 592.556C347.813 592.324 347.333 592.208 346.693 592.208H344.065V595.052H346.693ZM355.598 587.6C356.686 587.6 357.542 587.86 358.166 588.38C358.79 588.9 359.102 589.616 359.102 590.528C359.102 591.44 358.79 592.156 358.166 592.676C357.542 593.196 356.686 593.456 355.598 593.456H353.522V596H352.322V587.6H355.598ZM355.562 592.412C356.322 592.412 356.902 592.252 357.302 591.932C357.702 591.604 357.902 591.136 357.902 590.528C357.902 589.92 357.702 589.456 357.302 589.136C356.902 588.808 356.322 588.644 355.562 588.644H353.522V592.412H355.562ZM367.347 594.956V596H361.251V587.6H367.179V588.644H362.451V591.224H366.663V592.244H362.451V594.956H367.347ZM377.5 596L377.488 589.88L374.452 594.98H373.9L370.864 589.916V596H369.712V587.6H370.696L374.2 593.504L377.656 587.6H378.64L378.652 596H377.5ZM387.843 594.956V596H381.747V587.6H387.675V588.644H382.947V591.224H387.159V592.244H382.947V594.956H387.843ZM397.431 587.6V596H396.231V592.256H391.407V596H390.207V587.6H391.407V591.212H396.231V587.6H397.431ZM407.755 587.6V596H406.555V592.256H401.731V596H400.531V587.6H401.731V591.212H406.555V587.6H407.755ZM414.635 596.096C413.787 596.096 413.023 595.912 412.343 595.544C411.663 595.168 411.127 594.652 410.735 593.996C410.351 593.34 410.159 592.608 410.159 591.8C410.159 590.992 410.351 590.26 410.735 589.604C411.127 588.948 411.663 588.436 412.343 588.068C413.023 587.692 413.787 587.504 414.635 587.504C415.475 587.504 416.235 587.692 416.915 588.068C417.595 588.436 418.127 588.948 418.511 589.604C418.895 590.252 419.087 590.984 419.087 591.8C419.087 592.616 418.895 593.352 418.511 594.008C418.127 594.656 417.595 595.168 416.915 595.544C416.235 595.912 415.475 596.096 414.635 596.096ZM414.635 595.028C415.251 595.028 415.803 594.888 416.291 594.608C416.787 594.328 417.175 593.944 417.455 593.456C417.743 592.96 417.887 592.408 417.887 591.8C417.887 591.192 417.743 590.644 417.455 590.156C417.175 589.66 416.787 589.272 416.291 588.992C415.803 588.712 415.251 588.572 414.635 588.572C414.019 588.572 413.459 588.712 412.955 588.992C412.459 589.272 412.067 589.66 411.779 590.156C411.499 590.644 411.359 591.192 411.359 591.8C411.359 592.408 411.499 592.96 411.779 593.456C412.067 593.944 412.459 594.328 412.955 594.608C413.459 594.888 414.019 595.028 414.635 595.028ZM427.602 594.956V596H421.506V587.6H427.434V588.644H422.706V591.224H426.918V592.244H422.706V594.956H427.602ZM440.906 587.6V596H439.73V588.644H434.858V596H433.67V587.6H440.906ZM447.785 596.096C446.937 596.096 446.173 595.912 445.493 595.544C444.813 595.168 444.277 594.652 443.885 593.996C443.501 593.34 443.309 592.608 443.309 591.8C443.309 590.992 443.501 590.26 443.885 589.604C444.277 588.948 444.813 588.436 445.493 588.068C446.173 587.692 446.937 587.504 447.785 587.504C448.625 587.504 449.385 587.692 450.065 588.068C450.745 588.436 451.277 588.948 451.661 589.604C452.045 590.252 452.237 590.984 452.237 591.8C452.237 592.616 452.045 593.352 451.661 594.008C451.277 594.656 450.745 595.168 450.065 595.544C449.385 595.912 448.625 596.096 447.785 596.096ZM447.785 595.028C448.401 595.028 448.953 594.888 449.441 594.608C449.937 594.328 450.325 593.944 450.605 593.456C450.893 592.96 451.037 592.408 451.037 591.8C451.037 591.192 450.893 590.644 450.605 590.156C450.325 589.66 449.937 589.272 449.441 588.992C448.953 588.712 448.401 588.572 447.785 588.572C447.169 588.572 446.609 588.712 446.105 588.992C445.609 589.272 445.217 589.66 444.929 590.156C444.649 590.644 444.509 591.192 444.509 591.8C444.509 592.408 444.649 592.96 444.929 593.456C445.217 593.944 445.609 594.328 446.105 594.608C446.609 594.888 447.169 595.028 447.785 595.028ZM457.585 592.304H455.833V596H454.657V587.6H455.833V591.248H457.609L460.249 587.6H461.533L458.533 591.668L461.677 596H460.309L457.585 592.304ZM466.663 587.6C467.751 587.6 468.607 587.86 469.231 588.38C469.855 588.9 470.167 589.616 470.167 590.528C470.167 591.44 469.855 592.156 469.231 592.676C468.607 593.196 467.751 593.456 466.663 593.456H464.587V596H463.387V587.6H466.663ZM466.627 592.412C467.387 592.412 467.967 592.252 468.367 591.932C468.767 591.604 468.967 591.136 468.967 590.528C468.967 589.92 468.767 589.456 468.367 589.136C467.967 588.808 467.387 588.644 466.627 588.644H464.587V592.412H466.627ZM476 590.528C477 590.528 477.764 590.752 478.292 591.2C478.828 591.648 479.096 592.308 479.096 593.18C479.096 594.1 478.808 594.8 478.232 595.28C477.664 595.76 476.848 596 475.784 596H472.316V587.6H473.504V590.528H476ZM475.736 595.052C476.432 595.052 476.964 594.896 477.332 594.584C477.708 594.264 477.896 593.804 477.896 593.204C477.896 592.052 477.176 591.476 475.736 591.476H473.504V595.052H475.736ZM480.428 587.6H481.616V596H480.428V587.6ZM490.486 588.644H487.606V596H486.43V588.644H483.562V587.6H490.486V588.644ZM492.425 587.6H493.613V594.08L498.581 587.6H499.685V596H498.509V589.532L493.529 596H492.425V587.6ZM508.879 594.956V596H502.783V587.6H508.711V588.644H503.983V591.224H508.195V592.244H503.983V594.956H508.879ZM518.703 596.096C517.863 596.096 517.103 595.912 516.423 595.544C515.751 595.168 515.223 594.656 514.839 594.008C514.455 593.352 514.263 592.616 514.263 591.8C514.263 590.984 514.455 590.252 514.839 589.604C515.223 588.948 515.755 588.436 516.435 588.068C517.115 587.692 517.875 587.504 518.715 587.504C519.371 587.504 519.971 587.616 520.515 587.84C521.059 588.056 521.523 588.38 521.907 588.812L521.127 589.568C520.495 588.904 519.707 588.572 518.763 588.572C518.139 588.572 517.575 588.712 517.071 588.992C516.567 589.272 516.171 589.66 515.883 590.156C515.603 590.644 515.463 591.192 515.463 591.8C515.463 592.408 515.603 592.96 515.883 593.456C516.171 593.944 516.567 594.328 517.071 594.608C517.575 594.888 518.139 595.028 518.763 595.028C519.699 595.028 520.487 594.692 521.127 594.02L521.907 594.776C521.523 595.208 521.055 595.536 520.503 595.76C519.959 595.984 519.359 596.096 518.703 596.096ZM327.088 620.096C326.24 620.096 325.476 619.912 324.796 619.544C324.116 619.168 323.58 618.652 323.188 617.996C322.804 617.34 322.612 616.608 322.612 615.8C322.612 614.992 322.804 614.26 323.188 613.604C323.58 612.948 324.116 612.436 324.796 612.068C325.476 611.692 326.24 611.504 327.088 611.504C327.928 611.504 328.688 611.692 329.368 612.068C330.048 612.436 330.58 612.948 330.964 613.604C331.348 614.252 331.54 614.984 331.54 615.8C331.54 616.616 331.348 617.352 330.964 618.008C330.58 618.656 330.048 619.168 329.368 619.544C328.688 619.912 327.928 620.096 327.088 620.096ZM327.088 619.028C327.704 619.028 328.256 618.888 328.744 618.608C329.24 618.328 329.628 617.944 329.908 617.456C330.196 616.96 330.34 616.408 330.34 615.8C330.34 615.192 330.196 614.644 329.908 614.156C329.628 613.66 329.24 613.272 328.744 612.992C328.256 612.712 327.704 612.572 327.088 612.572C326.472 612.572 325.912 612.712 325.408 612.992C324.912 613.272 324.52 613.66 324.232 614.156C323.952 614.644 323.812 615.192 323.812 615.8C323.812 616.408 323.952 616.96 324.232 617.456C324.52 617.944 324.912 618.328 325.408 618.608C325.912 618.888 326.472 619.028 327.088 619.028ZM339.615 612.644H336.735V620H335.559V612.644H332.691V611.6H339.615V612.644ZM347.972 611.6V620H346.796V612.644H343.076L342.992 615.104C342.952 616.264 342.856 617.204 342.704 617.924C342.56 618.644 342.328 619.188 342.008 619.556C341.688 619.916 341.256 620.096 340.712 620.096C340.464 620.096 340.212 620.064 339.956 620L340.04 618.932C340.168 618.964 340.296 618.98 340.424 618.98C340.768 618.98 341.044 618.844 341.252 618.572C341.46 618.292 341.616 617.876 341.72 617.324C341.824 616.772 341.892 616.044 341.924 615.14L342.056 611.6H347.972ZM351.068 611.6H352.256V618.08L357.224 611.6H358.328V620H357.152V613.532L352.172 620H351.068V611.6ZM367.409 611.6V620H366.221V616.676C365.333 617.02 364.513 617.192 363.761 617.192C362.737 617.192 361.941 616.944 361.373 616.448C360.813 615.952 360.533 615.244 360.533 614.324V611.6H361.709V614.192C361.709 614.816 361.897 615.296 362.273 615.632C362.657 615.968 363.197 616.136 363.893 616.136C364.669 616.136 365.445 615.96 366.221 615.608V611.6H367.409ZM377.733 611.6V620H376.533V616.256H371.709V620H370.509V611.6H371.709V615.212H376.533V611.6H377.733ZM384.613 620.096C383.765 620.096 383.001 619.912 382.321 619.544C381.641 619.168 381.105 618.652 380.713 617.996C380.329 617.34 380.137 616.608 380.137 615.8C380.137 614.992 380.329 614.26 380.713 613.604C381.105 612.948 381.641 612.436 382.321 612.068C383.001 611.692 383.765 611.504 384.613 611.504C385.453 611.504 386.213 611.692 386.893 612.068C387.573 612.436 388.105 612.948 388.489 613.604C388.873 614.252 389.065 614.984 389.065 615.8C389.065 616.616 388.873 617.352 388.489 618.008C388.105 618.656 387.573 619.168 386.893 619.544C386.213 619.912 385.453 620.096 384.613 620.096ZM384.613 619.028C385.229 619.028 385.781 618.888 386.269 618.608C386.765 618.328 387.153 617.944 387.433 617.456C387.721 616.96 387.865 616.408 387.865 615.8C387.865 615.192 387.721 614.644 387.433 614.156C387.153 613.66 386.765 613.272 386.269 612.992C385.781 612.712 385.229 612.572 384.613 612.572C383.997 612.572 383.437 612.712 382.933 612.992C382.437 613.272 382.045 613.66 381.757 614.156C381.477 614.644 381.337 615.192 381.337 615.8C381.337 616.408 381.477 616.96 381.757 617.456C382.045 617.944 382.437 618.328 382.933 618.608C383.437 618.888 383.997 619.028 384.613 619.028ZM391.484 611.6H392.672V618.08L397.64 611.6H398.744V620H397.568V613.532L392.588 620H391.484V611.6ZM395.096 611.012C394.44 611.012 393.932 610.872 393.572 610.592C393.22 610.304 393.04 609.896 393.032 609.368H393.884C393.892 609.68 394 609.924 394.208 610.1C394.424 610.268 394.72 610.352 395.096 610.352C395.456 610.352 395.744 610.268 395.96 610.1C396.184 609.924 396.3 609.68 396.308 609.368H397.148C397.14 609.888 396.956 610.292 396.596 610.58C396.244 610.868 395.744 611.012 395.096 611.012ZM411.006 617.9H406.542L405.618 620H404.382L408.186 611.6H409.374L413.19 620H411.93L411.006 617.9ZM410.586 616.94L408.774 612.824L406.962 616.94H410.586ZM422.908 620L422.896 613.88L419.86 618.98H419.308L416.272 613.916V620H415.12V611.6H416.104L419.608 617.504L423.064 611.6H424.048L424.06 620H422.908ZM430.934 620.096C430.086 620.096 429.322 619.912 428.642 619.544C427.962 619.168 427.426 618.652 427.034 617.996C426.65 617.34 426.458 616.608 426.458 615.8C426.458 614.992 426.65 614.26 427.034 613.604C427.426 612.948 427.962 612.436 428.642 612.068C429.322 611.692 430.086 611.504 430.934 611.504C431.774 611.504 432.534 611.692 433.214 612.068C433.894 612.436 434.426 612.948 434.81 613.604C435.194 614.252 435.386 614.984 435.386 615.8C435.386 616.616 435.194 617.352 434.81 618.008C434.426 618.656 433.894 619.168 433.214 619.544C432.534 619.912 431.774 620.096 430.934 620.096ZM430.934 619.028C431.55 619.028 432.102 618.888 432.59 618.608C433.086 618.328 433.474 617.944 433.754 617.456C434.042 616.96 434.186 616.408 434.186 615.8C434.186 615.192 434.042 614.644 433.754 614.156C433.474 613.66 433.086 613.272 432.59 612.992C432.102 612.712 431.55 612.572 430.934 612.572C430.318 612.572 429.758 612.712 429.254 612.992C428.758 613.272 428.366 613.66 428.078 614.156C427.798 614.644 427.658 615.192 427.658 615.8C427.658 616.408 427.798 616.96 428.078 617.456C428.366 617.944 428.758 618.328 429.254 618.608C429.758 618.888 430.318 619.028 430.934 619.028ZM441.082 611.6C442.17 611.6 443.026 611.86 443.65 612.38C444.274 612.9 444.586 613.616 444.586 614.528C444.586 615.44 444.274 616.156 443.65 616.676C443.026 617.196 442.17 617.456 441.082 617.456H439.006V620H437.806V611.6H441.082ZM441.046 616.412C441.806 616.412 442.386 616.252 442.786 615.932C443.186 615.604 443.386 615.136 443.386 614.528C443.386 613.92 443.186 613.456 442.786 613.136C442.386 612.808 441.806 612.644 441.046 612.644H439.006V616.412H441.046ZM452.238 612.644H449.358V620H448.182V612.644H445.314V611.6H452.238V612.644ZM454.176 611.6H455.364V618.08L460.332 611.6H461.436V620H460.26V613.532L455.28 620H454.176V611.6ZM468.555 615.62C469.083 615.764 469.495 616.016 469.791 616.376C470.087 616.728 470.235 617.152 470.235 617.648C470.235 618.144 470.075 618.58 469.755 618.956C469.443 619.324 469.023 619.608 468.495 619.808C467.975 620 467.407 620.096 466.791 620.096C466.231 620.096 465.675 620.012 465.123 619.844C464.571 619.676 464.067 619.424 463.611 619.088L464.031 618.2C464.399 618.488 464.811 618.704 465.267 618.848C465.723 618.992 466.183 619.064 466.647 619.064C467.319 619.064 467.883 618.924 468.339 618.644C468.795 618.356 469.023 617.964 469.023 617.468C469.023 617.044 468.851 616.72 468.507 616.496C468.163 616.264 467.679 616.148 467.055 616.148H465.183V615.176H466.971C467.507 615.176 467.923 615.068 468.219 614.852C468.523 614.628 468.675 614.32 468.675 613.928C468.675 613.488 468.479 613.14 468.087 612.884C467.695 612.628 467.199 612.5 466.599 612.5C466.207 612.5 465.807 612.556 465.399 612.668C464.999 612.78 464.619 612.948 464.259 613.172L463.875 612.188C464.299 611.948 464.747 611.768 465.219 611.648C465.691 611.528 466.163 611.468 466.635 611.468C467.227 611.468 467.771 611.56 468.267 611.744C468.763 611.928 469.155 612.196 469.443 612.548C469.739 612.9 469.887 613.312 469.887 613.784C469.887 614.208 469.767 614.58 469.527 614.9C469.295 615.22 468.971 615.46 468.555 615.62ZM478.175 617.9H473.711L472.787 620H471.551L475.355 611.6H476.543L480.359 620H479.099L478.175 617.9ZM477.755 616.94L475.943 612.824L474.131 616.94H477.755ZM490.64 618.956V621.908H489.524V620H482.288V611.6H483.476V618.956H488.156V611.6H489.344V618.956H490.64ZM492.718 611.6H493.906V618.08L498.874 611.6H499.978V620H498.802V613.532L493.822 620H492.718V611.6ZM509.172 618.956V620H503.076V611.6H509.004V612.644H504.276V615.224H508.488V616.244H504.276V618.956H509.172ZM511.537 611.6H512.725V618.08L517.693 611.6H518.797V620H517.621V613.532L512.641 620H511.537V611.6ZM515.149 611.012C514.493 611.012 513.985 610.872 513.625 610.592C513.273 610.304 513.093 609.896 513.085 609.368H513.937C513.945 609.68 514.053 609.924 514.261 610.1C514.477 610.268 514.773 610.352 515.149 610.352C515.509 610.352 515.797 610.268 516.013 610.1C516.237 609.924 516.353 609.68 516.361 609.368H517.201C517.193 609.888 517.009 610.292 516.649 610.58C516.297 610.868 515.797 611.012 515.149 611.012Z" fill="white"/>
<path id="&#208;&#157;&#208;&#176;&#209;&#130;&#209;&#143;&#208;&#189;&#209;&#131;&#209;&#130;&#208;&#176;&#209;&#143; &#209;&#129;&#208;&#181;&#209;&#130;&#208;&#186;&#208;&#176; &#209;&#129; &#208;&#176;&#208;&#189;&#209;&#130;&#208;&#181;&#208;&#189;&#208;&#189;&#208;&#176;&#208;&#188;&#208;&#184;" d="M690.532 806.6V815H689.332V811.256H684.508V815H683.308V806.6H684.508V810.212H689.332V806.6H690.532ZM699.092 812.9H694.628L693.704 815H692.468L696.272 806.6H697.46L701.276 815H700.016L699.092 812.9ZM698.672 811.94L696.86 807.824L695.048 811.94H698.672ZM708.556 807.644H705.676V815H704.5V807.644H701.632V806.6H708.556V807.644ZM716.287 806.6V815H715.111V812.552H712.795C712.651 812.552 712.543 812.548 712.471 812.54L710.791 815H709.519L711.379 812.336C710.779 812.136 710.319 811.804 709.999 811.34C709.679 810.868 709.519 810.296 709.519 809.624C709.519 808.672 709.823 807.932 710.431 807.404C711.047 806.868 711.875 806.6 712.915 806.6H716.287ZM710.731 809.612C710.731 810.236 710.911 810.716 711.271 811.052C711.639 811.38 712.179 811.544 712.891 811.544H715.111V807.644H712.963C712.243 807.644 711.691 807.812 711.307 808.148C710.923 808.484 710.731 808.972 710.731 809.612ZM726.612 806.6V815H725.412V811.256H720.588V815H719.388V806.6H720.588V810.212H725.412V806.6H726.612ZM736.588 806.6L732.856 813.524C732.56 814.076 732.212 814.488 731.812 814.76C731.412 815.032 730.976 815.168 730.504 815.168C730.136 815.168 729.76 815.084 729.376 814.916L729.688 813.956C729.984 814.06 730.248 814.112 730.48 814.112C731.008 814.112 731.444 813.832 731.788 813.272L731.98 812.972L728.596 806.6H729.88L732.604 811.928L735.4 806.6H736.588ZM744.167 807.644H741.287V815H740.111V807.644H737.243V806.6H744.167V807.644ZM751.144 812.9H746.68L745.756 815H744.52L748.324 806.6H749.512L753.328 815H752.068L751.144 812.9ZM750.724 811.94L748.912 807.824L747.1 811.94H750.724ZM761.015 806.6V815H759.839V812.552H757.523C757.379 812.552 757.271 812.548 757.199 812.54L755.519 815H754.247L756.107 812.336C755.507 812.136 755.047 811.804 754.727 811.34C754.407 810.868 754.247 810.296 754.247 809.624C754.247 808.672 754.551 807.932 755.159 807.404C755.775 806.868 756.603 806.6 757.643 806.6H761.015ZM755.459 809.612C755.459 810.236 755.639 810.716 755.999 811.052C756.367 811.38 756.907 811.544 757.619 811.544H759.839V807.644H757.691C756.971 807.644 756.419 807.812 756.035 808.148C755.651 808.484 755.459 808.972 755.459 809.612ZM771.575 815.096C770.735 815.096 769.975 814.912 769.295 814.544C768.623 814.168 768.095 813.656 767.711 813.008C767.327 812.352 767.135 811.616 767.135 810.8C767.135 809.984 767.327 809.252 767.711 808.604C768.095 807.948 768.627 807.436 769.307 807.068C769.987 806.692 770.747 806.504 771.587 806.504C772.243 806.504 772.843 806.616 773.387 806.84C773.931 807.056 774.395 807.38 774.779 807.812L773.999 808.568C773.367 807.904 772.579 807.572 771.635 807.572C771.011 807.572 770.447 807.712 769.943 807.992C769.439 808.272 769.043 808.66 768.755 809.156C768.475 809.644 768.335 810.192 768.335 810.8C768.335 811.408 768.475 811.96 768.755 812.456C769.043 812.944 769.439 813.328 769.943 813.608C770.447 813.888 771.011 814.028 771.635 814.028C772.571 814.028 773.359 813.692 773.999 813.02L774.779 813.776C774.395 814.208 773.927 814.536 773.375 814.76C772.831 814.984 772.231 815.096 771.575 815.096ZM783.008 813.956V815H776.912V806.6H782.84V807.644H778.112V810.224H782.324V811.244H778.112V813.956H783.008ZM791.145 807.644H788.265V815H787.089V807.644H784.221V806.6H791.145V807.644ZM796.011 811.304H794.259V815H793.083V806.6H794.259V810.248H796.035L798.675 806.6H799.959L796.959 810.668L800.103 815H798.735L796.011 811.304ZM807.156 812.9H802.692L801.768 815H800.532L804.336 806.6H805.524L809.34 815H808.08L807.156 812.9ZM806.736 811.94L804.924 807.824L803.112 811.94H806.736ZM687.064 839.096C686.224 839.096 685.464 838.912 684.784 838.544C684.112 838.168 683.584 837.656 683.2 837.008C682.816 836.352 682.624 835.616 682.624 834.8C682.624 833.984 682.816 833.252 683.2 832.604C683.584 831.948 684.116 831.436 684.796 831.068C685.476 830.692 686.236 830.504 687.076 830.504C687.732 830.504 688.332 830.616 688.876 830.84C689.42 831.056 689.884 831.38 690.268 831.812L689.488 832.568C688.856 831.904 688.068 831.572 687.124 831.572C686.5 831.572 685.936 831.712 685.432 831.992C684.928 832.272 684.532 832.66 684.244 833.156C683.964 833.644 683.824 834.192 683.824 834.8C683.824 835.408 683.964 835.96 684.244 836.456C684.532 836.944 684.928 837.328 685.432 837.608C685.936 837.888 686.5 838.028 687.124 838.028C688.06 838.028 688.848 837.692 689.488 837.02L690.268 837.776C689.884 838.208 689.416 838.536 688.864 838.76C688.32 838.984 687.72 839.096 687.064 839.096ZM701.564 836.9H697.1L696.176 839H694.94L698.744 830.6H699.932L703.748 839H702.488L701.564 836.9ZM701.144 835.94L699.332 831.824L697.52 835.94H701.144ZM712.902 830.6V839H711.702V835.256H706.878V839H705.678V830.6H706.878V834.212H711.702V830.6H712.902ZM721.773 831.644H718.893V839H717.717V831.644H714.849V830.6H721.773V831.644ZM729.808 837.956V839H723.712V830.6H729.64V831.644H724.912V834.224H729.124V835.244H724.912V837.956H729.808ZM739.396 830.6V839H738.196V835.256H733.372V839H732.172V830.6H733.372V834.212H738.196V830.6H739.396ZM749.72 830.6V839H748.52V835.256H743.696V839H742.496V830.6H743.696V834.212H748.52V830.6H749.72ZM758.28 836.9H753.816L752.892 839H751.656L755.46 830.6H756.648L760.464 839H759.204L758.28 836.9ZM757.86 835.94L756.048 831.824L754.236 835.94H757.86ZM770.182 839L770.17 832.88L767.134 837.98H766.582L763.546 832.916V839H762.394V830.6H763.378L766.882 836.504L770.338 830.6H771.322L771.334 839H770.182ZM774.428 830.6H775.616V837.08L780.584 830.6H781.688V839H780.512V832.532L775.532 839H774.428V830.6Z" fill="white"/>
</g>
</svg>
