<svg width="1903" height="959" viewBox="0 0 1903 959" fill="none" xmlns="http://www.w3.org/2000/svg">
<path d="M1107.5 220.578L1125.5 231.039L1125.5 251.963L1107.5 262.422L1089.5 251.963L1089.5 231.039L1107.5 220.578Z" stroke="#BEFF33"/>
<path d="M1110 243.5L1110 240.5L1107.5 239L1105 240.5L1105 243.5L1107.5 245L1110 243.5Z" fill="#BEFF33"/>
<text fill="white" xml:space="preserve" style="white-space: pre" font-family="Montserrat" font-size="12" font-weight="500" letter-spacing="0.04em"><tspan x="1156" y="236.302">&#x41d;&#x410;&#x425;&#x41e;&#x414;&#x42f;&#x422;&#x421;&#x42f; 2 &#x421;&#x41e;&#x412;&#x420;&#x415;&#x41c;&#x415;&#x41d;&#x41d;&#x42b;&#x425; </tspan><tspan x="1156" y="260.302">&#x422;&#x415;&#x41d;&#x41d;&#x418;&#x421;&#x41d;&#x42b;&#x425; &#x421;&#x422;&#x41e;&#x41b;&#x410;</tspan></text>
<text fill="white" xml:space="preserve" style="white-space: pre" font-family="Montserrat" font-size="12" font-weight="500" letter-spacing="0.04em"><tspan x="1363" y="626.302">&#x41f;&#x420;&#x41e;&#x424;&#x415;&#x421;&#x421;&#x418;&#x41e;&#x41d;&#x410;&#x41b;&#x42c;&#x41d;&#x410;&#x42f; </tspan><tspan x="1363" y="650.302">&#x420;&#x410;&#x417;&#x41c;&#x415;&#x422;&#x41a;&#x410;</tspan></text>
<path d="M1314.5 611.578L1332.5 622.039L1332.5 642.963L1314.5 653.422L1296.5 642.963L1296.5 622.039L1314.5 611.578Z" stroke="#BEFF33"/>
<path d="M1317 634.5L1317 631.5L1314.5 630L1312 631.5L1312 634.5L1314.5 636L1317 634.5Z" fill="#BEFF33"/>
<path d="M631.499 800.578L649.5 811.039L649.5 831.963L631.499 842.422L613.5 831.963L613.5 811.039L631.499 800.578Z" stroke="#BEFF33"/>
<path d="M634 823.5L634 820.5L631.5 819L629 820.5L629 823.5L631.5 825L634 823.5Z" fill="#BEFF33"/>
<text fill="white" xml:space="preserve" style="white-space: pre" font-family="Montserrat" font-size="12" font-weight="500" letter-spacing="0.04em"><tspan x="682" y="815.302">&#x41f;&#x415;&#x420;&#x415;&#x413;&#x41e;&#x420;&#x41e;&#x414;&#x41a;&#x410; &#x41c;&#x415;&#x416;&#x414;&#x423; </tspan><tspan x="682" y="839.302">&#x421;&#x422;&#x41e;&#x41b;&#x410;&#x41c;&#x418;</tspan></text>
<path d="M272.499 554.578L290.5 565.039L290.5 585.963L272.499 596.422L254.5 585.963L254.5 565.039L272.499 554.578Z" stroke="#BEFF33"/>
<path d="M275 577.5L275 574.5L272.5 573L270 574.5L270 577.5L272.5 579L275 577.5Z" fill="#BEFF33"/>
<text fill="white" xml:space="preserve" style="white-space: pre" font-family="Montserrat" font-size="12" font-weight="500" letter-spacing="0.04em"><tspan x="323" y="566.302">&#x41d;&#x415;&#x421;&#x41a;&#x41e;&#x41b;&#x42c;&#x417;&#x42f;&#x429;&#x415;&#x415; &#x41d;&#x410;&#x41f;&#x41e;&#x41b;&#x42c;&#x41d;&#x41e;&#x415; </tspan><tspan x="323" y="590.302">&#x41f;&#x41e;&#x41a;&#x420;&#x42b;&#x422;&#x418;&#x415;</tspan></text>
</svg>
