<svg width="12" height="17" viewBox="0 0 12 17" fill="none" xmlns="http://www.w3.org/2000/svg">
<path d="M6 0C2.69156 0 0 2.84494 0 6.34189C0 11.5521 5.40278 16.6395 5.63286 16.8535C5.73774 16.9511 5.86884 17 6 17C6.13116 17 6.26226 16.9512 6.3672 16.8535C6.59717 16.6395 12 11.5522 12 6.34189C12 2.84494 9.30844 0 6 0ZM6 4.56154C6.91902 4.56154 7.66668 5.36019 7.66668 6.34189C7.66668 7.3236 6.91902 8.12225 6 8.12225C5.08098 8.12225 4.33332 7.3236 4.33332 6.34189C4.33332 5.36019 5.08098 4.56154 6 4.56154Z" fill="#BEFF33"/>
</svg>
