<svg width="15" height="16" viewBox="0 0 15 16" fill="none" xmlns="http://www.w3.org/2000/svg">
<path d="M14.9998 7.50071C14.9998 8.584 14.9998 9.66729 14.9998 10.7506C14.9923 11.5992 14.7281 12.4258 14.2419 13.1214C13.7556 13.817 13.0702 14.3491 12.2758 14.6477C11.6 14.9 10.882 15.0198 10.1609 15.0006C8.282 15.0006 6.4031 15.0006 4.5242 15.0006C3.61496 15.0214 2.7208 14.7659 1.95981 14.2679C1.04034 13.6986 0.379166 12.7931 0.116869 11.744C0.0415001 11.4235 0.0022988 11.0955 0 10.7663C0 8.6312 0 6.49608 0 4.34973C0 3.24846 0.307906 2.25956 1.09228 1.4617C1.83327 0.66191 2.83969 0.158698 3.92412 0.0457858C4.59836 -0.0148964 5.27261 0.00308348 5.93337 0.000835988C7.36727 0.000835988 8.80342 0.000835988 10.2396 0.000835988C11.2127 0.000835988 12.1477 0.15816 12.9793 0.697558C13.9015 1.24834 14.5755 2.13404 14.8604 3.1698C14.9465 3.52301 14.991 3.88506 14.993 4.24859C15.0087 5.33188 14.993 6.41517 14.993 7.49846L14.9998 7.50071ZM1.12375 7.50071C1.12375 8.59524 1.12375 9.68752 1.12375 10.782C1.12375 12.0519 1.79799 12.9127 2.87679 13.5015C3.40132 13.7661 3.98428 13.8937 4.5714 13.8723C6.50648 13.8723 8.44157 13.8723 10.3767 13.8723C11.0491 13.8839 11.7122 13.7139 12.296 13.3801C13.3119 12.7913 13.8693 11.9238 13.8693 10.7438C13.8827 8.55254 13.8872 6.36123 13.8693 4.16768C13.8693 2.87088 13.1343 2.01459 12.0263 1.44597C11.5279 1.2095 10.9797 1.09693 10.4284 1.11784C8.5045 1.11784 6.58065 1.11784 4.65455 1.11784C4.03801 1.10168 3.42688 1.23672 2.87454 1.51115C1.79799 2.07077 1.14847 2.9428 1.12375 4.19016C1.09678 5.29368 1.12375 6.39719 1.12375 7.50071Z" fill="white"/>
<path d="M7.50647 10.7056C6.82082 10.6954 6.15349 10.4826 5.58842 10.0942C5.02335 9.70566 4.58578 9.15876 4.33073 8.52223C4.07569 7.88569 4.01456 7.18795 4.15505 6.51677C4.29553 5.84558 4.63135 5.23093 5.12026 4.75011C5.60918 4.26929 6.22936 3.94378 6.90279 3.81453C7.57623 3.68527 8.27285 3.75803 8.90504 4.02367C9.53722 4.28931 10.0767 4.73596 10.4557 5.30743C10.8347 5.87891 11.0363 6.5497 11.035 7.23542C11.0244 8.16258 10.6473 9.04787 9.98623 9.69801C9.32513 10.3482 8.43368 10.7104 7.50647 10.7056ZM5.1084 7.22868C5.09947 7.70612 5.23289 8.17541 5.49165 8.57675C5.75041 8.97809 6.1228 9.2933 6.56136 9.48223C6.99992 9.67116 7.4848 9.72524 7.95421 9.63759C8.42362 9.54994 8.85631 9.32452 9.19714 8.99006C9.53797 8.6556 9.77151 8.22724 9.868 7.75957C9.96449 7.29189 9.91957 6.80608 9.73895 6.36403C9.55833 5.92199 9.25019 5.54372 8.85381 5.27743C8.45742 5.01115 7.99074 4.8689 7.51321 4.86882C6.88243 4.86638 6.27613 5.11281 5.82591 5.55461C5.37568 5.99642 5.11786 6.59796 5.1084 7.22868Z" fill="white"/>
<path d="M12.1836 3.45952C12.1783 3.60469 12.1303 3.74508 12.0457 3.86317C11.9611 3.98126 11.8436 4.07181 11.7079 4.12352C11.5721 4.17524 11.4241 4.18582 11.2824 4.15395C11.1407 4.12208 11.0115 4.04917 10.9109 3.94432C10.8104 3.83947 10.743 3.70733 10.7171 3.56439C10.6911 3.42146 10.7079 3.27406 10.7653 3.14059C10.8226 3.00713 10.918 2.89352 11.0396 2.81394C11.1611 2.73436 11.3034 2.69234 11.4486 2.69313C11.6466 2.7007 11.8338 2.78485 11.971 2.92782C12.1081 3.0708 12.1843 3.26143 12.1836 3.45952Z" fill="white"/>
</svg>
