<svg width="20" height="20" viewBox="0 0 20 20" fill="none" xmlns="http://www.w3.org/2000/svg">
<path d="M3.80254 18.8348C2.89195 18.8348 2.03633 18.48 1.39281 17.8366C0.0642945 16.5079 0.0642945 14.3459 1.39281 13.0174L11.9275 2.4822C12.7762 1.63259 13.9058 1.16528 15.1068 1.16528C16.308 1.16528 17.4375 1.63259 18.2863 2.4822C19.1358 3.33157 19.6037 4.46052 19.6037 5.66146C19.6037 6.86263 19.1364 7.99153 18.287 8.8404L9.9939 17.1327C9.74492 17.3816 9.34172 17.3816 9.09285 17.1327C8.84387 16.8838 8.84387 16.4806 9.09285 16.2315L17.3857 7.93923C17.9945 7.33063 18.3292 6.52161 18.3292 5.66146C18.3292 4.80146 17.9937 3.99192 17.3852 3.38325C16.7765 2.77466 15.9675 2.43974 15.1068 2.43974C14.2463 2.43974 13.4373 2.77466 12.8286 3.38325L2.29398 13.9184C1.46261 14.7505 1.46261 16.1035 2.29398 16.9354C3.10043 17.7408 4.50449 17.7408 5.3109 16.9354L12.3848 9.86099C12.5771 9.66864 12.6873 9.40239 12.6873 9.13099C12.6873 8.85579 12.5797 8.59638 12.3842 8.40095C11.9822 7.99896 11.3269 7.99774 10.9249 8.40095L6.09379 13.2326C5.84496 13.4817 5.44156 13.4817 5.19273 13.2326C4.94375 12.9838 4.94375 12.5804 5.19273 12.3316L10.0237 7.49993C10.9223 6.60134 12.3855 6.60134 13.2853 7.49993C13.7216 7.9361 13.9618 8.51556 13.9618 9.13103C13.9618 9.73833 13.7154 10.3327 13.286 10.762L6.21211 17.8366C5.56859 18.48 4.71293 18.8348 3.80254 18.8348Z" fill="#BEFF33"/>
</svg>
