<svg width="36" height="36" viewBox="0 0 36 36" fill="none" xmlns="http://www.w3.org/2000/svg">
<path d="M18.9032 11.6862L29.9942 18.4767" stroke="#BEFF33" stroke-miterlimit="10"/>
<path d="M16.9667 14.8281L28.055 21.6187" stroke="#BEFF33" stroke-miterlimit="10"/>
<path d="M15.1655 18.222L26.2565 25.0153" stroke="#BEFF33" stroke-miterlimit="10"/>
<path d="M24.5296 14.7722L26.3493 7.94177C26.7366 6.4929 28.4105 5.82684 29.6865 6.61762C30.9598 7.4084 31.111 9.20224 29.9862 10.1947L24.6304 14.9181L24.5296 14.7722Z" stroke="#BEFF33" stroke-miterlimit="10"/>
<path d="M20.5267 12.6787L22.1316 6.65229C23.251 2.44896 28.1108 0.522434 31.806 2.81251C35.4986 5.10258 35.9363 10.3063 32.6761 13.1802L28.0338 17.2747" stroke="#BEFF33" stroke-miterlimit="10"/>
<path d="M20.455 21.6185L18.6247 28.4887C18.2374 29.9376 16.5635 30.6036 15.2875 29.8129C14.0142 29.0221 13.863 27.2283 14.9878 26.2358L20.3171 21.5363L20.455 21.6185Z" stroke="#BEFF33" stroke-miterlimit="10"/>
<path d="M24.4474 23.7521L22.8425 29.7784C21.7231 33.9818 16.8633 35.9083 13.1681 33.6182C9.47549 31.3281 9.03779 26.1244 12.298 23.2505L16.9402 19.156" stroke="#BEFF33" stroke-miterlimit="10"/>
<path d="M0 7.45361H3.92336" stroke="#BEFF33" stroke-miterlimit="10"/>
<path d="M0 10.6804H3.92336" stroke="#BEFF33" stroke-miterlimit="10"/>
<path d="M0 13.9099H3.92336" stroke="#BEFF33" stroke-miterlimit="10"/>
<path d="M9.0908 18.222C6.99781 21.1622 2.39536 21.1463 1.74014 16.4202V4.17643C1.74014 2.42239 3.162 1.00006 4.91544 1.00006H13.6826C16.3486 0.986788 18.1869 3.32198 16.7704 5.77392L9.0908 18.222Z" stroke="#BEFF33" stroke-miterlimit="10"/>
</svg>
