<svg width="11" height="10" viewBox="0 0 11 10" fill="none" xmlns="http://www.w3.org/2000/svg">
<path d="M0 8.70476V2.5154C0.00619453 2.50701 0.0110546 2.49771 0.0144078 2.48783C0.113382 1.94629 0.604184 1.58109 1.16734 1.59738C1.7189 1.61272 2.27141 1.59957 2.8236 1.60207C2.85221 1.60477 2.88099 1.59906 2.90641 1.58565C2.93183 1.57225 2.95279 1.55172 2.96673 1.52659C3.18598 1.19271 3.41087 0.863836 3.62917 0.529953C3.86314 0.171327 4.19295 0 4.6183 0C5.09751 0 5.57672 0.00187927 6.05593 0C6.48127 0 6.80952 0.173519 7.04286 0.532459C7.25678 0.860704 7.47854 1.18394 7.69246 1.5125C7.70843 1.54223 7.73274 1.56667 7.76239 1.5828C7.79204 1.59893 7.82576 1.60607 7.8594 1.60333C8.43237 1.59957 9.00533 1.59957 9.5783 1.60333C10.1734 1.60677 10.6677 2.06625 10.6686 2.62533C10.6715 4.61506 10.6715 6.60478 10.6686 8.59451C10.6686 8.81376 10.5875 9.00795 10.4565 9.18052C10.2232 9.48778 9.90655 9.61557 9.52474 9.61557C7.8096 9.6137 6.09425 9.6137 4.37869 9.61557C3.29874 9.61557 2.21753 9.61307 1.13915 9.61557C0.756718 9.61557 0.433484 9.48872 0.213297 9.17144C0.117454 9.03269 0.069846 8.86105 0 8.70476ZM1.07243 8.5328H9.59584V2.68015H9.48653C8.75706 2.68015 8.02791 2.68015 7.29844 2.68015C7.26308 2.68313 7.2276 2.67586 7.19627 2.65919C7.16494 2.64253 7.13908 2.61718 7.12179 2.58618C6.80858 2.1076 6.48754 1.63308 6.17151 1.15575C6.15743 1.12902 6.13593 1.10694 6.10959 1.09216C6.08324 1.07737 6.05319 1.07052 6.02305 1.07243C5.56367 1.0764 5.10523 1.0764 4.64774 1.07243C4.61757 1.07043 4.58747 1.07721 4.56108 1.09193C4.53468 1.10666 4.5131 1.12872 4.49896 1.15544C4.18137 1.63559 3.85938 2.11323 3.54273 2.59433C3.52708 2.62237 3.50363 2.64526 3.47521 2.66022C3.4468 2.67518 3.41465 2.68156 3.38268 2.67858C2.65321 2.67576 1.92405 2.67701 1.19459 2.67701H1.07243V8.5328Z" fill="#666666"/>
<path d="M5.34002 2.67041C5.6918 2.67209 6.0398 2.74314 6.36409 2.87948C6.68837 3.01583 6.98258 3.2148 7.22988 3.465C7.47717 3.7152 7.67268 4.01172 7.80523 4.33758C7.93777 4.66344 8.00475 5.01225 8.00231 5.36402C7.99605 6.78444 6.83748 8.01629 5.3253 8.01097C4.97316 8.01038 4.62463 7.93993 4.29991 7.80371C3.97518 7.66749 3.68071 7.4682 3.43353 7.21739C3.18636 6.96658 2.9914 6.66922 2.85994 6.34253C2.72849 6.01585 2.66315 5.66633 2.6677 5.31422C2.67961 3.87721 3.84256 2.68137 5.34002 2.67041ZM5.33563 6.93603C6.20699 6.94323 6.93645 6.21564 6.93301 5.34429C6.92956 4.47294 6.22077 3.75067 5.36038 3.74441C5.1492 3.7416 4.93955 3.78051 4.74345 3.85891C4.54735 3.93731 4.36865 4.05366 4.21762 4.20129C4.0666 4.34891 3.9462 4.52491 3.86335 4.71917C3.78049 4.91343 3.73681 5.12214 3.73481 5.33333C3.72134 6.20374 4.44455 6.92851 5.33532 6.93603H5.33563Z" fill="#666666"/>
</svg>
