<svg width="45" height="44" viewBox="0 0 45 44" fill="none" xmlns="http://www.w3.org/2000/svg">
<path d="M19.4002 36.7003L19.5618 36.6795L19.4999 36.5288C18.5183 34.1397 17.5263 31.7497 16.5297 29.3488C15.7025 27.356 14.8722 25.3556 14.0422 23.3422L13.9946 23.2267L13.8791 23.2743C13.3034 23.5113 12.7955 23.7145 12.287 23.9179L12.287 23.9178L12.2852 23.9186C10.6245 24.6134 8.96375 25.2997 7.30271 25.9862L7.30264 25.9862L7.30221 25.9864C5.6417 26.6726 3.9809 27.359 2.32006 28.0538C1.90068 28.2214 1.64491 28.2338 1.48257 28.1447C1.32186 28.0565 1.20193 27.8402 1.13495 27.4047L1.13484 27.4041C0.126618 21.0859 3.42041 14.9017 8.99897 12.146L8.99951 12.1457L8.99959 12.1457C9.06878 12.1111 9.14205 12.0745 9.25023 12.0023L9.33348 11.9468L9.29756 11.8535C9.12748 11.4113 8.95747 11.0032 8.78817 10.5969C8.69372 10.3604 8.685 10.1729 8.73536 10.0285C8.78485 9.88661 8.89889 9.76509 9.09553 9.67384C9.27006 9.60168 9.42632 9.60525 9.56253 9.67169C9.70209 9.73977 9.83716 9.88206 9.94788 10.1183C10.003 10.2506 10.0586 10.3878 10.1145 10.5257C10.2281 10.8059 10.3429 11.089 10.4569 11.3399L10.498 11.4302L10.5952 11.4107C10.9772 11.3343 11.3452 11.2496 11.7069 11.1663C12.3223 11.0245 12.9197 10.887 13.5366 10.8019C17.6037 10.2642 21.2654 11.3049 24.5282 13.7939C25.6023 14.6331 26.5098 15.6075 27.3179 16.6848C27.5472 16.9961 27.6042 17.2261 27.5562 17.3988C27.5081 17.572 27.3407 17.7373 26.9965 17.8849C25.1325 18.6644 23.2686 19.4354 21.4043 20.2066C19.5399 20.9777 17.6753 21.749 15.8106 22.5288L15.8105 22.5285L15.803 22.5323C15.7556 22.556 15.7095 22.5746 15.6565 22.596C15.6396 22.6028 15.6221 22.6099 15.6036 22.6175C15.529 22.6482 15.4463 22.6848 15.3539 22.7403L15.2646 22.7939L15.3011 22.8914L15.3018 22.8932C15.4029 23.1628 15.5053 23.4359 15.6081 23.6757C16.4723 25.7601 17.3366 27.853 18.2009 29.946L18.2019 29.9483C19.0656 32.0399 19.9294 34.1316 20.7932 36.2149C20.864 36.4088 20.951 36.5628 21.0902 36.6645C21.231 36.7674 21.4061 36.803 21.6216 36.803L21.6244 36.803C24.5677 36.7353 27.5105 36.8706 30.4529 37.2426C34.0065 37.7164 37.4835 38.46 40.7211 39.9776L40.7219 39.978C41.9657 40.5495 43.1026 41.2525 44.0709 42.2531C44.1146 42.3053 44.1599 42.3549 44.2034 42.4021L44.2219 42.4221C44.2604 42.4637 44.2971 42.5034 44.3323 42.5439C44.4138 42.6376 44.4803 42.7278 44.5236 42.8289C44.5704 42.9382 44.6093 43.0707 44.6246 43.1973C44.6403 43.3268 44.6294 43.4336 44.5945 43.5034C44.56 43.5726 44.475 43.6504 44.3566 43.7175C44.2433 43.7817 44.117 43.8261 44.0171 43.8414C42.971 43.875 41.9246 43.875 40.8758 43.875H40.7995H40.7233H40.647H40.5707H40.4944H40.4182H40.3419H40.2656H40.1894H40.1131H40.0368H39.9606H39.8843H39.808H39.7317H39.6555H39.5792H39.5029H39.4267H39.3504H39.2741H39.1978H39.1216H39.0453H38.969H38.8928H38.8165H38.7402H38.6639H38.5877H38.5114H38.4351H38.3589H38.2826H38.2063H38.13H38.0538H37.9775H37.9012H37.825H37.7487H37.6724H37.5961H37.5199H37.4436H37.3673H37.2911H37.2148H37.1385H37.0622H36.986H36.9097H36.8334H36.7572H36.6809H36.6046H36.5283H36.4521H36.3758H36.2995H36.2233H36.147H36.0707H35.9944H35.9182H35.8419H35.7656H35.6894H35.6131H35.5368H35.4606H35.3843H35.308H35.2317H35.1555H35.0792H35.0029H34.9267H34.8504H34.7741H34.6978H34.6216H34.5453H34.469H34.3928H34.3165H34.2402H34.1639H34.0877H34.0114H33.9351H33.8589H33.7826H33.7063H33.63H33.5538H33.4775H33.4012H33.325H33.2487H33.1724H33.0961H33.0199H32.9436H32.8673H32.7911H32.7148H32.6385H32.5622H32.486H32.4097H32.3334H32.2572H32.1809H32.1046H32.0283H31.9521H31.8758H31.7995H31.7233H31.647H31.5707H31.4944H31.4182H31.3419H31.2656H31.1894H31.1131H31.0368H30.9606H30.8843H30.808H30.7317H30.6555H30.5792H30.5029H30.4267H30.3504H30.2741H30.1978H30.1216H30.0453H29.969H29.8928H29.8165H29.7402H29.6639H29.5877H29.5114H29.4351H29.3589H29.2826H29.2063H29.13H29.0538H28.9775H28.9012H28.825H28.7487H28.6724H28.5961H28.5199H28.4436H28.3673H28.2911H28.2148H28.1385H28.0622H27.986H27.9097H27.8334H27.7572H27.6809H27.6046H27.5283H27.4521H27.3758H27.2995H27.2233H27.147H27.0707H26.9944H26.9182H26.8419H26.7656H26.6894H26.6131H26.5368H26.4606H26.3843H26.308H26.2317H26.1555H26.0792H26.0029H25.9267H25.8504H25.7741H25.6978H25.6216H25.5453H25.469H25.3928H25.3165H25.2402H25.1639H25.0877H25.0114H24.9351H24.8589H24.7826H24.7063H24.63H24.5538H24.4775H24.4012H24.325H24.2487H24.1724H24.0961H24.0199H23.9436H23.8673H23.7911H23.7148H23.6385H23.5622H23.486H23.4097H23.3334H23.2572H23.1809H23.1046H23.0283H22.9521H22.8758H22.7995H22.7233H22.647H22.5707H22.4944H22.4182H22.3419H22.2656H22.1894H22.1131H22.0368H21.9606H21.8843H21.808H21.7317H21.6555H21.5792H21.5029H21.4267H21.3504H21.2741H21.1978H21.1216H21.0453H20.969H20.8928H20.8165H20.7402H20.6639H20.5877H20.5114H20.4351H20.3589H20.2826H20.2063H20.13H20.0538H19.9775H19.9012H19.825H19.7487H19.6724H19.5961H19.5199H19.4436H19.3673H19.2911H19.2148H19.1385H19.0622H18.986H18.9097H18.8334H18.7572H18.6809H18.6046H18.5283H18.4521H18.3758H18.2995H18.2233H18.147H18.0707H17.9944H17.9182H17.8419H17.7656H17.6894H17.6131H17.5368H17.4606H17.3843H17.308H17.2317H17.1555H17.0792H17.0029H16.9267H16.8504H16.7741H16.6978H16.6216H16.5453H16.469H16.3928H16.3165H16.2402H16.1639H16.0877H16.0114H15.9351H15.8589H15.7826H15.7063H15.63H15.5538H15.4775H15.4012H15.325H15.2487H15.1724H15.0961H15.0199H14.9436H14.8673H14.7911H14.7148H14.6385H14.5622H14.486H14.4097H14.3334H14.2572H14.1809H14.1046H14.0283H13.9521H13.8758H13.7995H13.7233H13.647H13.5707H13.4945H13.4182H13.3419H13.2656H13.1894H13.1131H13.0368H12.9606H12.8843H12.808H12.7317H12.6555H12.5792H12.5029H12.4267H12.3504H12.2741H12.1978H12.1216H12.0453H11.969H11.8928H11.8165H11.7402H11.6639H11.5877H11.5114H11.4351H11.3589H11.2826H11.2063H11.13H11.0538H10.9775H10.9012H10.825H10.7487H10.6724H10.5961H10.5199H10.4436H10.3673H10.2911H10.2148H10.1385H10.0622H9.98598H9.90971H9.83343H9.75716H9.68089H9.60462H9.52835H9.45208H9.37581H9.29954H9.22326H9.14699H9.07072H8.99445H8.91818H8.84191H8.76564H8.68937H8.61309H8.53682H8.46055H8.38428H8.30801H8.23174H8.15547H8.0792H8.00293H7.92665H7.85038H7.77411H7.69784H7.62157H7.5453H7.46903H7.39276H7.31648H7.24021H7.16394H7.08767H7.0114H6.93513H6.85886H6.78259H6.70632H6.63004H6.55377H6.4775H6.40123H6.32496H6.24869H6.17242H6.09615H6.01987H5.9436H5.86733H5.79106H5.71479H5.63852H5.56225H5.48598H5.40971H5.33343H5.25716H5.18089H5.10462H5.02835H4.95208H4.87581H4.79954H4.72326H4.64699H4.57072H4.49445H4.41818H4.34191H4.26564H4.18937H4.1131H4.03682H3.96055H3.88428H3.80801H3.73174H3.65547H3.5792H3.50293H3.42665H3.35038H3.27411H3.19784H3.12157H3.0453H2.96903H2.89276H2.81648H2.74021H2.66394H2.58767H2.5114H2.43513H2.35886H2.28259H2.20632H2.13004H2.05377H1.9775H1.90123H1.82496C1.64378 43.875 1.49387 43.8581 1.37255 43.8082C1.25619 43.7603 1.16046 43.6796 1.08931 43.5373C1.01876 43.3963 1.01279 43.2671 1.04709 43.1436C1.0825 43.0162 1.16273 42.8886 1.27496 42.7603L1.27512 42.7604L1.27956 42.7547C2.21087 41.5573 3.47794 40.7879 4.82935 40.1122C7.25637 38.9324 9.82051 38.2234 12.4908 37.7502L12.4909 37.7503L12.4957 37.7493C14.3798 37.3371 16.4179 37.0788 18.4827 36.8171C18.7881 36.7784 19.0941 36.7396 19.4002 36.7003ZM3.29156 42.1609L3.18413 42.2182L3.23858 42.3271C3.24885 42.3477 3.25895 42.3653 3.267 42.3792L3.26782 42.3806C3.27598 42.3948 3.28102 42.4035 3.28519 42.4119C3.29177 42.425 3.29318 42.4312 3.29318 42.4407V42.5657H3.41818H3.49366H3.56913H3.64461H3.72009H3.79556H3.87104H3.94652H4.02199H4.09747H4.17295H4.24842H4.3239H4.39938H4.47486H4.55033H4.62581H4.70129H4.77676H4.85224H4.92772H5.0032H5.07867H5.15415H5.22963H5.30511H5.38059H5.45607H5.53154H5.60702H5.6825H5.75798H5.83346H5.90894H5.98442H6.0599H6.13538H6.21086H6.28634H6.36182H6.4373H6.51278H6.58826H6.66374H6.73922H6.8147H6.89018H6.96566H7.04114H7.11663H7.19211H7.26759H7.34307H7.41856H7.49404H7.56952H7.64501H7.72049H7.79598H7.87146H7.94694H8.02243H8.09792H8.1734H8.24889H8.32437H8.39986H8.47535H8.55083H8.62632H8.70181H8.7773H8.85278H8.92827H9.00376H9.07925H9.15474H9.23023H9.30572H9.38121H9.4567H9.53219H9.60769H9.68318H9.75867H9.83416H9.90966H9.98515H10.0606H10.1361H10.2116H10.2871H10.3626H10.4381H10.5136H10.5891H10.6646H10.7401H10.8156H10.8911H10.9666H11.0421H11.1176H11.1931H11.2686H11.3441H11.4196H11.4951H11.5706H11.6461H11.7216H11.7971H11.8726H11.9481H12.0236H12.0992H12.1747H12.2502H12.3257H12.4012H12.4767H12.5522H12.6277H12.7032H12.7787H12.8542H12.9298H13.0053H13.0808H13.1563H13.2318H13.3073H13.3828H13.4584H13.5339H13.6094H13.6849H13.7604H13.836H13.9115H13.987H14.0625H14.138H14.2136H14.2891H14.3646H14.4401H14.5157H14.5912H14.6667H14.7422H14.8178H14.8933H14.9688H15.0444H15.1199H15.1954H15.271H15.3465H15.422H15.4976H15.5731H15.6486H15.7242H15.7997H15.8752H15.9508H16.0263H16.1019H16.1774H16.2529H16.3285H16.404H16.4796H16.5551H16.6307H16.7062H16.7818H16.8573H16.9329H17.0084H17.084H17.1595H17.2351H17.3106H17.3862H17.4617H17.5373H17.6128H17.6884H17.7639H17.8395H17.9151H17.9906H18.0662H18.1418H18.2173H18.2929H18.3684H18.444H18.5196H18.5951H18.6707H18.7463H18.8219H18.8974H18.973H19.0486H19.1241H19.1997H19.2753H19.3509H19.4265H19.502H19.5776H19.6532H19.7288H19.8044H19.8799H19.9555H20.0311H20.1067H20.1823H20.2579H20.3335H20.4091H20.4847H20.5602H20.6358H20.7114H20.787H20.8626H20.9382H21.0138H21.0894H21.165H21.2406H21.3162H21.3918H21.4675H21.5431H21.6187H21.6943H21.7699H21.8455H21.9211H21.9967H22.0723H22.148H22.2236H22.2992H22.3748H22.4504H22.5261H22.6017H22.6773H22.7529H22.8285H22.9042H22.9798H23.0554H23.1311H23.2067H23.2823H23.358H23.4336H23.5092H23.5849H23.6605H23.7362H23.8118H23.8874H23.9631H24.0387H24.1144H24.19H24.2657H24.3413H24.417H24.4926H24.5683H24.6439H24.7196H24.7953H24.8709H24.9466H25.0222H25.0979H25.1736H25.2492H25.3249H25.4006H25.4762H25.5519H25.6276H25.7033H25.7789H25.8546H25.9303H26.006H26.0816H26.1573H26.233H26.3087H26.3844H26.4601H26.5358H26.6114H26.6871H26.7628H26.8385H26.9142H26.9899H27.0656H27.1413H27.217H27.2927H27.3684H27.4441H27.5198H27.5955H27.6713H27.747H27.8227H27.8984H27.9741H28.0498H28.1255H28.2013H28.277H28.3527H28.4284H28.5042H28.5799H28.6556H28.7314H28.8071H28.8828H28.9586H29.0343H29.11H29.1858H29.2615H29.3373H29.413H29.4887H29.5645H29.6402H29.716H29.7917H29.8675H29.9433H30.019H30.0948H30.1705H30.2463H30.3221H30.3978H30.4736H30.5494H30.6251H30.7009H30.7767H30.8525H30.9282H31.004H31.0798H31.1556H31.2314H31.3071H31.3829H31.4587H31.5345H31.6103H31.6861H31.7619H31.8377H31.9135H31.9893H32.0651H32.1409H32.2167H32.2925H32.3683H32.4441H32.5199H32.5958H32.6716H32.7474H32.8232H32.899H32.9749H33.0507H33.1265H33.2023H33.2782H33.354H33.4298H33.5057H33.5815H33.6573H33.7332H33.809H33.8849H33.9607H34.0366H34.1124H34.1883H34.2641H34.34H34.4158H34.4917H34.5676H34.6434H34.7193H34.7952H34.871H34.9469H35.0228H35.0986H35.1745H35.2504H35.3263H35.4022H35.478H35.5539H35.6298H35.7057H35.7816H35.8575H35.9334H36.0093H36.0852H36.1611H36.237H36.3129H36.3888H36.4647H36.5406H36.6165H36.6925H36.7684H36.8443H36.9202H36.9961H37.0721H37.148H37.2239H37.2999H37.3758H37.4517H37.5277H37.6036H37.6796H37.7555H37.8314H37.9074H37.9833H38.0593H38.1352H38.2112H38.2872H38.3631H38.4391H38.5151H38.591H38.667H38.743H38.8189H38.8949H38.9709H39.0469H39.1228H39.1988H39.2748H39.3508H39.4268H39.5028H39.5788H39.6548H39.7308H39.8068H39.8828H39.9588H40.0348H40.1108H40.1868H40.2628H40.3389H40.4149H40.4909H40.5669H40.6429H40.719H40.795H40.871H40.9471H41.0231H41.0991H41.1752H41.2512H41.3273H41.4033H41.4794H41.5554H41.6315H41.7075H41.7836H41.8597H41.9357H42.0118H42.0879H42.1639H42.5443L42.2381 42.3401C40.9366 41.3811 39.5684 40.766 38.173 40.2555L38.1711 40.2549C33.5781 38.6558 28.8521 38.1125 24.0658 37.9768C20.804 37.8749 17.5761 38.0787 14.3483 38.5883C11.6325 38.9957 8.94391 39.5738 6.38871 40.6297C5.49111 40.9773 4.61781 41.4476 3.75637 41.9114C3.60107 41.995 3.44616 42.0785 3.29156 42.1609ZM20.4505 19.1658L20.5886 19.1066L20.5052 18.9815C19.3484 17.2463 18.086 15.7099 16.5135 14.445L16.5135 14.445L16.5117 14.4436C15.4545 13.6251 14.3182 12.9342 13.0033 12.6574L12.9916 12.6548C12.39 12.5211 11.7485 12.3785 11.0699 12.6285L10.9481 12.6734L10.9975 12.7934L10.9977 12.7939C12.184 15.675 13.3707 18.5567 14.5912 21.4386L14.6391 21.5518L14.7531 21.5058C14.9621 21.4214 15.1704 21.3375 15.378 21.2538C17.089 20.564 18.7562 19.8919 20.4505 19.1658ZM13.3972 22.1159L13.5146 22.0686L13.4657 21.9518C13.0161 20.8776 12.5709 19.8078 12.1269 18.7407C11.3662 16.9127 10.609 15.0928 9.83837 13.2733L9.77951 13.1343L9.65393 13.2181C9.60516 13.2506 9.56329 13.2833 9.52904 13.31C9.52427 13.3138 9.51964 13.3174 9.51517 13.3208C9.47597 13.3513 9.45129 13.3691 9.43007 13.3797L9.41801 13.3858L9.40751 13.3942C8.3273 14.2654 7.77527 15.4811 7.4331 16.7471L7.43303 16.7473C6.91849 18.6683 6.98835 20.6191 7.19215 22.5892L7.19214 22.5892L7.19234 22.5909C7.23278 22.9346 7.29839 23.2853 7.36583 23.6458C7.4115 23.8899 7.45801 24.1385 7.4981 24.3924L7.52299 24.55L7.67008 24.4881C9.60215 23.6746 11.4659 22.8952 13.3972 22.1159ZM25.7722 16.9625L25.9298 16.8955L25.8179 16.7658C23.0153 13.5189 19.5577 11.8753 15.2497 11.8411L14.8153 11.8377L15.1814 12.0715C16.5884 12.9699 17.5111 13.5828 18.442 14.4718C19.3738 15.3616 20.3173 16.5315 21.7571 18.5473L21.815 18.6283L21.9069 18.59C23.1276 18.0814 24.416 17.5389 25.7722 16.9625ZM2.24281 26.5534L2.25778 26.7235L2.41541 26.6578C2.60053 26.5806 2.78323 26.5043 2.96401 26.4288C3.97599 26.0061 4.92751 25.6086 5.9035 25.2354L5.9035 25.2354L5.90528 25.2347C6.08755 25.1618 6.21801 25.0681 6.27933 24.921C6.33749 24.7814 6.32063 24.6207 6.28652 24.4501L6.28636 24.4493C5.84744 22.3222 5.64631 20.168 5.94874 18.0174L5.94881 18.0169C6.01769 17.5118 6.11743 17.0249 6.22803 16.4849C6.27979 16.2322 6.33392 15.9679 6.38839 15.6846L6.46852 15.2679L6.17529 15.5747C3.20245 18.6842 1.86663 22.2785 2.24281 26.5534Z" fill="#BEFF33" stroke="black" stroke-width="0.25"/>
<path d="M35.848 10.3957L35.848 10.3958L35.8532 10.3961C36.67 10.4332 37.4354 9.73447 37.5088 8.89244C37.5463 8.47828 37.3768 8.0721 37.0996 7.76755C36.8221 7.46276 36.4277 7.24966 35.9999 7.23106C35.1477 7.19401 34.4177 7.89432 34.3445 8.7347C34.3069 9.14941 34.4769 9.54735 34.7543 9.84756C35.0319 10.1479 35.4243 10.3589 35.848 10.3957ZM38.7169 8.81357C38.7169 10.4018 37.4546 11.6038 35.8588 11.6038C34.3045 11.6038 33.1025 10.3416 33.1025 8.77967C33.1025 7.22443 34.3318 6.02332 35.9266 6.02332C37.4847 6.02332 38.7169 7.25549 38.7169 8.81357Z" fill="#BEFF33" stroke="#151515" stroke-width="0.25"/>
<path d="M35.3059 2.20339V2.20061V2.19783V2.19505V2.19227V2.18949V2.18671V2.18392V2.18114V2.17836V2.17558V2.1728V2.17002V2.16724V2.16446V2.16168V2.1589V2.15612V2.15334V2.15056V2.14778V2.14499V2.14221V2.13943V2.13665V2.13387V2.13109V2.12831V2.12553V2.12275V2.11997V2.11719V2.11441V2.11163V2.10885V2.10606V2.10328V2.1005V2.09772V2.09494V2.09216V2.08938V2.0866V2.08382V2.08104V2.07826V2.07548V2.0727V2.06992V2.06713V2.06435V2.06157V2.05879V2.05601V2.05323V2.05045V2.04767V2.04489V2.04211V2.03933V2.03655V2.03377V2.03099V2.0282V2.02542V2.02264V2.01986V2.01708V2.0143V2.01152V2.00874V2.00596V2.00318V2.0004V1.99762V1.99484V1.99205V1.98927V1.98649V1.98371V1.98093V1.97815V1.97537V1.97259V1.96981V1.96703V1.96425V1.96147V1.95869V1.95591V1.95312V1.95034V1.94756V1.94478V1.942V1.93922V1.93644V1.93366V1.93088V1.9281V1.92532V1.92254V1.91976V1.91698V1.91419V1.91141V1.90863V1.90585V1.90307V1.90029V1.89751V1.89473V1.89195V1.88917V1.88639V1.88361V1.88083V1.87805V1.87526V1.87248V1.8697V1.86692V1.86414V1.86136V1.85858V1.8558V1.85302V1.85024V1.84746V1.84468V1.8419V1.83912V1.83633V1.83355V1.83077V1.82799V1.82521V1.82243V1.81965V1.81687V1.81409V1.81131V1.80853V1.80575V1.80297V1.80019V1.7974V1.79462V1.79184V1.78906V1.78628V1.7835V1.78072V1.77794V1.77516V1.77238V1.7696V1.76682V1.76404V1.76126V1.75847V1.75569V1.75291V1.75013V1.74735V1.74457V1.74179V1.73901V1.73623V1.73345V1.73067V1.72789V1.72511V1.72233V1.71954V1.71676V1.71398V1.7112V1.70842V1.70564V1.70286V1.70008V1.6973V1.69452V1.69174V1.68896V1.68618V1.6834V1.68061V1.67783V1.67505V1.67227V1.66949V1.66671V1.66393V1.66115V1.65837V1.65559V1.65281V1.65003V1.64725V1.64446V1.64168V1.6389V1.63612V1.63334V1.63056V1.62778V1.625V1.62222V1.61944V1.61666V1.61388V1.6111V1.60832V1.60553V1.60275V1.59997V1.59719V1.59441V1.59163V1.58885V1.58607V1.58329V1.58051V1.57773V1.57495V1.57217V1.56939V1.5666V1.56382V1.56104V1.55826V1.55548V1.5527V1.54992V1.54714V1.54436V1.54158V1.5388V1.53602V1.53324V1.53046V1.52767V1.52489V1.52211V1.51933V1.51655V1.51377V1.51099V1.50821V1.50543V1.50265V1.49987V1.49709V1.49431V1.49153V1.48874V1.48596V1.48318V1.4804V1.47762V1.47484V1.47206V1.46928V1.4665V1.46372V1.46094V1.45816V1.45538V1.4526V1.44981V1.44703V1.44425V1.44147V1.43869V1.43591V1.43313V1.43035V1.42757V1.42479V1.42201V1.41923V1.41645V1.41367V1.41088V1.4081V1.40532V1.40254V1.39976V1.39698V1.3942V1.39142V1.38864V1.38586V1.38308V1.3803V1.37752V1.37474V1.37195V1.36917V1.36639V1.36361V1.36083V1.35805V1.35527V1.35249V1.34971V1.34693V1.34415V1.34137V1.33859V1.33581V1.33302V1.33024V1.32746V1.32468V1.3219V1.31912V1.31634V1.31356V1.31078V1.308V1.30522V1.30244V1.29966V1.29688V1.29409V1.29131V1.28853V1.28575V1.28297V1.28019V1.27741V1.27463V1.27185V1.26907V1.26629V1.26351V1.26073V1.25794V1.25516V1.25238V1.2496V1.24682V1.24404V1.24126V1.23848V1.2357V1.23292V1.23014V1.22736V1.22458V1.2218V1.21901V1.21623V1.21345V1.21067V1.20789V1.20511V1.20233V1.19955V1.19677V1.19399V1.19121V1.18843V1.18565V1.18287V1.18008V1.1773V1.17452V1.17174V1.16896V1.16618V1.1634V1.16062V1.15784V1.15506V1.15228V1.1495V1.14672V1.14394V1.14115V1.13837V1.13559V1.13281V1.13003V1.12725V1.12447V1.12169V1.11891V1.11613V1.11335V1.11057V1.10779V1.10501V1.10222V1.09944V1.09666V1.09388V1.0911V1.08832V1.08554V1.08276V1.07998V1.0772V1.07442V1.07164V1.06886V1.06608V1.06329V1.06051V1.05773V1.05495V1.05217V1.04939V1.04661V1.04383V1.04105V1.03827V1.03549V1.03271V1.02993V1.02715V1.02436V1.02158V1.0188V1.01602V1.01324V1.01046V1.00768V1.0049V1.00212V0.999338V0.996557V0.993777V0.990996V0.988215V0.985434V0.982654V0.979873V0.977092V0.974311V0.971531V0.96875V0.965969V0.963189V0.960408V0.957627V0.954846V0.952066V0.949285V0.946504V0.943723V0.940943V0.938162V0.935381V0.932601V0.92982V0.927039V0.924258V0.921478V0.918697V0.915916V0.913136V0.910355V0.907574V0.904793V0.902013V0.899232V0.896451V0.893671V0.89089V0.888109V0.885328V0.882548V0.879767V0.876986V0.874206V0.871425V0.868644V0.865863V0.863083V0.860302V0.857521V0.854741V0.85196V0.849179V0.846398V0.843618V0.840837V0.838056V0.835275V0.832495V0.829714V0.826933V0.824153V0.821372V0.818591V0.81581V0.81303V0.810249V0.807468V0.804688V0.801907V0.799126V0.796345V0.793565V0.790784V0.788003V0.785222V0.782442V0.779661C35.3059 0.569547 35.373 0.407572 35.4783 0.298839C35.5834 0.190354 35.7361 0.125 35.9267 0.125C36.0976 0.125 36.2419 0.188461 36.344 0.297357C36.4464 0.406601 36.5135 0.569484 36.5135 0.779661V0.785222V0.790784V0.796345V0.801907V0.807468V0.81303V0.818591V0.824152V0.829714V0.835275V0.840837V0.846398V0.851959V0.857521V0.863082V0.868643V0.874204V0.879766V0.885327V0.890888V0.896449V0.90201V0.907571V0.913132V0.918693V0.924254V0.929815V0.935376V0.940937V0.946497V0.952058V0.957619V0.963179V0.96874V0.974301V0.979861V0.985422V0.990982V0.996542V1.0021V1.00766V1.01322V1.01878V1.02434V1.0299V1.03546V1.04102V1.04658V1.05214V1.0577V1.06326V1.06882V1.07438V1.07994V1.0855V1.09106V1.09662V1.10218V1.10773V1.11329V1.11885V1.12441V1.12997V1.13553V1.14109V1.14664V1.1522V1.15776V1.16332V1.16888V1.17443V1.17999V1.18555V1.19111V1.19666V1.20222V1.20778V1.21333V1.21889V1.22445V1.23V1.23556V1.24112V1.24667V1.25223V1.25778V1.26334V1.2689V1.27445V1.28001V1.28556V1.29112V1.29667V1.30223V1.30778V1.31334V1.31889V1.32444V1.33V1.33555V1.34111V1.34666V1.35221V1.35777V1.36332V1.36887V1.37443V1.37998V1.38553V1.39108V1.39664V1.40219V1.40774V1.41329V1.41884V1.42439V1.42994V1.4355V1.44105V1.4466V1.45215V1.4577V1.46325V1.4688V1.47435V1.4799V1.48545V1.491V1.49654V1.50209V1.50764V1.51319V1.51874V1.52429V1.52983V1.53538V1.54093V1.54648V1.55202V1.55757V1.56312V1.56866V1.57421V1.57975V1.5853V1.59085V1.59639V1.60194V1.60748V1.61302V1.61857V1.62411V1.62966V1.6352V1.64074V1.64629V1.65183V1.65737V1.66291V1.66846V1.674V1.67954V1.68508V1.69062V1.69616V1.7017V1.70725V1.71279V1.71833V1.72387V1.7294V1.73494V1.74048V1.74602V1.75156V1.7571V1.76264V1.76817V1.77371V1.77925V1.78478V1.79032V1.79586V1.80139V1.80693V1.81246V1.818V1.82353V1.82907V1.8346V1.84014V1.84567V1.8512V1.85674V1.86227V1.8678V1.87333V1.87887V1.8844V1.88993V1.89546V1.90099V1.90652V1.91205V1.91758V1.92311V1.92864V1.93417V1.9397V1.94522V1.95075V1.95628V1.96181V1.96733V1.97286V1.97839V1.98391V1.98944V1.99496V2.00049V2.00601V2.01154V2.01706V2.02258V2.02811V2.03363V2.03915V2.04468V2.0502V2.05572V2.06124V2.06676V2.07228V2.0778V2.08332V2.08884V2.09436V2.09988V2.1054V2.11092V2.11643V2.12195V2.12747V2.13298V2.1385V2.14402V2.14953V2.15505V2.16056V2.16607V2.17159V2.1771V2.18262V2.18813V2.19364V2.19915V2.20466V2.21018V2.21569V2.2212V2.22671V2.23222V2.23773V2.24323V2.24874V2.25425V2.25976V2.26527V2.27077V2.27628V2.28178V2.28729V2.2928V2.2983V2.3038V2.30931V2.31481V2.32032V2.32582V2.33132V2.33682V2.34232V2.34782V2.35332V2.35882V2.36432V2.36982V2.37532V2.38082V2.38632V2.39182V2.39731V2.40281V2.40831V2.4138V2.4193V2.42479V2.43029V2.43578V2.44127V2.44677V2.45226V2.45775V2.46324V2.46873V2.47423V2.47972V2.48521V2.49069V2.49618V2.50167V2.50716V2.51265V2.51813V2.52362V2.52911V2.53459V2.54008V2.54556V2.55105V2.55653V2.56201V2.5675V2.57298V2.57846V2.58394V2.58942V2.5949V2.60038V2.60586V2.61134V2.61682V2.62229V2.62777V2.63325V2.63872V2.6442V2.64968V2.65515V2.66062V2.6661V2.67157V2.67704V2.68252V2.68799V2.69346V2.69893V2.7044V2.70987V2.71534V2.7208V2.72627V2.73174V2.73721V2.74267V2.74814V2.7536V2.75907V2.76453V2.77V2.77546V2.78092V2.78638V2.79184V2.79731V2.80277V2.80823V2.81368V2.81914V2.8246V2.83006V2.83552V2.84097V2.84643V2.85188V2.85734V2.86279V2.86824V2.8737V2.87915V2.8846V2.89005V2.8955V2.90095V2.9064V2.91185V2.9173V2.92275V2.92819V2.93364V2.93909V2.94453V2.94998V2.95542V2.96086V2.96631V2.97175V2.97719V2.98263V2.98807V2.99351V2.99895V3.00439V3.00983V3.01527V3.0207V3.02614V3.03158V3.03701V3.04244V3.04788V3.05331V3.05874V3.06418V3.06961V3.07504V3.08047V3.0859V3.09133V3.09675V3.10218V3.10761V3.11303V3.11846V3.12389V3.12931V3.13473V3.14016V3.14558V3.151V3.15642V3.16184V3.16726V3.17268V3.1781V3.18352V3.18893V3.19435V3.19977V3.20518V3.21059V3.21601V3.22142V3.22683V3.23225V3.23766V3.24307V3.24848V3.25389V3.25929V3.2647V3.27011V3.27552V3.28092V3.28633V3.29173V3.29713V3.30254V3.30794V3.31334V3.31874V3.32414V3.32954V3.33494V3.34034V3.34573V3.35113V3.35653V3.36192V3.36732V3.37271V3.3781V3.3835V3.38889V3.39428V3.39967V3.40506V3.41045V3.41583V3.42122V3.42661V3.43199V3.43738V3.44276V3.44815V3.45353V3.45891V3.46429V3.46967V3.47505V3.48043V3.48581V3.49119V3.49657V3.50194V3.50732V3.51269V3.51807V3.52344V3.52881V3.53418V3.53955V3.54492V3.55029V3.55566V3.56103V3.5664V3.57176V3.57713V3.58249V3.58786V3.59322C36.5135 3.80727 36.4526 3.96966 36.3552 4.07708C36.2592 4.18307 36.1167 4.24788 35.9267 4.24788C35.7361 4.24788 35.5834 4.18253 35.4783 4.07404C35.373 3.96531 35.3059 3.80333 35.3059 3.59322V3.59064V3.58805V3.58547V3.58289V3.5803V3.57771V3.57513V3.57254V3.56995V3.56736V3.56477V3.56218V3.55959V3.557V3.5544V3.55181V3.54921V3.54662V3.54402V3.54143V3.53883V3.53623V3.53363V3.53103V3.52843V3.52583V3.52323V3.52062V3.51802V3.51541V3.51281V3.5102V3.5076V3.50499V3.50238V3.49977V3.49716V3.49455V3.49194V3.48933V3.48672V3.48411V3.48149V3.47888V3.47626V3.47365V3.47103V3.46841V3.4658V3.46318V3.46056V3.45794V3.45532V3.4527V3.45007V3.44745V3.44483V3.4422V3.43958V3.43695V3.43433V3.4317V3.42907V3.42644V3.42381V3.42118V3.41855V3.41592V3.41329V3.41066V3.40803V3.40539V3.40276V3.40012V3.39749V3.39485V3.39221V3.38958V3.38694V3.3843V3.38166V3.37902V3.37638V3.37374V3.37109V3.36845V3.36581V3.36316V3.36052V3.35787V3.35523V3.35258V3.34993V3.34729V3.34464V3.34199V3.33934V3.33669V3.33404V3.33138V3.32873V3.32608V3.32342V3.32077V3.31812V3.31546V3.3128V3.31015V3.30749V3.30483V3.30217V3.29951V3.29685V3.29419V3.29153V3.28887V3.28621V3.28355V3.28088V3.27822V3.27555V3.27289V3.27022V3.26756V3.26489V3.26222V3.25955V3.25689V3.25422V3.25155V3.24888V3.2462V3.24353V3.24086V3.23819V3.23552V3.23284V3.23017V3.22749V3.22482V3.22214V3.21946V3.21679V3.21411V3.21143V3.20875V3.20607V3.20339V3.20071V3.19803V3.19535V3.19267V3.18998V3.1873V3.18462V3.18193V3.17925V3.17656V3.17387V3.17119V3.1685V3.16581V3.16313V3.16044V3.15775V3.15506V3.15237V3.14968V3.14699V3.14429V3.1416V3.13891V3.13621V3.13352V3.13083V3.12813V3.12544V3.12274V3.12004V3.11735V3.11465V3.11195V3.10925V3.10655V3.10385V3.10115V3.09845V3.09575V3.09305V3.09035V3.08765V3.08494V3.08224V3.07954V3.07683V3.07413V3.07142V3.06872V3.06601V3.0633V3.0606V3.05789V3.05518V3.05247V3.04976V3.04705V3.04434V3.04163V3.03892V3.03621V3.0335V3.03079V3.02807V3.02536V3.02265V3.01993V3.01722V3.0145V3.01179V3.00907V3.00636V3.00364V3.00092V2.9982V2.99549V2.99277V2.99005V2.98733V2.98461V2.98189V2.97917V2.97645V2.97373V2.971V2.96828V2.96556V2.96284V2.96011V2.95739V2.95466V2.95194V2.94921V2.94649V2.94376V2.94103V2.93831V2.93558V2.93285V2.93012V2.9274V2.92467V2.92194V2.91921V2.91648V2.91375V2.91102V2.90829V2.90555V2.90282V2.90009V2.89736V2.89462V2.89189V2.88916V2.88642V2.88369V2.88095V2.87822V2.87548V2.87274V2.87001V2.86727V2.86453V2.8618V2.85906V2.85632V2.85358V2.85084V2.8481V2.84536V2.84262V2.83988V2.83714V2.8344V2.83166V2.82892V2.82617V2.82343V2.82069V2.81795V2.8152V2.81246V2.80971V2.80697V2.80423V2.80148V2.79873V2.79599V2.79324V2.7905V2.78775V2.785V2.78225V2.77951V2.77676V2.77401V2.77126V2.76851V2.76576V2.76301V2.76026V2.75751V2.75476V2.75201V2.74926V2.74651V2.74376V2.74101V2.73825V2.7355V2.73275V2.72999V2.72724V2.72449V2.72173V2.71898V2.71622V2.71347V2.71071V2.70796V2.7052V2.70245V2.69969V2.69693V2.69418V2.69142V2.68866V2.6859V2.68315V2.68039V2.67763V2.67487V2.67211V2.66935V2.66659V2.66383V2.66107V2.65831V2.65555V2.65279V2.65003V2.64727V2.64451V2.64175V2.63899V2.63622V2.63346V2.6307V2.62794V2.62517V2.62241V2.61965V2.61688V2.61412V2.61135V2.60859V2.60582V2.60306V2.60029V2.59753V2.59476V2.592V2.58923V2.58647V2.5837V2.58093V2.57817V2.5754V2.57263V2.56986V2.5671V2.56433V2.56156V2.55879V2.55602V2.55326V2.55049V2.54772V2.54495V2.54218V2.53941V2.53664V2.53387V2.5311V2.52833V2.52556V2.52279V2.52002V2.51725V2.51448V2.5117V2.50893V2.50616V2.50339V2.50062V2.49785V2.49507V2.4923V2.48953V2.48676V2.48398V2.48121V2.47844V2.47566V2.47289V2.47012V2.46734V2.46457V2.46179V2.45902V2.45624V2.45347V2.4507V2.44792V2.44515V2.44237V2.4396V2.43682V2.43405V2.43127V2.42849V2.42572V2.42294V2.42017V2.41739V2.41461V2.41184V2.40906V2.40628V2.40351V2.40073V2.39795V2.39518V2.3924V2.38962V2.38684V2.38407V2.38129V2.37851V2.37573V2.37296V2.37018V2.3674V2.36462V2.36184V2.35907V2.35629V2.35351V2.35073V2.34795V2.34517V2.34239V2.33962V2.33684V2.33406V2.33128V2.3285V2.32572V2.32294V2.32016V2.31738V2.3146V2.31182V2.30904V2.30626V2.30348V2.3007V2.29792V2.29514V2.29236V2.28958V2.2868V2.28402V2.28124V2.27846V2.27568V2.2729V2.27012V2.26734V2.26456V2.26178V2.259V2.25622V2.25344V2.25066V2.24788V2.2451V2.24232V2.23954V2.23676V2.23398V2.2312V2.22842V2.22564V2.22285V2.22007V2.21729V2.21451V2.21173V2.20895V2.20617V2.20339Z" fill="#BEFF33" stroke="#151515" stroke-width="0.25"/>
<path d="M30.7741 9.3326H30.7617L30.7496 9.33503C30.3568 9.41359 29.9878 9.40842 29.6082 9.40311C29.5119 9.40176 29.4148 9.4004 29.3165 9.4004H29.3137H29.3109H29.3081H29.3053H29.3026H29.2998H29.297H29.2942H29.2914H29.2887H29.2859H29.2831H29.2803H29.2775H29.2748H29.272H29.2692H29.2664H29.2636H29.2608H29.2581H29.2553H29.2525H29.2497H29.2469H29.2442H29.2414H29.2386H29.2358H29.233H29.2303H29.2275H29.2247H29.2219H29.2191H29.2164H29.2136H29.2108H29.208H29.2052H29.2025H29.1997H29.1969H29.1941H29.1913H29.1885H29.1858H29.183H29.1802H29.1774H29.1746H29.1719H29.1691H29.1663H29.1635H29.1607H29.158H29.1552H29.1524H29.1496H29.1468H29.1441H29.1413H29.1385H29.1357H29.1329H29.1302H29.1274H29.1246H29.1218H29.119H29.1163H29.1135H29.1107H29.1079H29.1051H29.1023H29.0996H29.0968H29.094H29.0912H29.0884H29.0857H29.0829H29.0801H29.0773H29.0745H29.0718H29.069H29.0662H29.0634H29.0606H29.0579H29.0551H29.0523H29.0495H29.0467H29.044H29.0412H29.0384H29.0356H29.0328H29.03H29.0273H29.0245H29.0217H29.0189H29.0161H29.0134H29.0106H29.0078H29.005H29.0022H28.9995H28.9967H28.9939H28.9911H28.9883H28.9856H28.9828H28.98H28.9772H28.9744H28.9717H28.9689H28.9661H28.9633H28.9605H28.9577H28.955H28.9522H28.9494H28.9466H28.9438H28.9411H28.9383H28.9355H28.9327H28.9299H28.9272H28.9244H28.9216H28.9188H28.916H28.9133H28.9105H28.9077H28.9049H28.9021H28.8994H28.8966H28.8938H28.891H28.8882H28.8855H28.8827H28.8799H28.8771H28.8743H28.8715H28.8688H28.866H28.8632H28.8604H28.8576H28.8549H28.8521H28.8493H28.8465H28.8437H28.841H28.8382H28.8354H28.8326H28.8298H28.8271H28.8243H28.8215H28.8187H28.8159H28.8132H28.8104H28.8076H28.8048H28.802H28.7992H28.7965H28.7937H28.7909H28.7881H28.7853H28.7826H28.7798H28.777H28.7742H28.7714H28.7687H28.7659H28.7631H28.7603H28.7575H28.7548H28.752H28.7492H28.7464H28.7436H28.7409H28.7381H28.7353H28.7325H28.7297H28.7269H28.7242H28.7214H28.7186H28.7158H28.713H28.7103H28.7075H28.7047H28.7019H28.6991H28.6964H28.6936H28.6908H28.688H28.6852H28.6825H28.6797H28.6769H28.6741H28.6713H28.6686H28.6658H28.663H28.6602H28.6574H28.6547H28.6519H28.6491H28.6463H28.6435H28.6407H28.638H28.6352H28.6324H28.6296H28.6268H28.6241H28.6213H28.6185H28.6157H28.6129H28.6102H28.6074H28.6046H28.6018H28.599H28.5963H28.5935H28.5907H28.5879H28.5851H28.5824H28.5796H28.5768H28.574H28.5712H28.5684H28.5657H28.5629H28.5601H28.5573H28.5545H28.5518H28.549H28.5462H28.5434H28.5406H28.5379H28.5351H28.5323H28.5295H28.5267H28.524H28.5212H28.5184H28.5156H28.5128H28.5101H28.5073H28.5045H28.5017H28.4989H28.4962H28.4934H28.4906H28.4878H28.485H28.4822H28.4795H28.4767H28.4739H28.4711H28.4683H28.4656H28.4628H28.46H28.4572H28.4544H28.4517H28.4489H28.4461H28.4433H28.4405H28.4378H28.435H28.4322H28.4294H28.4266H28.4239H28.4211H28.4183H28.4155H28.4127H28.4099H28.4072H28.4044H28.4016H28.3988H28.396H28.3933H28.3905H28.3877H28.3849H28.3821H28.3794H28.3766H28.3738H28.371H28.3682H28.3655H28.3627H28.3599H28.3571H28.3543H28.3516H28.3488H28.346H28.3432H28.3404H28.3376H28.3349H28.3321H28.3293H28.3265H28.3237H28.321H28.3182H28.3154H28.3126H28.3098H28.3071H28.3043H28.3015H28.2987H28.2959H28.2932H28.2904H28.2876H28.2848H28.282H28.2793H28.2765H28.2737H28.2709H28.2681H28.2654H28.2626H28.2598H28.257H28.2542H28.2514H28.2487H28.2459H28.2431H28.2403H28.2375H28.2348H28.232H28.2292H28.2264H28.2236H28.2209H28.2181H28.2153H28.2125H28.2097H28.207H28.2042H28.2014H28.1986H28.1958H28.1931H28.1903H28.1875H28.1847H28.1819H28.1791H28.1764H28.1736H28.1708H28.168H28.1652H28.1625H28.1597H28.1569H28.1541H28.1513H28.1486H28.1458H28.143H28.1402H28.1374H28.1347H28.1319H28.1291H28.1263H28.1235H28.1208H28.118H28.1152H28.1124H28.1096H28.1068H28.1041H28.1013H28.0985H28.0957H28.0929H28.0902H28.0874H28.0846H28.0818H28.079H28.0763H28.0735H28.0707H28.0679H28.0651H28.0624H28.0596H28.0568H28.054H28.0512H28.0485H28.0457H28.0429H28.0401H28.0373H28.0346H28.0318H28.029H28.0262H28.0234H28.0206H28.0179H28.0151H28.0123H28.0095H28.0067H28.004H28.0012H27.9984H27.9956H27.9928H27.9901H27.9873H27.9845H27.9817H27.9789H27.9762H27.9734H27.9706H27.9678H27.965H27.9623H27.9595H27.9567H27.9539H27.9511H27.9483H27.9456H27.9428H27.94H27.9372H27.9344H27.9317H27.9289H27.9261H27.9233H27.9205H27.9178H27.915H27.9122H27.9094H27.9066H27.9039H27.9011H27.8983H27.8955H27.8927C27.683 9.4004 27.5313 9.3337 27.4317 9.23085C27.3315 9.12733 27.272 8.97442 27.272 8.77964C27.272 8.58997 27.3367 8.44548 27.4415 8.34404C27.5469 8.24202 27.7022 8.17477 27.8977 8.15887H27.8983H27.9039H27.9094H27.915H27.9206H27.9261H27.9317H27.9373H27.9428H27.9484H27.954H27.9595H27.9651H27.9707H27.9762H27.9818H27.9874H27.993H27.9985H28.0041H28.0097H28.0153H28.0208H28.0264H28.032H28.0376H28.0432H28.0487H28.0543H28.0599H28.0655H28.0711H28.0767H28.0823H28.0878H28.0934H28.099H28.1046H28.1102H28.1158H28.1214H28.127H28.1326H28.1381H28.1437H28.1493H28.1549H28.1605H28.1661H28.1717H28.1773H28.1829H28.1885H28.1941H28.1997H28.2053H28.2109H28.2165H28.2221H28.2277H28.2333H28.2389H28.2445H28.2501H28.2557H28.2613H28.2669H28.2725H28.2782H28.2838H28.2894H28.295H28.3006H28.3062H28.3118H28.3174H28.323H28.3286H28.3343H28.3399H28.3455H28.3511H28.3567H28.3623H28.3679H28.3736H28.3792H28.3848H28.3904H28.396H28.4017H28.4073H28.4129H28.4185H28.4241H28.4298H28.4354H28.441H28.4466H28.4523H28.4579H28.4635H28.4691H28.4748H28.4804H28.486H28.4916H28.4973H28.5029H28.5085H28.5141H28.5198H28.5254H28.531H28.5367H28.5423H28.5479H28.5536H28.5592H28.5648H28.5705H28.5761H28.5817H28.5874H28.593H28.5986H28.6043H28.6099H28.6155H28.6212H28.6268H28.6324H28.6381H28.6437H28.6494H28.655H28.6606H28.6663H28.6719H28.6776H28.6832H28.6888H28.6945H28.7001H28.7058H28.7114H28.717H28.7227H28.7283H28.734H28.7396H28.7453H28.7509H28.7566H28.7622H28.7678H28.7735H28.7791H28.7848H28.7904H28.7961H28.8017H28.8074H28.813H28.8187H28.8243H28.83H28.8356H28.8413H28.8469H28.8526H28.8582H28.8639H28.8695H28.8752H28.8808H28.8865H28.8921H28.8978H28.9034H28.9091H28.9147H28.9204H28.926H28.9317H28.9373H28.943H28.9486H28.9543H28.9599H28.9656H28.9713H28.9769H28.9826H28.9882H28.9939H28.9995H29.0052H29.0108H29.0165H29.0222H29.0278H29.0335H29.0391H29.0448H29.0504H29.0561H29.0618H29.0674H29.0731H29.0787H29.0844H29.09H29.0957H29.1014H29.107H29.1127H29.1183H29.124H29.1296H29.1353H29.141H29.1466H29.1523H29.1579H29.1636H29.1693H29.1749H29.1806H29.1862H29.1919H29.1976H29.2032H29.2089H29.2145H29.2202H29.2259H29.2315H29.2372H29.2428H29.2485H29.2542H29.2598H29.2655H29.2711H29.2768H29.2825H29.2881H29.2938H29.2994H29.3051H29.3108H29.3164H29.3221H29.3278H29.3334H29.3391H29.3447H29.3504H29.3561H29.3617H29.3674H29.373H29.3787H29.3844H29.39H29.3957H29.4013H29.407H29.4127H29.4183H29.424H29.4296H29.4353H29.441H29.4466H29.4523H29.4579H29.4636H29.4693H29.4749H29.4806H29.4862H29.4919H29.4976H29.5032H29.5089H29.5145H29.5202H29.5259H29.5315H29.5372H29.5428H29.5485H29.5542H29.5598H29.5655H29.5711H29.5768H29.5824H29.5881H29.5938H29.5994H29.6051H29.6107H29.6164H29.622H29.6277H29.6334H29.639H29.6447H29.6503H29.656H29.6616H29.6673H29.6729H29.6786H29.6843H29.6899H29.6956H29.7012H29.7069H29.7125H29.7182H29.7238H29.7295H29.7351H29.7408H29.7465H29.7521H29.7578H29.7634H29.7691H29.7747H29.7804H29.786H29.7917H29.7973H29.803H29.8086H29.8143H29.8199H29.8256H29.8312H29.8369H29.8425H29.8482H29.8538H29.8595H29.8651H29.8708H29.8764H29.882H29.8877H29.8933H29.899H29.9046H29.9103H29.9159H29.9216H29.9272H29.9329H29.9385H29.9441H29.9498H29.9554H29.9611H29.9667H29.9723H29.978H29.9836H29.9893H29.9949H30.0006H30.0062H30.0118H30.0175H30.0231H30.0287H30.0344H30.04H30.0457H30.0513H30.0569H30.0626H30.0682H30.0738H30.0795H30.0851H30.0907H30.0964H30.102H30.1076H30.1133H30.1189H30.1245H30.1302H30.1358H30.1414H30.1471H30.1527H30.1583H30.1639H30.1696H30.1752H30.1808H30.1864H30.1921H30.1977H30.2033H30.2089H30.2146H30.2202H30.2258H30.2314H30.2371H30.2427H30.2483H30.2539H30.2595H30.2652H30.2708H30.2764H30.282H30.2876H30.2933H30.2989H30.3045H30.3101H30.3157H30.3213H30.327H30.3326H30.3382H30.3438H30.3494H30.355H30.3606H30.3662H30.3718H30.3775H30.3831H30.3887H30.3943H30.3999H30.4055H30.4111H30.4167H30.4223H30.4279H30.4335H30.4391H30.4447H30.4503H30.4559H30.4615H30.4671H30.4727H30.4783H30.4839H30.4895H30.4951H30.5007H30.5063H30.5119H30.5175H30.5231H30.5287H30.5343H30.5399H30.5455H30.551H30.5566H30.5622H30.5678H30.5734H30.579H30.5846H30.5902H30.5957H30.6013H30.6069H30.6125H30.6181H30.6237H30.6292H30.6348H30.6404H30.646H30.6516H30.6571H30.6627H30.6683H30.6739H30.6794H30.685H30.6906H30.6962H30.7017H30.7073H30.7129H30.7184H30.724H30.7296H30.7351H30.7407H30.7463H30.7518H30.7574H30.763H30.7685H30.7741C30.9839 8.15887 31.1366 8.22568 31.2365 8.32565C31.3369 8.42598 31.3949 8.57044 31.3949 8.74574C31.3949 8.93589 31.3299 9.07925 31.2268 9.17564C31.1228 9.27295 30.969 9.3326 30.7741 9.3326Z" fill="#BEFF33" stroke="#151515" stroke-width="0.25"/>
<path d="M42.5029 8.19281H42.5057H42.5085H42.5112H42.514H42.5168H42.5196H42.5224H42.5252H42.5279H42.5307H42.5335H42.5363H42.5391H42.5419H42.5447H42.5475H42.5503H42.5531H42.5559H42.5587H42.5615H42.5642H42.567H42.5698H42.5726H42.5754H42.5782H42.581H42.5838H42.5866H42.5894H42.5923H42.5951H42.5979H42.6007H42.6035H42.6063H42.6091H42.6119H42.6147H42.6175H42.6203H42.6231H42.6259H42.6288H42.6316H42.6344H42.6372H42.64H42.6428H42.6456H42.6485H42.6513H42.6541H42.6569H42.6597H42.6626H42.6654H42.6682H42.671H42.6738H42.6767H42.6795H42.6823H42.6851H42.688H42.6908H42.6936H42.6964H42.6993H42.7021H42.7049H42.7078H42.7106H42.7134H42.7162H42.7191H42.7219H42.7247H42.7276H42.7304H42.7332H42.7361H42.7389H42.7417H42.7446H42.7474H42.7503H42.7531H42.7559H42.7588H42.7616H42.7644H42.7673H42.7701H42.773H42.7758H42.7787H42.7815H42.7843H42.7872H42.79H42.7929H42.7957H42.7986H42.8014H42.8042H42.8071H42.8099H42.8128H42.8156H42.8185H42.8213H42.8242H42.827H42.8299H42.8327H42.8356H42.8384H42.8413H42.8441H42.847H42.8498H42.8527H42.8556H42.8584H42.8613H42.8641H42.867H42.8698H42.8727H42.8755H42.8784H42.8813H42.8841H42.887H42.8898H42.8927H42.8955H42.8984H42.9013H42.9041H42.907H42.9098H42.9127H42.9156H42.9184H42.9213H42.9242H42.927H42.9299H42.9327H42.9356H42.9385H42.9413H42.9442H42.9471H42.9499H42.9528H42.9557H42.9585H42.9614H42.9643H42.9671H42.97H42.9729H42.9757H42.9786H42.9815H42.9843H42.9872H42.9901H42.9929H42.9958H42.9987H43.0016H43.0044H43.0073H43.0102H43.013H43.0159H43.0188H43.0217H43.0245H43.0274H43.0303H43.0331H43.036H43.0389H43.0418H43.0446H43.0475H43.0504H43.0533H43.0561H43.059H43.0619H43.0648H43.0676H43.0705H43.0734H43.0763H43.0791H43.082H43.0849H43.0878H43.0906H43.0935H43.0964H43.0993H43.1021H43.105H43.1079H43.1108H43.1137H43.1165H43.1194H43.1223H43.1252H43.128H43.1309H43.1338H43.1367H43.1396H43.1424H43.1453H43.1482H43.1511H43.154H43.1568H43.1597H43.1626H43.1655H43.1683H43.1712H43.1741H43.177H43.1799H43.1827H43.1856H43.1885H43.1914H43.1943H43.1971H43.2H43.2029H43.2058H43.2087H43.2115H43.2144H43.2173H43.2202H43.2231H43.2259H43.2288H43.2317H43.2346H43.2375H43.2403H43.2432H43.2461H43.249H43.2519H43.2547H43.2576H43.2605H43.2634H43.2663H43.2691H43.272H43.2749H43.2778H43.2807H43.2835H43.2864H43.2893H43.2922H43.2951H43.2979H43.3008H43.3037H43.3066H43.3095H43.3123H43.3152H43.3181H43.321H43.3238H43.3267H43.3296H43.3325H43.3354H43.3382H43.3411H43.344H43.3469H43.3497H43.3526H43.3555H43.3584H43.3613H43.3641H43.367H43.3699H43.3728H43.3756H43.3785H43.3814H43.3843H43.3871H43.39H43.3929H43.3958H43.3986H43.4015H43.4044H43.4073H43.4101H43.413H43.4159H43.4188H43.4216H43.4245H43.4274H43.4303H43.4331H43.436H43.4389H43.4417H43.4446H43.4475H43.4504H43.4532H43.4561H43.459H43.4618H43.4647H43.4676H43.4705H43.4733H43.4762H43.4791H43.4819H43.4848H43.4877H43.4905H43.4934H43.4963H43.4991H43.502H43.5049H43.5077H43.5106H43.5135H43.5163H43.5192H43.5221H43.5249H43.5278H43.5307H43.5335H43.5364H43.5392H43.5421H43.545H43.5478H43.5507H43.5536H43.5564H43.5593H43.5621H43.565H43.5679H43.5707H43.5736H43.5764H43.5793H43.5821H43.585H43.5879H43.5907H43.5936H43.5964H43.5993H43.6021H43.605H43.6079H43.6107H43.6136H43.6164H43.6193H43.6221H43.625H43.6278H43.6307H43.6335H43.6364H43.6392H43.6421H43.6449H43.6478H43.6506H43.6535H43.6563H43.6592H43.662H43.6648H43.6677H43.6705H43.6734H43.6762H43.6791H43.6819H43.6848H43.6876H43.6904H43.6933H43.6961H43.699H43.7018H43.7046H43.7075H43.7103H43.7132H43.716H43.7188H43.7217H43.7245H43.7273H43.7302H43.733H43.7358H43.7387H43.7415H43.7443H43.7472H43.75H43.7528H43.7557H43.7585H43.7613H43.7641H43.767H43.7698H43.7726H43.7754H43.7783H43.7811H43.7839H43.7867H43.7896H43.7924H43.7952H43.798H43.8008H43.8037H43.8065H43.8093H43.8121H43.8149H43.8178H43.8206H43.8234H43.8262H43.829H43.8318H43.8346H43.8375H43.8403H43.8431H43.8459H43.8487H43.8515H43.8543H43.8571H43.8599H43.8627H43.8655H43.8683H43.8712H43.874H43.8768H43.8796H43.8824H43.8852H43.888H43.8908H43.8936H43.8964H43.8992H43.902H43.9047H43.9075H43.9103H43.9131H43.9159H43.9187H43.9215H43.9243H43.9271H43.9299H43.9327H43.9355H43.9382H43.941H43.9438H43.9466H43.9494H43.9522H43.955H43.9577H43.9605C44.1503 8.19281 44.2957 8.2577 44.3976 8.35959C44.4996 8.46161 44.5655 8.60842 44.5813 8.78489C44.5802 8.97719 44.5208 9.12829 44.4215 9.23088C44.322 9.33374 44.1702 9.40044 43.9605 9.40044H43.9548H43.949H43.9432H43.9375H43.9317H43.926H43.9202H43.9145H43.9087H43.903H43.8972H43.8914H43.8857H43.8799H43.8742H43.8685H43.8627H43.857H43.8512H43.8455H43.8397H43.834H43.8282H43.8225H43.8167H43.811H43.8053H43.7995H43.7938H43.788H43.7823H43.7766H43.7708H43.7651H43.7594H43.7536H43.7479H43.7422H43.7364H43.7307H43.725H43.7192H43.7135H43.7078H43.7021H43.6963H43.6906H43.6849H43.6791H43.6734H43.6677H43.662H43.6562H43.6505H43.6448H43.6391H43.6334H43.6276H43.6219H43.6162H43.6105H43.6048H43.599H43.5933H43.5876H43.5819H43.5762H43.5705H43.5648H43.559H43.5533H43.5476H43.5419H43.5362H43.5305H43.5248H43.5191H43.5134H43.5076H43.5019H43.4962H43.4905H43.4848H43.4791H43.4734H43.4677H43.462H43.4563H43.4506H43.4449H43.4392H43.4335H43.4278H43.4221H43.4164H43.4107H43.405H43.3993H43.3936H43.3879H43.3822H43.3765H43.3708H43.3651H43.3594H43.3537H43.348H43.3423H43.3366H43.3309H43.3252H43.3195H43.3139H43.3082H43.3025H43.2968H43.2911H43.2854H43.2797H43.274H43.2683H43.2626H43.257H43.2513H43.2456H43.2399H43.2342H43.2285H43.2228H43.2172H43.2115H43.2058H43.2001H43.1944H43.1887H43.1831H43.1774H43.1717H43.166H43.1603H43.1546H43.149H43.1433H43.1376H43.1319H43.1262H43.1206H43.1149H43.1092H43.1035H43.0979H43.0922H43.0865H43.0808H43.0751H43.0695H43.0638H43.0581H43.0524H43.0468H43.0411H43.0354H43.0297H43.0241H43.0184H43.0127H43.0071H43.0014H42.9957H42.99H42.9844H42.9787H42.973H42.9673H42.9617H42.956H42.9503H42.9447H42.939H42.9333H42.9277H42.922H42.9163H42.9107H42.905H42.8993H42.8936H42.888H42.8823H42.8766H42.871H42.8653H42.8596H42.854H42.8483H42.8426H42.837H42.8313H42.8256H42.82H42.8143H42.8086H42.803H42.7973H42.7917H42.786H42.7803H42.7747H42.769H42.7633H42.7577H42.752H42.7463H42.7407H42.735H42.7294H42.7237H42.718H42.7124H42.7067H42.701H42.6954H42.6897H42.684H42.6784H42.6727H42.6671H42.6614H42.6557H42.6501H42.6444H42.6388H42.6331H42.6274H42.6218H42.6161H42.6104H42.6048H42.5991H42.5935H42.5878H42.5821H42.5765H42.5708H42.5652H42.5595H42.5538H42.5482H42.5425H42.5369H42.5312H42.5255H42.5199H42.5142H42.5085H42.5029H42.4972H42.4916H42.4859H42.4802H42.4746H42.4689H42.4633H42.4576H42.4519H42.4463H42.4406H42.435H42.4293H42.4236H42.418H42.4123H42.4067H42.401H42.3953H42.3897H42.384H42.3783H42.3727H42.367H42.3614H42.3557H42.35H42.3444H42.3387H42.3331H42.3274H42.3217H42.3161H42.3104H42.3047H42.2991H42.2934H42.2878H42.2821H42.2764H42.2708H42.2651H42.2594H42.2538H42.2481H42.2424H42.2368H42.2311H42.2255H42.2198H42.2141H42.2085H42.2028H42.1971H42.1915H42.1858H42.1801H42.1745H42.1688H42.1631H42.1575H42.1518H42.1461H42.1405H42.1348H42.1291H42.1235H42.1178H42.1121H42.1065H42.1008H42.0951H42.0895H42.0838H42.0781H42.0725H42.0668H42.0611H42.0554H42.0498H42.0441H42.0384H42.0328H42.0271H42.0214H42.0157H42.0101H42.0044H41.9987H41.9931H41.9874H41.9817H41.976H41.9704H41.9647H41.959H41.9533H41.9477H41.942H41.9363H41.9306H41.925H41.9193H41.9136H41.9079H41.9022H41.8966H41.8909H41.8852H41.8795H41.8739H41.8682H41.8625H41.8568H41.8511H41.8455H41.8398H41.8341H41.8284H41.8227H41.817H41.8114H41.8057H41.8H41.7943H41.7886H41.7829H41.7773H41.7716H41.7659H41.7602H41.7545H41.7488H41.7431H41.7374H41.7318H41.7261H41.7204H41.7147H41.709H41.7033H41.6976H41.6919H41.6862H41.6805H41.6748H41.6692H41.6635H41.6578H41.6521H41.6464H41.6407H41.635H41.6293H41.6236H41.6179H41.6122H41.6065H41.6008H41.5951H41.5894H41.5837H41.578H41.5723H41.5666H41.5609H41.5552H41.5495H41.5438H41.5381H41.5324H41.5267H41.521H41.5153H41.5096H41.5038H41.4981H41.4924H41.4867H41.481H41.4753H41.4696H41.4639H41.4582H41.4525H41.4467H41.441H41.4353H41.4296H41.4239H41.4182H41.4125H41.4067H41.401H41.3953H41.3896H41.3839H41.3781H41.3724H41.3667H41.361H41.3553H41.3495H41.3438H41.3381H41.3324H41.3266H41.3209H41.3152H41.3095H41.3037H41.298H41.2923H41.2865H41.2808H41.2751H41.2693H41.2636H41.2579H41.2521H41.2464H41.2407H41.2349H41.2292H41.2235H41.2177H41.212H41.2063H41.2005H41.1948H41.189H41.1833H41.1775H41.1718H41.1661H41.1603H41.1546H41.1488H41.1431H41.1373H41.1316H41.1258H41.1201H41.1143H41.1086H41.1028H41.0971H41.0913H41.0856H41.0798H41.0741H41.0683H41.0625H41.0568H41.051H41.0453C40.8545 9.40044 40.701 9.33493 40.5955 9.22942C40.49 9.12391 40.4245 8.97042 40.4245 8.77967C40.4245 8.44576 40.6697 8.19281 41.0453 8.19281H42.5029Z" fill="#BEFF33" stroke="#151515" stroke-width="0.25"/>
<path d="M36.48 13.9757L36.4797 13.9757L36.4809 13.9838C36.53 14.3275 36.5241 14.6678 36.5179 15.0333C36.5157 15.16 36.5135 15.2898 36.5135 15.4237V15.4265V15.4293V15.4321V15.4348V15.4376V15.4404V15.4432V15.446V15.4488V15.4515V15.4543V15.4571V15.4599V15.4627V15.4654V15.4682V15.471V15.4738V15.4766V15.4793V15.4821V15.4849V15.4877V15.4905V15.4932V15.496V15.4988V15.5016V15.5044V15.5071V15.5099V15.5127V15.5155V15.5183V15.5211V15.5238V15.5266V15.5294V15.5322V15.535V15.5377V15.5405V15.5433V15.5461V15.5489V15.5516V15.5544V15.5572V15.56V15.5628V15.5655V15.5683V15.5711V15.5739V15.5767V15.5794V15.5822V15.585V15.5878V15.5906V15.5934V15.5961V15.5989V15.6017V15.6045V15.6073V15.61V15.6128V15.6156V15.6184V15.6212V15.6239V15.6267V15.6295V15.6323V15.6351V15.6378V15.6406V15.6434V15.6462V15.649V15.6517V15.6545V15.6573V15.6601V15.6629V15.6656V15.6684V15.6712V15.674V15.6768V15.6796V15.6823V15.6851V15.6879V15.6907V15.6935V15.6962V15.699V15.7018V15.7046V15.7074V15.7101V15.7129V15.7157V15.7185V15.7213V15.724V15.7268V15.7296V15.7324V15.7352V15.7379V15.7407V15.7435V15.7463V15.7491V15.7519V15.7546V15.7574V15.7602V15.763V15.7658V15.7685V15.7713V15.7741V15.7769V15.7797V15.7824V15.7852V15.788V15.7908V15.7936V15.7963V15.7991V15.8019V15.8047V15.8075V15.8102V15.813V15.8158V15.8186V15.8214V15.8242V15.8269V15.8297V15.8325V15.8353V15.8381V15.8408V15.8436V15.8464V15.8492V15.852V15.8547V15.8575V15.8603V15.8631V15.8659V15.8686V15.8714V15.8742V15.877V15.8798V15.8825V15.8853V15.8881V15.8909V15.8937V15.8964V15.8992V15.902V15.9048V15.9076V15.9104V15.9131V15.9159V15.9187V15.9215V15.9243V15.927V15.9298V15.9326V15.9354V15.9382V15.9409V15.9437V15.9465V15.9493V15.9521V15.9548V15.9576V15.9604V15.9632V15.966V15.9687V15.9715V15.9743V15.9771V15.9799V15.9827V15.9854V15.9882V15.991V15.9938V15.9966V15.9993V16.0021V16.0049V16.0077V16.0105V16.0132V16.016V16.0188V16.0216V16.0244V16.0271V16.0299V16.0327V16.0355V16.0383V16.041V16.0438V16.0466V16.0494V16.0522V16.055V16.0577V16.0605V16.0633V16.0661V16.0689V16.0716V16.0744V16.0772V16.08V16.0828V16.0855V16.0883V16.0911V16.0939V16.0967V16.0994V16.1022V16.105V16.1078V16.1106V16.1133V16.1161V16.1189V16.1217V16.1245V16.1272V16.13V16.1328V16.1356V16.1384V16.1412V16.1439V16.1467V16.1495V16.1523V16.1551V16.1578V16.1606V16.1634V16.1662V16.169V16.1717V16.1745V16.1773V16.1801V16.1829V16.1856V16.1884V16.1912V16.194V16.1968V16.1995V16.2023V16.2051V16.2079V16.2107V16.2135V16.2162V16.219V16.2218V16.2246V16.2274V16.2301V16.2329V16.2357V16.2385V16.2413V16.244V16.2468V16.2496V16.2524V16.2552V16.2579V16.2607V16.2635V16.2663V16.2691V16.2718V16.2746V16.2774V16.2802V16.283V16.2857V16.2885V16.2913V16.2941V16.2969V16.2997V16.3024V16.3052V16.308V16.3108V16.3136V16.3163V16.3191V16.3219V16.3247V16.3275V16.3302V16.333V16.3358V16.3386V16.3414V16.3441V16.3469V16.3497V16.3525V16.3553V16.358V16.3608V16.3636V16.3664V16.3692V16.372V16.3747V16.3775V16.3803V16.3831V16.3859V16.3886V16.3914V16.3942V16.397V16.3998V16.4025V16.4053V16.4081V16.4109V16.4137V16.4164V16.4192V16.422V16.4248V16.4276V16.4303V16.4331V16.4359V16.4387V16.4415V16.4443V16.447V16.4498V16.4526V16.4554V16.4582V16.4609V16.4637V16.4665V16.4693V16.4721V16.4748V16.4776V16.4804V16.4832V16.486V16.4887V16.4915V16.4943V16.4971V16.4999V16.5026V16.5054V16.5082V16.511V16.5138V16.5165V16.5193V16.5221V16.5249V16.5277V16.5305V16.5332V16.536V16.5388V16.5416V16.5444V16.5471V16.5499V16.5527V16.5555V16.5583V16.561V16.5638V16.5666V16.5694V16.5722V16.5749V16.5777V16.5805V16.5833V16.5861V16.5888V16.5916V16.5944V16.5972V16.6V16.6028V16.6055V16.6083V16.6111V16.6139V16.6167V16.6194V16.6222V16.625V16.6278V16.6306V16.6333V16.6361V16.6389V16.6417V16.6445V16.6472V16.65V16.6528V16.6556V16.6584V16.6611V16.6639V16.6667V16.6695V16.6723V16.6751V16.6778V16.6806V16.6834V16.6862V16.689V16.6917V16.6945V16.6973V16.7001V16.7029V16.7056V16.7084V16.7112V16.714V16.7168V16.7195V16.7223V16.7251V16.7279V16.7307V16.7334V16.7362V16.739V16.7418V16.7446V16.7473V16.7501V16.7529V16.7557V16.7585V16.7613V16.764V16.7668V16.7696V16.7724V16.7752V16.7779V16.7807V16.7835V16.7863V16.7891V16.7918V16.7946V16.7974V16.8002V16.803V16.8057V16.8085V16.8113V16.8141V16.8169V16.8196V16.8224V16.8252V16.828V16.8308V16.8336V16.8363V16.8391V16.8419V16.8447V16.8475C36.5135 17.0572 36.4468 17.2089 36.3439 17.3085C36.2404 17.4087 36.0875 17.4682 35.8927 17.4682C35.7031 17.4682 35.5586 17.4035 35.4571 17.2987C35.3551 17.1932 35.2879 17.038 35.272 16.8425V16.8419V16.8363V16.8308V16.8252V16.8196V16.8141V16.8085V16.8029V16.7974V16.7918V16.7862V16.7807V16.7751V16.7695V16.7639V16.7584V16.7528V16.7472V16.7417V16.7361V16.7305V16.7249V16.7193V16.7138V16.7082V16.7026V16.697V16.6914V16.6859V16.6803V16.6747V16.6691V16.6635V16.6579V16.6524V16.6468V16.6412V16.6356V16.63V16.6244V16.6188V16.6132V16.6076V16.602V16.5965V16.5909V16.5853V16.5797V16.5741V16.5685V16.5629V16.5573V16.5517V16.5461V16.5405V16.5349V16.5293V16.5237V16.5181V16.5125V16.5069V16.5013V16.4957V16.4901V16.4845V16.4789V16.4732V16.4676V16.462V16.4564V16.4508V16.4452V16.4396V16.434V16.4284V16.4228V16.4172V16.4115V16.4059V16.4003V16.3947V16.3891V16.3835V16.3779V16.3722V16.3666V16.361V16.3554V16.3498V16.3442V16.3385V16.3329V16.3273V16.3217V16.3161V16.3104V16.3048V16.2992V16.2936V16.2879V16.2823V16.2767V16.2711V16.2654V16.2598V16.2542V16.2486V16.2429V16.2373V16.2317V16.226V16.2204V16.2148V16.2092V16.2035V16.1979V16.1923V16.1866V16.181V16.1754V16.1697V16.1641V16.1585V16.1528V16.1472V16.1416V16.1359V16.1303V16.1247V16.119V16.1134V16.1077V16.1021V16.0965V16.0908V16.0852V16.0796V16.0739V16.0683V16.0626V16.057V16.0514V16.0457V16.0401V16.0344V16.0288V16.0231V16.0175V16.0119V16.0062V16.0006V15.9949V15.9893V15.9836V15.978V15.9723V15.9667V15.9611V15.9554V15.9498V15.9441V15.9385V15.9328V15.9272V15.9215V15.9159V15.9102V15.9046V15.8989V15.8933V15.8876V15.882V15.8763V15.8707V15.865V15.8594V15.8537V15.8481V15.8424V15.8368V15.8311V15.8255V15.8198V15.8142V15.8085V15.8029V15.7972V15.7915V15.7859V15.7802V15.7746V15.7689V15.7633V15.7576V15.752V15.7463V15.7407V15.735V15.7293V15.7237V15.718V15.7124V15.7067V15.7011V15.6954V15.6898V15.6841V15.6784V15.6728V15.6671V15.6615V15.6558V15.6501V15.6445V15.6388V15.6332V15.6275V15.6219V15.6162V15.6105V15.6049V15.5992V15.5936V15.5879V15.5822V15.5766V15.5709V15.5653V15.5596V15.5539V15.5483V15.5426V15.537V15.5313V15.5256V15.52V15.5143V15.5087V15.503V15.4973V15.4917V15.486V15.4804V15.4747V15.469V15.4634V15.4577V15.4521V15.4464V15.4407V15.4351V15.4294V15.4238V15.4181V15.4124V15.4068V15.4011V15.3955V15.3898V15.3841V15.3785V15.3728V15.3672V15.3615V15.3558V15.3502V15.3445V15.3388V15.3332V15.3275V15.3219V15.3162V15.3105V15.3049V15.2992V15.2936V15.2879V15.2822V15.2766V15.2709V15.2653V15.2596V15.2539V15.2483V15.2426V15.237V15.2313V15.2257V15.22V15.2143V15.2087V15.203V15.1974V15.1917V15.186V15.1804V15.1747V15.1691V15.1634V15.1577V15.1521V15.1464V15.1408V15.1351V15.1295V15.1238V15.1181V15.1125V15.1068V15.1012V15.0955V15.0899V15.0842V15.0786V15.0729V15.0672V15.0616V15.0559V15.0503V15.0446V15.039V15.0333V15.0277V15.022V15.0164V15.0107V15.005V14.9994V14.9937V14.9881V14.9824V14.9768V14.9711V14.9655V14.9598V14.9542V14.9485V14.9429V14.9372V14.9316V14.9259V14.9203V14.9146V14.909V14.9033V14.8977V14.892V14.8864V14.8807V14.8751V14.8694V14.8638V14.8581V14.8525V14.8469V14.8412V14.8356V14.8299V14.8243V14.8186V14.813V14.8073V14.8017V14.7961V14.7904V14.7848V14.7791V14.7735V14.7678V14.7622V14.7566V14.7509V14.7453V14.7396V14.734V14.7284V14.7227V14.7171V14.7114V14.7058V14.7002V14.6945V14.6889V14.6833V14.6776V14.672V14.6664V14.6607V14.6551V14.6495V14.6438V14.6382V14.6326V14.6269V14.6213V14.6157V14.61V14.6044V14.5988V14.5931V14.5875V14.5819V14.5763V14.5706V14.565V14.5594V14.5537V14.5481V14.5425V14.5369V14.5312V14.5256V14.52V14.5144V14.5087V14.5031V14.4975V14.4919V14.4863V14.4806V14.475V14.4694V14.4638V14.4582V14.4525V14.4469V14.4413V14.4357V14.4301V14.4245V14.4189V14.4132V14.4076V14.402V14.3964V14.3908V14.3852V14.3796V14.374V14.3683V14.3627V14.3571V14.3515V14.3459V14.3403V14.3347V14.3291V14.3235V14.3179V14.3123V14.3067V14.3011V14.2955V14.2899V14.2843V14.2787V14.2731V14.2675V14.2619V14.2563V14.2507V14.2451V14.2395V14.2339V14.2283V14.2227V14.2171V14.2115V14.2059V14.2003V14.1947V14.1891V14.1836V14.178V14.1724V14.1668V14.1612V14.1556V14.15V14.1444V14.1389V14.1333V14.1277V14.1221V14.1165V14.111V14.1054V14.0998V14.0942V14.0886V14.0831V14.0775V14.0719V14.0663V14.0608V14.0552V14.0496V14.044V14.0385V14.0329V14.0273V14.0218V14.0162V14.0106V14.005V13.9995V13.9939V13.9884V13.9828V13.9772V13.9717V13.9661C35.272 13.7563 35.3388 13.6036 35.4388 13.5036C35.5391 13.4033 35.6835 13.3453 35.8588 13.3453C36.0485 13.3453 36.193 13.4101 36.2944 13.5149C36.3973 13.6211 36.4648 13.778 36.48 13.9757Z" fill="#BEFF33" stroke="#151515" stroke-width="0.25"/>
<path d="M39.0412 4.82388L39.0413 4.82389L39.0427 4.82201C39.3734 4.39211 39.772 4.0261 40.1762 3.68928L40.1762 3.6893L40.1785 3.68732C40.2938 3.58638 40.4178 3.54028 40.5411 3.54028C40.6643 3.54028 40.798 3.58641 40.9318 3.6897C41.0508 3.7947 41.1348 3.92494 41.1654 4.05076C41.1953 4.17355 41.1752 4.29136 41.0868 4.39229L41.0868 4.39229L41.086 4.39326C40.6847 4.86148 40.2155 5.29732 39.7399 5.73894L39.7233 5.75436L39.7199 5.76112C39.7106 5.76506 39.6947 5.77027 39.6675 5.77707C39.6502 5.7814 39.6278 5.7864 39.6015 5.79225C39.5579 5.80197 39.5038 5.81404 39.445 5.82931C39.413 5.80581 39.3796 5.78277 39.3471 5.76037C39.342 5.75689 39.3369 5.75341 39.3319 5.74995C39.2855 5.71805 39.2402 5.68694 39.1966 5.65427C39.1015 5.58291 39.0299 5.51492 38.9916 5.44334C38.9655 5.35972 38.9508 5.23647 38.9582 5.11352C38.9662 4.98267 38.9976 4.87846 39.0412 4.82388Z" fill="#BEFF33" stroke="#151515" stroke-width="0.25"/>
<path d="M40.1742 13.9363L40.1742 13.9363L40.1724 13.9348C39.7425 13.6041 39.3764 13.2055 39.0396 12.8014L39.0396 12.8013L39.0377 12.7991C38.8427 12.5762 38.8423 12.278 39.0659 12.0545L39.0714 12.049L39.0762 12.0429C39.1802 11.9091 39.3088 11.8268 39.4319 11.8002C39.5518 11.7742 39.672 11.7993 39.7765 11.8907L39.7765 11.8907L39.7775 11.8915C40.2457 12.2929 40.6816 12.762 41.1232 13.2376L41.1231 13.2377L41.1264 13.241C41.1328 13.2473 41.1437 13.2651 41.1613 13.3354C41.1648 13.3492 41.1684 13.3646 41.1724 13.3814C41.1825 13.4245 41.1949 13.4768 41.2118 13.5349C41.1902 13.5644 41.1689 13.5948 41.1482 13.6245L41.1446 13.6298C41.1089 13.6809 41.0738 13.7309 41.0363 13.7784C40.9617 13.8725 40.8856 13.9456 40.7974 13.9848C40.7137 14.0116 40.5886 14.0269 40.4639 14.0193C40.333 14.0114 40.2288 13.98 40.1742 13.9363Z" fill="#BEFF33" stroke="#151515" stroke-width="0.25"/>
<path d="M30.77 13.1289L30.77 13.1289L30.7715 13.127C31.1039 12.6949 31.4691 12.3298 31.9012 11.9974L31.9012 11.9974L31.903 11.9959C31.9615 11.9491 32.0702 11.911 32.2002 11.8953C32.3283 11.8797 32.4525 11.889 32.5312 11.9152L32.5311 11.9153L32.5364 11.9168C32.6148 11.9392 32.6873 12.0051 32.7541 12.0955C32.7863 12.1391 32.8145 12.1846 32.8396 12.2272C32.846 12.238 32.8526 12.2493 32.8592 12.2607C32.8679 12.2757 32.8766 12.2907 32.8849 12.3046C32.8747 12.428 32.81 12.5942 32.6955 12.7853C32.5728 12.99 32.4029 13.2075 32.2168 13.406C32.0307 13.6046 31.8318 13.7804 31.6534 13.9034C31.5641 13.965 31.4824 14.0115 31.4119 14.0414C31.3424 14.0708 31.2928 14.0802 31.2614 14.0789C31.1629 14.064 31.0454 14.0203 30.9407 13.9567C30.8326 13.8911 30.7527 13.8132 30.7164 13.7407C30.6796 13.667 30.6625 13.5487 30.674 13.4223C30.6856 13.2953 30.7235 13.1871 30.77 13.1289Z" fill="#BEFF33" stroke="#151515" stroke-width="0.25"/>
<path d="M31.4376 3.61949L31.4375 3.61958L31.4418 3.62303C31.9419 4.02307 32.3764 4.49071 32.8181 4.96641L32.8399 4.98983L32.8697 4.99978C32.8712 5.00184 32.8747 5.00776 32.8781 5.02017C32.8858 5.04821 32.8864 5.08266 32.8864 5.11864C32.8864 5.37871 32.7492 5.59386 32.5679 5.70767C32.3877 5.82068 32.1748 5.82942 32.0034 5.6979C31.5399 5.33366 31.1067 4.86808 30.7023 4.39647C30.6245 4.29115 30.6066 4.18379 30.6259 4.07744C30.646 3.96718 30.7075 3.85265 30.7981 3.746C30.9073 3.63764 31.0222 3.56284 31.1299 3.53673C31.231 3.51221 31.3332 3.52815 31.4376 3.61949Z" fill="#BEFF33" stroke="#151515" stroke-width="0.25"/>
</svg>
