<svg width="43" height="41" viewBox="0 0 43 41" fill="none" xmlns="http://www.w3.org/2000/svg">
<path d="M41.1064 27.3734C41.7138 25.2575 40.4282 23.0671 38.2351 22.4811C36.0419 21.8951 33.7715 23.1354 33.1641 25.2513C32.5567 27.3672 33.8423 29.5576 36.0355 30.1436C38.2286 30.7296 40.499 29.4893 41.1064 27.3734Z" stroke="#BEFF33" stroke-miterlimit="10"/>
<path d="M18.5757 39.1617H42.1935" stroke="#BEFF33" stroke-miterlimit="10"/>
<path d="M24.0131 27.4507L8.78015 12.9623" stroke="#BEFF33" stroke-miterlimit="10"/>
<path d="M32.1684 30.406C25.5985 34.3845 17.2651 33.9791 12.0542 28.9517C5.89515 23.0096 6.43093 12.8629 13.2429 6.28636C20.0549 -0.290215 30.5814 -0.79657 36.7357 5.13802C40.9704 9.22352 42.0466 15.2968 40.0831 20.8305" stroke="#BEFF33" stroke-miterlimit="10"/>
<path d="M11.951 28.8491C11.0307 27.9606 10.2394 26.9558 9.59863 25.8622L1.46049 33.7122C1.3145 33.853 1.19869 34.0202 1.11968 34.2041C1.04067 34.3881 1 34.5853 1 34.7845C1 34.9836 1.04067 35.1808 1.11968 35.3648C1.19869 35.5488 1.3145 35.7159 1.46049 35.8567L4.86882 39.1465C5.1638 39.431 5.56385 39.5909 5.98099 39.5909C6.39812 39.5909 6.79817 39.431 7.09315 39.1465L15.2828 31.2407C14.0577 30.604 12.9353 29.7983 11.951 28.8491V28.8491Z" stroke="#BEFF33" stroke-miterlimit="10"/>
</svg>
