<svg width="33" height="21" viewBox="0 0 33 21" fill="none" xmlns="http://www.w3.org/2000/svg">
<path d="M7.70036 14.4443C5.8804 14.4443 4.40039 15.9144 4.40039 17.7221C4.40039 19.5299 5.8804 20.9999 7.70036 20.9999C9.52033 20.9999 11.0003 19.5299 11.0003 17.7221C11.0003 15.9151 9.52033 14.4443 7.70036 14.4443ZM7.70036 19.9078C6.48683 19.9078 5.50061 18.9275 5.50061 17.7228C5.50061 16.5174 6.48751 15.5378 7.70036 15.5378C8.91322 15.5378 9.90012 16.5181 9.90012 17.7228C9.90012 18.9275 8.9139 19.9078 7.70036 19.9078Z" fill="black"/>
<path d="M26.4006 14.4443C24.5806 14.4443 23.1006 15.9144 23.1006 17.7221C23.1006 19.5299 24.5806 20.9999 26.4006 20.9999C28.2205 20.9999 29.7005 19.5299 29.7005 17.7221C29.7005 15.9151 28.2205 14.4443 26.4006 14.4443ZM26.4006 19.9078C25.187 19.9078 24.2008 18.9275 24.2008 17.7228C24.2008 16.5174 25.1877 15.5378 26.4006 15.5378C27.6141 15.5378 28.6003 16.5181 28.6003 17.7228C28.6003 18.9275 27.6141 19.9078 26.4006 19.9078Z" fill="black"/>
<path d="M32.9134 11.4176L27.9631 3.7691C27.8622 3.61289 27.6877 3.51807 27.5002 3.51807H21.4504C21.1461 3.51807 20.9003 3.76296 20.9003 4.06448V17.7222C20.9003 18.0244 21.1461 18.2686 21.4504 18.2686H23.6501V17.1757H21.9998V4.6109H27.1994L31.8998 11.8739V17.1764H29.1499V18.2693H32.4499C32.7541 18.2693 33 18.025 33 17.7228V11.7136C33.0007 11.6086 32.9704 11.5056 32.9134 11.4176Z" fill="black"/>
<path d="M24.8576 10.477V6.35703H28.8348V5.17969H24.3604C24.0854 5.17969 23.8632 5.44352 23.8632 5.76836V11.0657C23.8632 11.3913 24.0854 11.6544 24.3604 11.6544H31.8175V10.477H24.8576Z" fill="black"/>
<path d="M21.4502 0H0.550111C0.246554 0 0 0.240862 0 0.537411V17.7312C0 18.0284 0.246554 18.2686 0.550111 18.2686H4.95031V17.1938H1.10022V1.07482H20.9008V17.1945H10.45V18.2693H21.4502C21.7544 18.2693 22.0003 18.0291 22.0003 17.7319V0.537411C22.0003 0.240862 21.7544 0 21.4502 0Z" fill="black"/>
<path d="M31.904 14.9905H30.797C30.4952 14.9905 30.2506 15.2351 30.2506 15.5369C30.2506 15.8387 30.4952 16.0833 30.797 16.0833H31.904C32.2057 16.0833 32.4504 15.8387 32.4504 15.5369C32.4504 15.2351 32.2057 14.9905 31.904 14.9905Z" fill="black"/>
<path d="M7.15002 17.7229C7.15002 18.0247 7.39836 18.2693 7.70014 18.2693C8.00191 18.2693 8.25025 18.0247 8.25025 17.7229C8.25025 17.4212 8.00191 17.1765 7.70014 17.1765C7.39836 17.1765 7.15002 17.4212 7.15002 17.7229Z" fill="black"/>
<path d="M25.8503 17.7229C25.8503 18.0247 26.0987 18.2693 26.4005 18.2693C26.7022 18.2693 26.9506 18.0247 26.9506 17.7229C26.9506 17.4212 26.7022 17.1765 26.4005 17.1765C26.0987 17.1765 25.8503 17.4212 25.8503 17.7229Z" fill="black"/>
</svg>
