<svg width="40" height="40" viewBox="0 0 40 40" fill="none" xmlns="http://www.w3.org/2000/svg">
<path d="M40 20.0172C39.9924 25.3246 37.8779 30.4116 34.1218 34.1591C30.3656 37.9066 25.2755 40.0076 19.9712 40C14.6669 39.9923 9.58281 37.8766 5.83749 34.1183C2.09217 30.36 -0.00762728 25.2669 2.08195e-05 19.9595C0.0223464 8.97644 8.99536 -0.0315631 20.0577 8.31288e-05C25.3512 0.021244 30.4209 2.13899 34.158 5.89017C37.8952 9.64135 39.9956 14.7207 40 20.0172ZM29.6912 4.06941C29.654 4.10851 29.6168 4.14201 29.5851 4.18111C29.4437 4.36726 29.3116 4.55342 29.1647 4.71723C28.3024 5.69526 27.3622 6.6017 26.3535 7.42764C23.8119 9.55833 21.1495 11.5405 18.3796 13.3641C17.2093 14.1478 16.0019 14.8775 14.8112 15.6315C14.7051 15.6985 14.614 15.758 14.6065 15.9107C14.509 17.3999 14.5959 18.8956 14.8651 20.3635C15.04 21.2812 15.2782 22.1878 15.5386 23.0851C15.962 24.4849 16.5418 25.8325 17.267 27.1023C17.3302 27.214 17.3972 27.2456 17.5163 27.1842C17.8512 27.0129 18.1916 26.8547 18.5265 26.6797C20.9704 25.3786 23.3159 23.9003 25.5442 22.2567C28.6177 20.0228 31.5498 17.627 34.1712 14.8664C35.0571 13.9561 35.8649 12.9728 36.5861 11.927C36.6349 11.8654 36.6631 11.7899 36.6664 11.7113C36.6698 11.6327 36.6481 11.5551 36.6047 11.4895C35.7487 9.83535 34.6542 8.31619 33.3563 6.98087C32.3026 5.89676 31.1213 4.94474 29.8381 4.14574C29.7954 4.12154 29.7488 4.10106 29.6912 4.06941ZM26.5395 37.486L26.5563 37.4264C26.4763 37.3799 26.4 37.3277 26.32 37.2831C25.6633 36.9107 24.9916 36.5701 24.3498 36.1792C21.9878 34.7529 19.8921 32.9261 18.1563 30.7807C16.6427 28.9056 15.445 26.7961 14.6102 24.5352C14.1963 23.421 13.874 22.2748 13.6465 21.1081C13.4402 20.1204 13.3157 19.1174 13.2744 18.1092C13.2521 17.3552 13.2744 16.5995 13.2744 15.8455C13.275 15.8003 13.2662 15.7555 13.2486 15.7138C13.231 15.6722 13.2049 15.6346 13.1721 15.6035C11.4991 14.4946 9.57647 13.8196 7.57769 13.6396C6.68242 13.5573 5.78053 13.5823 4.89118 13.7141C4.69584 13.7438 4.62514 13.822 4.6177 14.0249C4.55939 15.3069 4.57927 16.5913 4.67723 17.8709C4.77598 19.0311 4.94498 20.1843 5.18327 21.3241C5.43623 22.5232 5.76685 23.7047 6.17304 24.861C6.73768 26.4878 7.45662 28.0568 8.32002 29.5465C10.2686 32.9172 12.9547 35.8028 16.1768 37.9867C16.2518 38.0607 16.3146 38.1461 16.3628 38.2399L16.3237 38.3069C19.7386 38.9964 23.2784 38.712 26.5395 37.486ZM37.3563 13.1686C37.2707 13.271 37.2242 13.3213 37.1833 13.3771C36.0846 14.8237 34.864 16.1733 33.5349 17.4111C30.9873 19.8215 28.26 22.0345 25.3768 24.0307C23.1033 25.6149 20.7684 27.0967 18.2679 28.2993C18.1116 28.3756 18.0819 28.4407 18.1935 28.5897C19.3851 30.333 20.8269 31.8911 22.4726 33.2137C22.5154 33.2443 22.5643 33.2654 22.6159 33.2757C22.6676 33.2859 22.7208 33.2851 22.7721 33.2733C23.3302 33.0983 23.9051 32.9326 24.4465 32.7148C25.7135 32.1955 26.9823 31.6817 28.2214 31.1009C30.7572 29.938 33.1589 28.5023 35.3842 26.8193C36.3653 26.0825 37.267 25.2452 38.0744 24.3211C38.1249 24.2713 38.1637 24.2109 38.1879 24.1443C38.2556 23.8798 38.3096 23.612 38.3498 23.342C38.4447 22.6457 38.5358 21.9495 38.6047 21.2496C38.7382 19.6643 38.6423 18.068 38.32 16.5101C38.1693 15.7283 37.9349 14.9613 37.7209 14.1925C37.6335 13.863 37.4995 13.5484 37.3637 13.1686H37.3563ZM23.1107 8.32862C23.081 8.30344 23.0499 8.27982 23.0177 8.25788C22.88 8.18901 22.7405 8.11641 22.5991 8.05125C21.2854 7.43994 19.9022 6.9911 18.48 6.71467C17.5498 6.52851 16.5991 6.37214 15.6502 6.27348C14.1797 6.12611 12.7002 6.0894 11.2242 6.16365C9.87345 6.22958 8.52746 6.37128 7.19258 6.58808C7.08447 6.60648 6.98417 6.65633 6.9042 6.73142C5.21595 8.39402 3.86079 10.3641 2.91165 12.5357C2.87444 12.6213 2.84653 12.7107 2.80002 12.8373L3.02513 12.7926C3.62978 12.6474 4.22885 12.4501 4.84095 12.3644C6.6199 12.1202 8.43032 12.2534 10.1544 12.7554C11.4491 13.1224 12.6809 13.6828 13.8084 14.4177C13.8701 14.4665 13.9465 14.493 14.0251 14.493C14.1038 14.493 14.1801 14.4665 14.2419 14.4177C17.1695 12.6403 20.0002 10.7077 22.7219 8.62833C22.8484 8.54084 22.973 8.44032 23.1181 8.32676L23.1107 8.32862ZM28.4837 3.4216C25.4512 1.7853 20.4837 0.467329 14.8893 2.04964C12.7772 2.63931 10.7961 3.62475 9.05118 4.95365C9.11707 4.97242 9.18622 4.97687 9.25397 4.96668C9.66141 4.92945 10.0689 4.88291 10.4782 4.85871C13.1051 4.70606 15.7209 4.78425 18.3051 5.31292C19.2707 5.51025 20.227 5.75969 21.1702 6.04637C22.1901 6.36763 23.175 6.7911 24.1098 7.31036C24.1623 7.34773 24.2264 7.36509 24.2905 7.35928C24.3547 7.35348 24.4146 7.3249 24.4595 7.27871C24.7442 7.03113 25.0419 6.79844 25.3284 6.55271C26.3256 5.69826 27.3247 4.84382 28.1749 3.83486C28.2865 3.70269 28.3833 3.55935 28.4912 3.41974L28.4837 3.4216ZM3.22978 14.1534C3.19815 14.1605 3.16706 14.1698 3.13676 14.1813C2.86513 14.3191 2.60095 14.4773 2.31816 14.5871C2.24598 14.6138 2.18241 14.6595 2.13423 14.7195C2.08606 14.7795 2.0551 14.8515 2.04467 14.9278C1.98327 15.1735 1.92374 15.4192 1.85862 15.6724C1.55384 16.8856 1.38228 18.1284 1.347 19.3787C1.20251 23.6363 2.5218 27.8146 5.08467 31.2163C7.01563 33.7783 9.57075 35.8023 12.5061 37.095C12.6475 37.1583 12.7982 37.2086 12.9451 37.2663C6.11537 31.0711 3.07723 23.2954 3.22978 14.1534ZM37.2763 27.0986L37.2205 27.0613C33.2577 30.2874 28.7684 32.5547 23.9944 34.3213C24.0063 34.3436 24.02 34.3647 24.0354 34.3846C25.346 35.2764 26.7332 36.0501 28.1805 36.6967C28.2523 36.7154 28.3286 36.7068 28.3944 36.6725C29.3839 36.1805 30.3245 35.5959 31.2037 34.9263C33.379 33.2909 35.1699 31.1985 36.4502 28.7963C36.7498 28.236 37.0047 27.6626 37.28 27.0986H37.2763Z" fill="#BEFF33"/>
</svg>
