<svg width="36" height="37" viewBox="0 0 36 37" fill="none" xmlns="http://www.w3.org/2000/svg">
<path d="M8.24119 25.5146C10.2096 25.5146 11.8054 23.9183 11.8054 21.9492C11.8054 19.9801 10.2096 18.3838 8.24119 18.3838C6.27276 18.3838 4.67703 19.9801 4.67703 21.9492C4.67703 23.9183 6.27276 25.5146 8.24119 25.5146Z" stroke="#BEFF33" stroke-miterlimit="10"/>
<path d="M13.332 35.6907H4.09191C2.38408 35.6907 1 34.3061 1 32.5977C1 30.8893 2.38408 29.5047 4.09191 29.5047H13.6023C14.7725 29.5047 15.8626 28.9016 16.4833 27.9092L32.8072 1.88494C33.1369 1.35608 33.82 1.17484 34.3695 1.46601C34.9546 1.77798 35.1714 2.50888 34.8536 3.08826L21.0157 28.2301L17.707 33.3167C16.7447 34.7964 15.0992 35.6907 13.332 35.6907Z" stroke="#BEFF33" stroke-miterlimit="10"/>
<path d="M7.38579 35.6907L4.09192 29.5018" stroke="#BEFF33" stroke-miterlimit="10"/>
<path d="M13.4538 35.6223L10.1599 29.4364" stroke="#BEFF33" stroke-miterlimit="10"/>
<path d="M19.5307 23.0514H23.8671" stroke="#BEFF33" stroke-miterlimit="10"/>
<path d="M28.1835 8.94604H31.5425" stroke="#BEFF33" stroke-miterlimit="10"/>
</svg>
