<svg width="45" height="28" viewBox="0 0 45 28" fill="none" xmlns="http://www.w3.org/2000/svg">
<path d="M43.9739 1H1V27.2071H43.9739V1Z" stroke="#BEFF33" stroke-miterlimit="10"/>
<path d="M9.37991 7.35541H1V20.9446H9.37991V7.35541Z" stroke="#BEFF33" stroke-miterlimit="10"/>
<path d="M22.6196 18.7474C25.1805 18.7474 27.2565 16.6707 27.2565 14.1089C27.2565 11.5471 25.1805 9.4704 22.6196 9.4704C20.0587 9.4704 17.9826 11.5471 17.9826 14.1089C17.9826 16.6707 20.0587 18.7474 22.6196 18.7474Z" stroke="#BEFF33" stroke-miterlimit="10"/>
<path d="M9.28174 9.64551C11.8416 9.64551 13.9187 11.7206 13.9187 14.284C13.9187 16.8448 11.8443 18.9226 9.28174 18.9226" stroke="#BEFF33" stroke-miterlimit="10"/>
<path d="M35.5945 20.7651H43.9745V7.17591L35.5945 7.17591V20.7651Z" stroke="#BEFF33" stroke-miterlimit="10"/>
<path d="M35.6948 18.4741C33.1349 18.4741 31.0578 16.3989 31.0578 13.8355C31.0578 11.2748 33.1323 9.19702 35.6948 9.19702" stroke="#BEFF33" stroke-miterlimit="10"/>
<path d="M22.6673 1V27.2098" stroke="#BEFF33" stroke-miterlimit="10"/>
</svg>
