<svg width="37" height="38" viewBox="0 0 37 38" fill="none" xmlns="http://www.w3.org/2000/svg">
<path d="M18.7307 19.0399H3.31847C2.03721 19.0399 1 18.0023 1 16.7206C1 15.4389 2.03721 14.4014 3.31847 14.4014H21.4789" stroke="#BEFF33" stroke-miterlimit="10"/>
<path d="M25.9673 14.4014H33.7875C35.0687 14.4014 36.1059 15.4389 36.1059 16.7206C36.1059 18.0023 35.0687 19.0399 33.7875 19.0399H23.0493" stroke="#BEFF33" stroke-miterlimit="10"/>
<path d="M23.052 19.0398H33.5779L30.6599 32.276H16.4679" stroke="#BEFF33" stroke-miterlimit="10"/>
<path d="M5.87834 27.8365L3.93921 19.0398H18.7307" stroke="#BEFF33" stroke-miterlimit="10"/>
<path d="M10.2022 7.39043C11.03 7.39043 11.701 6.71917 11.701 5.89114C11.701 5.0631 11.03 4.39185 10.2022 4.39185C9.37449 4.39185 8.70346 5.0631 8.70346 5.89114C8.70346 6.71917 9.37449 7.39043 10.2022 7.39043Z" stroke="#BEFF33" stroke-miterlimit="10"/>
<path d="M25.9673 14.4013H32.6707C33.952 14.4013 34.9892 13.3637 34.9892 12.082C34.9892 10.8003 33.952 9.76276 32.6707 9.76276H28.8561" stroke="#BEFF33" stroke-miterlimit="10"/>
<path d="M24.2245 9.76283H12.8496C15.1044 7.3905 14.2927 4.07879 12.4942 1.99305C11.3296 0.645011 9.22604 0.674201 8.09333 2.05143C6.2497 4.29373 5.09577 7.81773 7.91029 9.76018H4.43524C3.15398 9.76018 2.11678 10.7977 2.11678 12.0794C2.11678 13.3611 3.15398 14.3987 4.43524 14.3987H21.4789" stroke="#BEFF33" stroke-miterlimit="10"/>
<path d="M13.5553 27.7755L24.2245 9.76274L28.0603 3.28792C28.628 2.32996 29.8562 2.00092 30.8271 2.54491C31.8457 3.11809 32.1826 4.42367 31.5645 5.41612L28.8588 9.76009L16.9083 28.9484C16.9958 39.5973 5.00027 39.5973 2.11943 31.6551C0.997332 25.6579 6.12502 28.951 13.5553 27.7755Z" stroke="#BEFF33" stroke-miterlimit="10"/>
<path d="M13.5553 27.7755C13.6242 33.0456 7.83602 35.3649 2.11678 31.6578" stroke="#BEFF33" stroke-miterlimit="10"/>
</svg>
