<svg width="37" height="51" viewBox="0 0 37 51" fill="none" xmlns="http://www.w3.org/2000/svg">
<circle cx="19.5" cy="19.5" r="9.5" fill="#BEFF33"/>
<path d="M18.5 0C8.29897 0 0 8.53483 0 19.0257C0 34.6564 16.6586 49.9184 17.368 50.5606C17.6914 50.8533 18.0956 51 18.5 51C18.9044 51 19.3086 50.8535 19.6322 50.5606C20.3413 49.9185 37 34.6565 37 19.0257C37 8.53483 28.701 0 18.5 0ZM18.5 13.6846C21.3336 13.6846 23.6389 16.0806 23.6389 19.0257C23.6389 21.9708 21.3336 24.3668 18.5 24.3668C15.6664 24.3668 13.3611 21.9708 13.3611 19.0257C13.3611 16.0806 15.6664 13.6846 18.5 13.6846Z" fill="#161616"/>
</svg>
