<svg width="40" height="40" viewBox="0 0 40 40" fill="none" xmlns="http://www.w3.org/2000/svg">
<path d="M20.0074 39.0909C8.83823 39.0281 0.0460625 30.4379 0.000174321 19.5518C-0.0457138 8.6656 8.97406 7.43961e-05 19.9927 7.43961e-05C22.6212 -0.0070211 25.2252 0.493498 27.6552 1.47288C30.0851 2.45225 32.2931 3.89119 34.1523 5.707C36.0114 7.52282 37.4851 9.67973 38.4886 12.0538C39.4921 14.4279 40.0058 16.9724 40 19.541C40 24.8845 38.0213 29.5429 34.1538 33.3528C30.3231 37.1286 25.391 39.0461 20.0074 39.0909ZM20.0074 26.3195C18.7831 26.3195 17.557 26.3339 16.3364 26.3195C15.9417 26.3195 15.6719 26.3859 15.4388 26.7446C14.9285 27.5249 14.3558 28.2657 13.8088 29.0263C13.3169 29.7097 12.8213 30.3913 12.3404 31.0819C12.275 31.1846 12.2539 31.3084 12.2817 31.4263C12.4157 31.8765 12.5772 32.3232 12.7259 32.7626C13.1701 34.1067 13.6137 35.4508 14.0566 36.7949C14.0762 36.8643 14.1156 36.9268 14.1702 36.9751C14.2248 37.0234 14.2924 37.0555 14.365 37.0676C14.8037 37.1788 15.2405 37.2954 15.6774 37.4066C16.6556 37.6467 17.655 37.7956 18.662 37.8514C20.8334 38.0045 23.0155 37.7897 25.112 37.2165C25.1632 37.1994 25.2103 37.1723 25.2504 37.1369C25.2905 37.1014 25.3227 37.0583 25.3451 37.0102C25.7012 35.9788 26.0444 34.9438 26.3895 33.9088C26.7346 32.8738 27.065 31.8604 27.4137 30.8415C27.4497 30.757 27.4607 30.6642 27.4455 30.5739C27.4302 30.4835 27.3893 30.3991 27.3275 30.3303C26.9604 29.8639 26.5933 29.3904 26.2262 28.9169C25.6143 28.1204 25.0068 27.3228 24.4035 26.524C24.3591 26.4586 24.298 26.4056 24.2262 26.3703C24.1544 26.3351 24.0744 26.3188 23.9942 26.3231C22.6597 26.3231 21.3327 26.3195 20.0074 26.3195ZM8.06731 30.5222C9.03463 30.5222 10.0038 30.5222 10.9711 30.5222C11.0813 30.518 11.1866 30.4761 11.2685 30.4039C11.3603 30.3005 11.4408 30.1881 11.5089 30.0684C12.0449 29.324 12.579 28.5832 13.1132 27.8388C13.6124 27.1446 14.1025 26.4433 14.6091 25.7545C14.6513 25.6994 14.6778 25.6343 14.6858 25.5659C14.6939 25.4976 14.6833 25.4283 14.655 25.3653C14.3962 24.5922 14.1319 23.8191 13.8749 23.046C13.5904 22.1904 13.3132 21.3312 13.0306 20.4755C12.7681 19.6755 12.5074 18.8737 12.2266 18.0791C12.1771 17.9356 12.2027 17.7383 11.9623 17.6791C11.5163 17.5661 11.0812 17.4172 10.6426 17.2809C10.079 17.1015 9.51554 16.9222 8.9502 16.7428C8.38485 16.5634 7.82319 16.4217 7.26886 16.2334C7.20249 16.2057 7.12945 16.1971 7.05826 16.2086C6.98708 16.22 6.92069 16.251 6.86688 16.2979C5.05705 17.5858 3.24538 18.8696 1.43188 20.1491C1.37092 20.1831 1.32197 20.2344 1.29149 20.2963C1.26101 20.3581 1.25044 20.4275 1.26118 20.4953C1.34378 21.2128 1.40619 21.9303 1.5053 22.6478C1.66973 23.7399 1.95404 24.8116 2.35332 25.8442C2.95048 27.4451 3.77739 28.955 4.80925 30.3285C4.85046 30.3919 4.9083 30.4432 4.97674 30.4773C5.04518 30.5114 5.12172 30.5269 5.19838 30.5222C6.15286 30.5187 7.10733 30.5222 8.06364 30.5222H8.06731ZM20.6205 9.10148C20.6205 9.8961 20.6205 10.6907 20.6205 11.4853C20.6148 11.5405 20.6252 11.596 20.6505 11.6455C20.6759 11.6951 20.7151 11.7366 20.7636 11.7652C20.9839 11.9069 21.1932 12.0647 21.4061 12.2154C23.3848 13.6205 25.3641 15.0244 27.344 16.4271C27.4181 16.4798 27.5104 16.5017 27.601 16.4881C28.1168 16.3589 28.6325 16.2208 29.1428 16.0737C29.7449 15.9033 30.3414 15.715 30.9416 15.5356C31.5418 15.3562 32.1494 15.2073 32.7515 15.0369C32.8139 15.0252 32.8715 14.9961 32.9174 14.9531C32.9633 14.9102 32.9955 14.8552 33.0103 14.7948C33.0635 14.5831 33.1461 14.3804 33.2158 14.1724L34.2346 11.1033C34.497 10.3122 34.7614 9.52301 35.0128 8.72838C35.0234 8.68002 35.0237 8.63004 35.0136 8.58157C35.0035 8.53311 34.9832 8.48722 34.9541 8.44677C34.6953 8.11672 34.4273 7.79205 34.1465 7.47994C32.1448 5.22187 29.6058 3.47925 26.753 2.40547C26.6999 2.37957 26.6402 2.36967 26.5813 2.37701C26.5225 2.38436 26.4673 2.40862 26.4226 2.44673C24.5418 3.78485 22.6597 5.12178 20.7765 6.45752C20.7256 6.48805 20.6841 6.53158 20.6566 6.58341C20.6292 6.63525 20.6166 6.69342 20.6205 6.75169C20.6186 7.54093 20.6168 8.3212 20.6168 9.10148H20.6205ZM32.0228 29.8317C33.1388 29.8317 34.2566 29.8317 35.3744 29.8317C35.4306 29.8373 35.4872 29.8272 35.5376 29.8024C35.588 29.7776 35.6301 29.7392 35.6589 29.6917C36.2877 28.7675 36.8296 27.7895 37.2779 26.7698C38.1802 24.6977 38.6824 22.4804 38.7591 20.2298C38.7656 20.1612 38.7517 20.0923 38.7192 20.0312C38.6866 19.9702 38.6368 19.9195 38.5756 19.8854C38.2085 19.6397 37.8634 19.3814 37.5073 19.1302C36.1723 18.182 34.8366 17.2349 33.5004 16.289C33.4206 16.2209 33.318 16.1839 33.2122 16.1849C32.8175 16.28 32.4284 16.4002 32.0393 16.5132C31.6501 16.6262 31.2115 16.7643 30.7966 16.8827C30.3818 17.0011 29.9596 17.1087 29.543 17.2253C29.1263 17.3419 28.6582 17.4692 28.2214 17.6092C28.0599 17.6612 27.8543 17.6486 27.79 17.889C27.7203 18.1688 27.6065 18.4397 27.522 18.7141C27.2926 19.4083 27.065 20.1024 26.8337 20.7948C26.6024 21.4872 26.373 22.167 26.1436 22.854C25.9141 23.541 25.6792 24.289 25.4277 24.9868C25.2992 25.3455 25.1781 25.6953 25.5654 25.9877C25.6251 26.0501 25.6769 26.1193 25.7196 26.194L27.043 27.9142C27.4908 28.4989 27.9375 29.0849 28.3829 29.672C28.421 29.7255 28.4727 29.7685 28.5328 29.7968C28.593 29.8251 28.6596 29.8377 28.7262 29.8335C29.8238 29.8281 30.9214 29.8317 32.0191 29.8317H32.0228ZM19.3576 9.12838C19.3576 8.35349 19.3576 7.5786 19.3576 6.79653C19.3574 6.73706 19.3451 6.67823 19.3215 6.62343C19.2979 6.56863 19.2633 6.51894 19.22 6.47725C17.3257 5.12836 15.4296 3.78425 13.5317 2.44493C13.4941 2.42325 13.4524 2.40936 13.4092 2.40411C13.3659 2.39887 13.322 2.40238 13.2802 2.41444C12.2016 2.80294 11.1669 3.29946 10.1928 3.89606C8.47505 4.93432 6.9362 6.23169 5.6334 7.74004C5.20756 8.23152 5.20022 8.22434 5.40029 8.83242C6.05924 10.8235 6.71453 12.8145 7.38449 14.802C7.41188 14.8587 7.45047 14.9096 7.49803 14.9518C7.54559 14.994 7.60119 15.0266 7.66166 15.0477C8.02876 15.1786 8.42707 15.2755 8.80703 15.3939C9.36686 15.5733 9.92303 15.7526 10.481 15.932C11.0721 16.1162 11.6637 16.2955 12.256 16.4701C12.3254 16.496 12.4004 16.5042 12.474 16.4938C12.5476 16.4835 12.6172 16.4549 12.6763 16.4109C13.082 16.1114 13.495 15.8262 13.9043 15.5338C15.6541 14.2925 17.404 13.0513 19.1539 11.81C19.2191 11.7703 19.2722 11.7143 19.3077 11.6477C19.3433 11.5812 19.3598 11.5065 19.3558 11.4315C19.3484 10.6638 19.3521 9.8961 19.3521 9.12838H19.3576ZM19.989 25.0729C21.2739 25.0729 22.5588 25.0729 23.8437 25.0729C24.0621 25.0729 24.1337 24.985 24.1887 24.8092C24.3337 24.3428 24.4916 23.8818 24.6458 23.4209C24.8734 22.7321 25.1004 22.0445 25.3268 21.3581C25.5287 20.7518 25.73 20.1455 25.9306 19.5392C26.1362 18.9204 26.329 18.2979 26.5566 17.6881C26.6355 17.4746 26.5566 17.3867 26.4024 17.2755C25.424 16.5885 24.453 15.8961 23.4802 15.2056C22.3789 14.4223 21.2776 13.6366 20.1763 12.8486C20.1293 12.8023 20.0658 12.7755 19.9992 12.7739C19.9325 12.7722 19.8677 12.7957 19.8183 12.8396C17.7185 14.3392 15.6144 15.834 13.506 17.324C13.4504 17.3553 13.4093 17.4061 13.3908 17.4662C13.3724 17.5262 13.3781 17.5908 13.4069 17.6468C13.4766 17.8459 13.5519 18.0414 13.6179 18.2423C13.952 19.2612 14.2806 20.2836 14.6201 21.3007C15.0129 22.4809 15.4204 23.6576 15.8022 24.8415C15.8078 24.8777 15.8207 24.9125 15.8402 24.9438C15.8598 24.9751 15.8855 25.0023 15.916 25.0237C15.9464 25.0451 15.981 25.0603 16.0176 25.0684C16.0541 25.0766 16.092 25.0775 16.1289 25.0711C17.4101 25.0711 18.6968 25.0729 19.9835 25.0729H19.989ZM14.8826 1.90681C15.0001 1.99829 15.0662 2.05928 15.1451 2.1113C16.6979 3.21624 18.2514 4.32118 19.8055 5.42612C19.8527 5.47083 19.9159 5.49583 19.9817 5.49583C20.0475 5.49583 20.1107 5.47083 20.1579 5.42612C21.7487 4.29009 23.3395 3.15824 24.9303 2.03058C24.9823 2.00223 25.037 1.97881 25.0936 1.96063L25.0294 1.87632C21.7056 0.996391 18.2008 1.00692 14.8826 1.90681ZM1.25935 18.7679C1.37131 18.698 1.42821 18.6675 1.48144 18.6298L3.41976 17.2576L6.0776 15.3688C6.16754 15.3042 6.25014 15.2504 6.20241 15.1141C6.05741 14.7015 5.92342 14.2872 5.78575 13.8728C5.41865 12.7631 5.05154 11.6528 4.68444 10.5418C4.57247 10.2064 4.45867 9.87099 4.32651 9.47996C2.45821 12.2455 1.39772 15.4568 1.25935 18.7679ZM34.5796 31.0783L34.5594 31.0191H28.8822C28.8361 31.01 28.7887 31.01 28.7427 31.0191C28.6839 31.046 28.6068 31.0873 28.5885 31.1393C28.471 31.4568 28.3682 31.7779 28.2618 32.0971C27.8335 33.3827 27.4052 34.6682 26.9769 35.9537C26.9071 36.1617 26.8466 36.3716 26.7805 36.5797L26.8392 36.6138C29.8666 35.4588 32.5342 33.5535 34.5796 31.0855V31.0783ZM35.9728 9.91225L35.9067 9.9266L35.3285 11.6558C34.9614 12.7535 34.5943 13.8513 34.2272 14.949C34.1336 15.2271 34.1336 15.245 34.3667 15.4118L38.5187 18.3589C38.5737 18.3984 38.6362 18.4289 38.7261 18.4827C38.5583 15.451 37.6127 12.5093 35.9765 9.92839L35.9728 9.91225ZM6.05741 31.7384C6.49426 32.7949 11.709 36.4469 12.5919 36.3286C12.5754 36.2568 12.5625 36.1851 12.5405 36.1169C12.0816 34.7357 11.6233 33.3545 11.1657 31.9734C11.1517 31.8918 11.1052 31.819 11.0364 31.7709C10.9676 31.7228 10.8821 31.7034 10.7986 31.7169C9.28977 31.7258 7.77913 31.7169 6.26849 31.7169C6.21343 31.724 6.14184 31.733 6.05741 31.7384Z" fill="#BEFF33"/>
</svg>
