<svg width="210" height="29" viewBox="0 0 210 29" fill="none" xmlns="http://www.w3.org/2000/svg">
<path fill-rule="evenodd" clip-rule="evenodd" d="M160.09 28.39H151.5V17.62H134.88V28.39H126.19V0.460001H134.88V10.35H151.5V0.460001H160.1V28.39H160.09ZM178.75 26.05L183.97 18.87H192.5L186.78 10.5L186.34 9.85L173.2 28.39H162.97L180.88 3.13001C181.496 2.29297 182.242 1.5603 183.09 0.960001C184.089 0.342909 185.238 0.0110821 186.412 0.000505142C187.586 -0.0100718 188.74 0.301007 189.75 0.900003C190.628 1.4991 191.387 2.25511 191.99 3.13001L209.44 28.39H198.98L197.38 26.05H178.75ZM15.75 26.05L20.97 18.87H29.5L23.78 10.5L23.34 9.85L10.24 28.39H0L17.91 3.13001C18.523 2.29065 19.2696 1.55757 20.12 0.960001C21.1188 0.342909 22.2676 0.0110821 23.4416 0.000505142C24.6157 -0.0100718 25.7702 0.301007 26.78 0.900003C27.6544 1.49952 28.4105 2.25557 29.01 3.13001L46.5 28.39H36.01L34.41 26.05H15.75ZM86.39 10.94C86.4101 12.4017 86.0954 13.8487 85.47 15.17C84.8488 16.4518 83.9257 17.5636 82.78 18.41C81.4778 19.3615 80.0143 20.0696 78.46 20.5C76.5723 21.0252 74.6192 21.2778 72.66 21.25H58.06V28.39H49.5V14.11H73.5C74.6067 14.1801 75.7041 13.8696 76.61 13.23C76.9685 12.957 77.2564 12.6021 77.4495 12.195C77.6426 11.7878 77.7354 11.3404 77.72 10.89C77.7356 10.4439 77.6427 10.0007 77.4494 9.59835C77.256 9.19602 76.968 8.84658 76.61 8.58C75.6968 7.95752 74.6032 7.6551 73.5 7.72H49.5L55.21 0.460001H72.75C74.7105 0.433261 76.6644 0.692663 78.55 1.23C80.1045 1.6731 81.5628 2.40224 82.85 3.38001C83.9851 4.25684 84.8994 5.38691 85.52 6.68C86.1432 8.01273 86.4577 9.46888 86.44 10.94H86.39ZM123.23 21.26L117.68 28.44H90.79V0.460001H123.14L117.55 7.72H99.5V11.06H121.6L116.6 17.41H99.5V21.26H123.23Z" fill="white"/>
</svg>
